<svg width="186" height="36" viewBox="0 0 186 36" fill="none" xmlns="http://www.w3.org/2000/svg">
<path d="M77.1 29C77.1 29.2 77.1 29.2 76.9 29.3C76.9 29.5 76.7 29.5 76.6 29.5C76.4 29.5 76.3 29.7 76 29.7C75.7 29.7 75.5 29.7 75.1 29.7C74.8 29.7 74.5 29.7 74.2 29.7C73.9 29.7 73.7 29.7 73.6 29.5C73.4 29.5 73.3 29.3 73.3 29.3C73.3 29.1 73.1 29.1 73.1 29V27.3C72.3 28.1 71.6 28.9 70.6 29.3C69.7 29.8 68.7 30.1 67.8 30.1C66.7 30.1 65.6 29.9 64.9 29.5C64.1 29 63.5 28.4 62.9 27.6C62.4 26.8 62 25.9 61.8 25C62 23.9 62 22.8 62 21.6C62 20.2 62.2 19 62.5 17.9C62.8 16.8 63.3 15.9 63.7 15.1C64.3 14.3 64.9 13.7 65.7 13.4C66.5 12.9 67.4 12.8 68.5 12.8C69.3 12.8 70 13 70.8 13.3C71.4 13.6 72.2 14.2 72.8 14.9V6.6C72.8 6.4 72.8 6.4 73 6.3C73 6.2 73 6.2 73.2 6.2C73.4 6 73.7 6 74 6C74.3 6 74.6 6 75.1 6C75.6 6 75.9 6 76.2 6C76.4 6 76.5 6 76.7 6C76.9 6 77 6.2 77 6.2C77 6.2 77.2 6.4 77.2 6.5V29H77.1ZM72.9 18.9C72.3 18.1 71.7 17.5 71.2 17.2C70.7 16.9 70.1 16.6 69.5 16.6C68.9 16.6 68.4 16.8 68.1 17.1C67.8 17.4 67.3 17.7 67.2 18.2C66.9 18.7 66.7 19.1 66.6 19.8C66.4 20.4 66.4 20.9 66.4 21.5C66.4 22.1 66.4 22.7 66.6 23.4C66.8 24 66.9 24.5 67.1 25C67.3 25.5 67.6 25.8 68 26.1C68.3 26.4 68.9 26.6 69.4 26.6C69.7 26.6 70 26.6 70.3 26.4C70.6 26.2 70.9 26.2 71.1 25.9C71.4 25.7 71.7 25.4 72 25.1C72.3 24.8 72.6 24.5 72.9 24V18.9V18.9Z" fill="#002060"/>
<path d="M118.4 17.3C118.4 18.5 118.2 19.8 117.9 20.9C117.6 22 117 22.9 116.4 23.7C115.8 24.5 114.9 25.1 113.8 25.6C112.7 26.1 111.5 26.2 110.1 26.2C108.7 26.2 107.6 26 106.5 25.6C105.6 25.3 104.6 24.7 104 23.9C103.4 23.1 102.9 22.3 102.6 21.3C102.3 20.2 102.1 19.1 102.1 17.7C102.1 16.5 102.3 15.2 102.6 14.1C102.9 13 103.5 12.1 104.1 11.3C104.7 10.5 105.6 9.9 106.7 9.6C107.8 9.1 109 9 110.4 9C111.8 9 112.9 9.2 114 9.6C114.9 9.9 115.9 10.5 116.5 11.2C117.1 12 117.6 12.8 117.9 13.8C118.2 14.8 118.4 15.9 118.4 17.3ZM113.9 17.5C113.9 16.7 113.9 16.1 113.7 15.5C113.5 14.9 113.4 14.3 113.1 13.8C112.8 13.3 112.5 13 112 12.7C111.5 12.4 110.9 12.2 110.3 12.2C109.7 12.2 109.1 12.4 108.6 12.5C108.1 12.7 107.7 13.1 107.4 13.6C107.1 14.1 106.9 14.5 106.8 15.2C106.6 15.8 106.6 16.6 106.6 17.4C106.6 18.2 106.6 18.8 106.8 19.4C107 20 107.1 20.6 107.4 21.1C107.7 21.6 108 21.9 108.5 22.2C109 22.5 109.6 22.5 110.2 22.5C110.8 22.5 111.4 22.3 111.9 22.2C112.4 22 112.8 21.6 113.1 21.1C113.4 20.6 113.6 20.2 113.7 19.5C113.9 19 113.9 18.2 113.9 17.5Z" fill="#002060"/>
<path d="M136.8 15.3C136.8 16.7 136.6 17.9 136.3 19C136 20.1 135.5 21 135.1 21.8C134.5 22.6 133.9 23.2 133.1 23.5C132.3 24 131.4 24.1 130.3 24.1C129.8 24.1 129.5 24.1 129.1 23.9C128.8 23.7 128.3 23.7 128 23.4C127.7 23.2 127.4 22.9 126.9 22.8C126.6 22.5 126.3 22.2 125.8 21.9V29C125.8 29.2 125.8 29.2 125.6 29.3C125.4 29.5 125.4 29.5 125.3 29.6C125.1 29.6 125 29.8 124.7 29.8C124.4 29.8 124.1 29.8 123.6 29.8C123.1 29.8 122.8 29.8 122.5 29.8C122.2 29.8 122 29.6 121.9 29.6C121.7 29.6 121.6 29.4 121.6 29.4C121.6 29.4 121.4 29.2 121.4 29.1V7.9C121.4 7.7 121.4 7.7 121.6 7.6C121.6 7.4 121.8 7.4 121.9 7.4C122.1 7.4 122.2 7.2 122.5 7.2C122.7 7.2 123 7.2 123.4 7.2C123.7 7.2 124 7.2 124.3 7.2C124.5 7.2 124.8 7.2 124.9 7.4C125.1 7.4 125.2 7.6 125.2 7.6C125.2 7.8 125.4 7.8 125.4 7.9V9.8C125.9 9.3 126.3 8.9 126.6 8.6C126.8 8.3 127.1 8 127.5 7.7C128 7.4 128.4 7.2 128.9 7.2C129.4 7.2 129.8 7 130.4 7C131.5 7 132.4 7.2 133.2 7.6C134 8.1 134.6 8.7 135.1 9.5C135.6 10.3 136 11.2 136.2 12.1C136.5 13 136.8 14.1 136.8 15.3ZM132.3 15.6C132.3 15 132.3 14.4 132.1 13.7C131.9 13.1 131.8 12.6 131.6 12.1C131.4 11.6 131.1 11.3 130.7 11C130.2 10.7 129.8 10.5 129.3 10.5C129 10.5 128.7 10.5 128.5 10.7C128.2 10.9 127.9 10.9 127.7 11.2C127.4 11.4 127.1 11.7 126.8 12C126.5 12.3 126.2 12.6 125.9 13.1V18.1C126.5 18.9 127.1 19.5 127.6 19.8C128.1 20.1 128.7 20.4 129.3 20.4C129.9 20.4 130.4 20.2 130.7 19.9C131.2 19.6 131.5 19.3 131.6 18.8C131.9 18.3 132.1 17.9 132.2 17.2C132.5 16.7 132.3 16.1 132.3 15.6Z" fill="#002060"/>
<path d="M104 31.8C104 32 104 32.1 103.8 32.3C103.8 32.5 103.6 32.5 103.3 32.6C103.1 32.6 102.7 32.8 102.4 32.8C101.9 32.8 101.3 32.8 100.5 32.8C99.9 32.8 99.4 32.8 99 32.8C98.7 32.8 98.4 32.6 98.1 32.6C97.8 32.6 97.8 32.4 97.6 32.3C97.4 32.1 97.4 32 97.4 31.8L94.8 25.1C94.5 24.3 94.2 23.7 93.9 23.1C93.6 22.5 93.3 22 92.8 21.7C92.5 21.2 92 21.1 91.6 20.8C91.1 20.5 90.5 20.5 89.9 20.5H88V31.8C88 32 88 32.1 87.8 32.3C87.6 32.5 87.5 32.5 87.3 32.6C87.1 32.6 86.8 32.8 86.4 32.8C86.1 32.8 85.5 32.8 85 32.8C84.4 32.8 83.9 32.8 83.6 32.8C83.1 32.8 82.8 32.6 82.7 32.6C82.5 32.6 82.2 32.4 82.2 32.3C82.2 32.1 81.9 31.8 81.9 31.7V4.9C81.9 4.3 82.1 3.8 82.4 3.5C82.7 3.2 83.2 3 83.6 3H91.2C92 3 92.6 3 93.1 3C93.6 3 94 3 94.5 3.2C95.9 3.3 97 3.5 98 3.9C98.9 4.4 99.7 4.8 100.5 5.5C101.1 6.1 101.7 6.9 102 7.8C102.3 8.7 102.5 9.8 102.5 10.9C102.5 11.8 102.3 12.8 102.2 13.7C101.9 14.5 101.6 15.3 101.1 15.9C100.6 16.5 100 17.1 99.2 17.6C98.4 18.1 97.7 18.5 96.7 18.7C97.2 18.9 97.6 19.2 97.9 19.5C98.2 19.8 98.7 20.1 99 20.6C99.3 21.1 99.6 21.5 99.9 22.2C100.2 22.8 100.5 23.4 100.8 24.1L103.3 30C103.5 30.6 103.6 30.9 103.8 31.2C104 31.4 104 31.7 104 31.8ZM96.3 11.7C96.3 10.8 96.1 9.8 95.7 9.2C95.3 8.6 94.4 8.1 93.5 7.8C93.2 7.8 92.9 7.6 92.4 7.6C91.9 7.6 91.5 7.6 90.9 7.6H88.3V15.8H91.4C92.3 15.8 92.9 15.6 93.6 15.5C94.2 15.3 94.8 15 95.1 14.6C95.4 14.1 95.9 13.8 96 13.2C96.1 12.6 96.3 12.3 96.3 11.7Z" fill="#7030A0"/>
<path d="M11.6 0H0L10.7 18L0 36H11.6L22.3 18L11.6 0Z" fill="#E2F0D9"/>
<path d="M159.6 0H148L158.7 18L148 36H159.6L170.3 18L159.6 0Z" fill="#A9D18E"/>
<path d="M145.3 0H133.7L144.4 18L133.7 36H145.3L156 18L145.3 0Z" fill="#C5E0B4"/>
<path d="M174.3 0H162L173.1 18L162 36H174.2L185.3 18L174.3 0Z" fill="#548235"/>
<path d="M48.3 17.4C48.3 18.2 48.1 18.8 47.8 19.1C47.5 19.4 47 19.7 46.4 19.7H32.5C32.5 20.6 32.7 21.6 32.8 22.3C33 23.1 33.4 23.7 33.9 24.3C34.4 24.9 35 25.2 35.9 25.5C36.7 25.8 37.6 26 38.7 26C39.8 26 40.9 25.8 41.6 25.7C42.4 25.5 43.1 25.4 43.8 25.2C44.4 25 44.9 24.9 45.3 24.7C45.8 24.5 46.1 24.4 46.2 24.4C46.4 24.4 46.5 24.4 46.5 24.6C46.7 24.6 46.7 24.8 46.8 24.9C46.8 25.1 47 25.2 47 25.5C47 25.8 47 26.1 47 26.6C47 26.9 47 27.2 47 27.5C47 27.8 47 28 47 28.1C47 28.3 46.8 28.4 46.8 28.6C46.8 28.8 46.6 28.9 46.5 28.9C46.3 28.9 46 29.2 45.6 29.4C45.1 29.6 44.5 29.9 43.7 30C42.9 30.2 42 30.3 41.1 30.5C40.2 30.7 39.1 30.7 38 30.7C36 30.7 34.1 30.4 32.7 29.9C31.2 29.4 29.9 28.7 28.8 27.6C27.7 26.5 26.9 25.3 26.5 23.7C26 22.1 25.7 20.3 25.7 18.1C25.7 16.1 26 14.2 26.5 12.7C27 11.1 27.7 9.8 28.8 8.5C29.7 7.4 31 6.5 32.5 5.9C34 5.3 35.6 5 37.3 5C39.2 5 40.9 5.3 42.3 5.8C43.7 6.4 44.8 7.2 45.5 8.1C46.3 9 47 10.3 47.4 11.7C48 13.3 48.2 14.8 48.2 16.4V17.4H48.3ZM42.1 15.5C42.1 13.6 41.8 12.2 41 11.3C40.2 10.2 39 9.7 37.4 9.7C36.6 9.7 35.9 9.9 35.2 10.2C34.6 10.5 34.1 11 33.7 11.4C33.2 11.9 32.9 12.5 32.8 13.3C32.6 13.9 32.5 14.7 32.5 15.5H42.1Z" fill="#7F7F7F"/>
</svg>
