<svg id="Group_1464" data-name="Group 1464" xmlns="http://www.w3.org/2000/svg" xmlns:xlink="http://www.w3.org/1999/xlink" width="122.824" height="36.391" viewBox="0 0 122.824 36.391">
  <defs>
    <linearGradient id="linear-gradient" x1="138.979" y1="-102.137" x2="138.91" y2="-102.101" gradientUnits="objectBoundingBox">
      <stop offset="0" stop-color="#00a0ff"/>
      <stop offset="0.007" stop-color="#00a1ff"/>
      <stop offset="0.26" stop-color="#00beff"/>
      <stop offset="0.512" stop-color="#00d2ff"/>
      <stop offset="0.76" stop-color="#00dfff"/>
      <stop offset="1" stop-color="#00e3ff"/>
    </linearGradient>
    <linearGradient id="linear-gradient-2" x1="176.807" y1="-301.303" x2="176.679" y2="-301.303" gradientUnits="objectBoundingBox">
      <stop offset="0" stop-color="#ffe000"/>
      <stop offset="0.409" stop-color="#ffbd00"/>
      <stop offset="0.775" stop-color="orange"/>
      <stop offset="1" stop-color="#ff9c00"/>
    </linearGradient>
    <linearGradient id="linear-gradient-3" x1="108.181" y1="-199.038" x2="108.107" y2="-198.943" gradientUnits="objectBoundingBox">
      <stop offset="0" stop-color="#ff3a44"/>
      <stop offset="1" stop-color="#c31162"/>
    </linearGradient>
    <linearGradient id="linear-gradient-4" x1="108.124" y1="-199.052" x2="108.157" y2="-199.009" gradientUnits="objectBoundingBox">
      <stop offset="0" stop-color="#32a071"/>
      <stop offset="0.069" stop-color="#2da771"/>
      <stop offset="0.476" stop-color="#15cf74"/>
      <stop offset="0.801" stop-color="#06e775"/>
      <stop offset="1" stop-color="#00f076"/>
    </linearGradient>
  </defs>
  <path id="Path_1084" data-name="Path 1084" d="M254.261,3310.1H140.536a4.5,4.5,0,0,1-4.55-4.549v-27.294a4.5,4.5,0,0,1,4.55-4.548H254.261a4.5,4.5,0,0,1,4.549,4.548v27.294A4.5,4.5,0,0,1,254.261,3310.1Z" transform="translate(-135.986 -3273.706)" fill="#4a6572"/>
  <path id="Path_1085" data-name="Path 1085" d="M178.245,3282.841a2.476,2.476,0,0,1-.638,1.82,2.831,2.831,0,1,1-2-4.822,2.425,2.425,0,0,1,1.092.273,1.987,1.987,0,0,1,.819.637l-.455.455a1.7,1.7,0,0,0-1.455-.637,1.81,1.81,0,0,0-1.455.637,2.2,2.2,0,0,0,0,3.094,2.345,2.345,0,0,0,1.455.636,2,2,0,0,0,1.547-.636,1.508,1.508,0,0,0,.454-1.092h-2v-.728h2.639v.363Zm4.185-2.274h-2.456v1.729h2.274v.637h-2.274v1.729h2.456v.728h-3.185v-5.458h3.185Zm3,4.822H184.7v-4.822h-1.547v-.637h3.821v.637h-1.547Zm4.185,0v-5.458h.728v5.458Zm3.821,0h-.728v-4.822h-1.547v-.637h3.73v.637h-1.547v4.822Zm8.644-.728a2.856,2.856,0,1,1,.819-2A2.675,2.675,0,0,1,202.082,3284.661Zm-3.457-.455a2.149,2.149,0,0,0,1.455.637,1.81,1.81,0,0,0,1.455-.637,2.194,2.194,0,0,0,.637-1.547,1.87,1.87,0,0,0-.637-1.546,2.144,2.144,0,0,0-1.455-.638,1.808,1.808,0,0,0-1.455.638,2.189,2.189,0,0,0-.637,1.546A1.873,1.873,0,0,0,198.625,3284.206Zm5.276,1.182v-5.458h.819l2.639,4.276v-4.276h.728v5.458h-.728l-2.82-4.457v4.457Z" transform="translate(-135.12 -3273.562)" fill="#fff" stroke="#fff" stroke-miterlimit="10" stroke-width="0.01"/>
  <path id="Path_1086" data-name="Path 1086" d="M197.085,3293.182a3.828,3.828,0,0,0-3.913,3.912,3.883,3.883,0,0,0,3.913,3.912,3.828,3.828,0,0,0,3.912-3.912A3.774,3.774,0,0,0,197.085,3293.182Zm0,6.186a2.373,2.373,0,0,1,0-4.731,2.2,2.2,0,0,1,2.183,2.365A2.259,2.259,0,0,1,197.085,3299.368Zm-8.462-6.186a3.828,3.828,0,0,0-3.912,3.912,3.883,3.883,0,0,0,3.912,3.912,3.828,3.828,0,0,0,3.912-3.912A3.774,3.774,0,0,0,188.623,3293.182Zm0,6.186a2.373,2.373,0,0,1,0-4.731,2.2,2.2,0,0,1,2.183,2.365A2.258,2.258,0,0,1,188.623,3299.368Zm-10.1-5V3296h3.913a3.447,3.447,0,0,1-.91,2.093,4.032,4.032,0,0,1-3,1.182,4.235,4.235,0,0,1-4.275-4.367,4.29,4.29,0,0,1,4.275-4.366,4.513,4.513,0,0,1,3,1.182l1.182-1.182a5.829,5.829,0,0,0-4.094-1.638,6.005,6.005,0,1,0,0,12.009,5.235,5.235,0,0,0,4.185-1.729,5.474,5.474,0,0,0,1.455-3.821,3.408,3.408,0,0,0-.091-1Zm41.306,1.274a3.536,3.536,0,0,0-3.275-2.456,3.664,3.664,0,0,0-3.64,3.912,3.808,3.808,0,0,0,3.822,3.912,3.733,3.733,0,0,0,3.184-1.729l-1.274-.91a2.217,2.217,0,0,1-1.91,1.092,1.974,1.974,0,0,1-1.911-1.183l5.186-2.183-.182-.455Zm-5.277,1.273a2.21,2.21,0,0,1,2-2.274,1.609,1.609,0,0,1,1.455.819l-3.457,1.456Zm-4.275,3.73H212v-11.373h-1.728Zm-2.73-6.641a3,3,0,0,0-2.093-.91,3.909,3.909,0,0,0-3.73,3.912,3.767,3.767,0,0,0,3.73,3.821,2.612,2.612,0,0,0,2-.91h.091v.547a2.068,2.068,0,0,1-4,.91l-1.455.637a3.752,3.752,0,0,0,3.456,2.274c2,0,3.64-1.183,3.64-4v-6.915h-1.638V3294Zm-2,5.367a2.373,2.373,0,0,1,0-4.731,2.383,2.383,0,0,1,0,4.731Zm22.2-10.1H223.65v11.373h1.729v-4.275h2.365a3.553,3.553,0,1,0,0-7.1Zm.091,5.459h-2.456v-3.913h2.456a2,2,0,0,1,2,1.911,2.083,2.083,0,0,1-2,2Zm10.463-1.637a3.057,3.057,0,0,0-3,1.729l1.547.636a1.608,1.608,0,0,1,1.547-.819,1.71,1.71,0,0,1,1.82,1.455v.091a3.608,3.608,0,0,0-1.729-.456c-1.638,0-3.275.91-3.275,2.548a2.666,2.666,0,0,0,2.821,2.548,2.56,2.56,0,0,0,2.183-1.091h.091v.909h1.638v-4.367a3.443,3.443,0,0,0-3.64-3.184Zm-.181,6.277c-.547,0-1.365-.273-1.365-1,0-.91,1-1.182,1.82-1.182a3.515,3.515,0,0,1,1.547.363A2.119,2.119,0,0,1,238.117,3299.368Zm9.553-6.005-1.911,4.913h-.091l-2-4.913h-1.82l3,6.915-1.729,3.821h1.729l4.641-10.736Zm-15.284,7.279h1.728v-11.373h-1.728Z" transform="translate(-135.126 -3273.348)" fill="#fff"/>
  <g id="Group_927" data-name="Group 927" transform="translate(9.098 6.502)">
    <path id="Path_1087" data-name="Path 1087" d="M145.239,3280.372a1.78,1.78,0,0,0-.364,1.274v20.106a1.8,1.8,0,0,0,.455,1.274l.091.091,11.281-11.282v-.181Z" transform="translate(-144.875 -3280.051)" fill="url(#linear-gradient)"/>
    <path id="Path_1088" data-name="Path 1088" d="M160.072,3295.484l-3.73-3.731v-.272l3.73-3.731.091.091,4.458,2.547c1.273.728,1.273,1.911,0,2.639Z" transform="translate(-144.605 -3279.878)" fill="url(#linear-gradient-2)"/>
    <path id="Path_1089" data-name="Path 1089" d="M160.424,3295.3l-3.821-3.821-11.372,11.373c.454.455,1.091.455,1.91.091l13.283-7.643" transform="translate(-144.867 -3279.79)" fill="url(#linear-gradient-3)"/>
    <path id="Path_1090" data-name="Path 1090" d="M160.424,3287.93l-13.283-7.552a1.475,1.475,0,0,0-1.91.091l11.372,11.282,3.821-3.822Z" transform="translate(-144.867 -3280.058)" fill="url(#linear-gradient-4)"/>
    <path id="Path_1091" data-name="Path 1091" d="M160.333,3295.128l-13.192,7.461a1.488,1.488,0,0,1-1.819,0l-.091.091.091.091a1.488,1.488,0,0,0,1.819,0Z" transform="translate(-144.867 -3279.704)" opacity="0.2" style="isolation: isolate"/>
    <path id="Path_1092" data-name="Path 1092" d="M145.239,3302.674a1.778,1.778,0,0,1-.364-1.274v.091a1.8,1.8,0,0,0,.455,1.274v-.091Zm19.652-10.008-4.55,2.548.091.091,4.458-2.548a1.513,1.513,0,0,0,.91-1.273C165.8,3291.938,165.437,3292.3,164.891,3292.666Z" transform="translate(-144.875 -3279.79)" opacity="0.12" style="isolation: isolate"/>
    <path id="Path_1093" data-name="Path 1093" d="M147.149,3280.47l17.742,10.1c.546.365.91.728.91,1.183a1.513,1.513,0,0,0-.91-1.274l-17.742-10.1c-1.273-.728-2.274-.181-2.274,1.274v.091C144.875,3280.379,145.876,3279.743,147.149,3280.47Z" transform="translate(-144.875 -3280.059)" fill="#fff" opacity="0.25" style="isolation: isolate"/>
  </g>
</svg>
