<?xml version="1.0" encoding="utf-8"?>
<!-- Generator: Adobe Illustrator 24.1.1, SVG Export Plug-In . SVG Version: 6.00 Build 0)  -->
<svg version="1.1" id="Layer_1" xmlns="http://www.w3.org/2000/svg" xmlns:xlink="http://www.w3.org/1999/xlink" x="0px" y="0px"
	 viewBox="0 0 46.8 35.4" style="enable-background:new 0 0 46.8 35.4;" xml:space="preserve">
<style type="text/css">
	.st0{fill:#90B01C;}
	.st1{fill:#7F7F7F;}
	.st2{fill:#002060;}
	.st3{fill:#203864;}
	.st4{fill:#7030A0;}
	.st5{fill:#481F67;stroke:#481F67;stroke-width:0.6431;stroke-miterlimit:10;}
</style>
<g>
	<g>
		<path class="st0" d="M41.3,34.7H20.6v-34h20.7V34.7z M21.6,33.8h18.8V1.6H21.6V33.8z"/>
	</g>
	<g>
		<path class="st1" d="M33.9,15.2l5.5,9.1h1.3v0.8h-8v-0.8h2.2l-3.4-5.8l-3,4.1c-0.5,0.6-0.7,1.1-0.7,1.3c0,0.2,0.3,0.3,1,0.3h1.1
			V25h-5.3v-0.7h0.5c0.7,0,1.1-0.1,1.3-0.2c0.2-0.1,0.6-0.5,1-1.2l3.8-5.2l-4.8-8.1h-1.6V8.9h7.9v0.8h-1.7l2.8,4.7l2.5-3.5
			c0.3-0.4,0.5-0.7,0.5-0.9c0-0.2-0.3-0.4-0.9-0.4h-1.3V8.9h5.4v0.8h-1c-0.5,0-0.8,0.1-1,0.2c-0.2,0.1-0.5,0.5-0.9,1.1L33.9,15.2z"
			/>
	</g>
	<g>
		<path class="st2" d="M32.6,24.5H1.2c-0.2,0-0.3-0.1-0.3-0.3V5c0-0.2,0.1-0.3,0.3-0.3h31.5C32.9,4.7,33,4.8,33,5v19.1
			C32.9,24.3,32.8,24.5,32.6,24.5z M1.5,23.9h30.9V5.3H1.5V23.9z"/>
	</g>
	<g>
		<path class="st3" d="M12.8,10.4l-0.5,2.4h-0.9c0-0.5,0-0.8-0.1-1s-0.1-0.4-0.3-0.5c-0.1-0.1-0.3-0.2-0.5-0.2H10l-1.3,6.3
			c0,0.1,0,0.2-0.1,0.3c0,0.1,0,0.1,0,0.2c0,0.1,0,0.2,0,0.3c0,0.2,0.1,0.4,0.2,0.4c0.1,0.1,0.3,0.1,0.5,0.1l-0.1,0.4H5.7l0.1-0.4
			c0.2,0,0.4-0.1,0.5-0.2c0.1-0.1,0.2-0.2,0.3-0.4c0.1-0.2,0.2-0.4,0.2-0.8l1.3-6.3H7.6c-0.2,0-0.3,0-0.4,0S7.1,11.2,7,11.2
			c-0.1,0.1-0.2,0.1-0.3,0.2c-0.1,0.1-0.2,0.2-0.3,0.4c-0.1,0.2-0.2,0.4-0.4,0.7H5.1l0.5-2.2h7.2V10.4z"/>
	</g>
	<g>
		<path class="st3" d="M16.6,15.8h-0.9c0-0.2,0-0.4-0.1-0.5c0-0.1-0.1-0.1-0.2-0.1s-0.1,0-0.2,0s-0.1,0.1-0.2,0.1
			c-0.1,0.1-0.2,0.1-0.3,0.3c-0.1,0.1-0.2,0.2-0.3,0.4c-0.1,0.1-0.1,0.2-0.2,0.4s-0.1,0.3-0.1,0.5l-0.6,2.5h-1.3L13,16
			c0.1-0.3,0.1-0.6,0.1-0.7c0-0.1,0-0.2-0.1-0.3s-0.2-0.1-0.4-0.1l0.1-0.3l1.3-0.1h0.6l-0.4,1.2h0.1c0.3-0.4,0.6-0.7,0.9-0.9
			s0.6-0.3,1-0.3c0.2,0,0.5,0,0.7,0.1L16.6,15.8z"/>
		<path class="st3" d="M21.1,14.7l0.5-0.4l0.6,0.1l-0.9,3.5c0,0.2-0.1,0.3-0.1,0.4c0,0.1,0,0.2,0,0.3c0,0.2,0,0.3,0.1,0.3
			c0.1,0.1,0.2,0.1,0.4,0.1l-0.1,0.3h-1.8l0.3-1h-0.1c-0.2,0.3-0.4,0.5-0.6,0.7s-0.4,0.3-0.6,0.3c-0.2,0.1-0.4,0.1-0.7,0.1
			c-0.2,0-0.4-0.1-0.6-0.2c-0.2-0.1-0.3-0.3-0.4-0.5c-0.1-0.2-0.2-0.5-0.2-0.9s0-0.7,0.1-1.1c0.1-0.4,0.2-0.7,0.4-1
			c0.2-0.3,0.4-0.6,0.6-0.8c0.2-0.2,0.5-0.4,0.8-0.5c0.3-0.1,0.6-0.2,1-0.2C20.3,14.4,20.7,14.5,21.1,14.7z M20.3,16.3
			c0-0.1,0-0.2,0.1-0.4c0-0.1,0-0.3,0-0.4c0-0.2,0-0.4-0.1-0.5c-0.1-0.1-0.2-0.2-0.4-0.2c-0.3,0-0.6,0.2-0.8,0.5s-0.4,0.7-0.6,1.3
			c-0.1,0.5-0.2,1-0.2,1.3c0,0.2,0,0.4,0.1,0.5c0.1,0.1,0.2,0.2,0.3,0.2c0.2,0,0.4-0.1,0.7-0.3c0.2-0.2,0.4-0.5,0.6-0.8
			C20.1,17.2,20.3,16.8,20.3,16.3L20.3,16.3z"/>
		<path class="st3" d="M27.3,19.2h-2l0.6-2.6c0.1-0.4,0.1-0.7,0.2-0.8c0-0.1,0-0.3,0-0.3c0-0.2,0-0.3-0.1-0.3
			c-0.1-0.1-0.2-0.1-0.3-0.1c-0.1,0-0.2,0-0.4,0.1c-0.1,0.1-0.3,0.2-0.4,0.4c-0.2,0.2-0.3,0.4-0.4,0.5c-0.1,0.2-0.2,0.4-0.2,0.7
			l-0.6,2.5h-1.3l0.8-3.4c0-0.1,0-0.2,0.1-0.3c0-0.1,0-0.3,0-0.4c0-0.1,0-0.2-0.1-0.3c-0.1-0.1-0.2-0.1-0.4-0.1l0.1-0.3l1.3-0.1h0.5
			l-0.3,1.1h0.1c0.2-0.3,0.4-0.5,0.6-0.7c0.2-0.2,0.4-0.3,0.6-0.4c0.2-0.1,0.4-0.1,0.6-0.1c0.3,0,0.6,0.1,0.8,0.3s0.3,0.5,0.3,0.8
			c0,0.2,0,0.5-0.1,0.8l-0.4,1.8c0,0.2-0.1,0.3-0.1,0.4c0,0.1,0,0.2,0,0.2c0,0.2,0,0.3,0.1,0.3C27,19,27.1,19,27.2,19L27.3,19.2z"/>
		<path class="st3" d="M29,17.9c0,0.2,0.1,0.4,0.1,0.6c0.1,0.1,0.2,0.2,0.3,0.3c0.1,0.1,0.3,0.1,0.4,0.1c0.3,0,0.5-0.1,0.6-0.2
			c0.1-0.1,0.2-0.3,0.2-0.5c0-0.1,0-0.3-0.1-0.4c0-0.1-0.1-0.2-0.2-0.3c-0.1-0.1-0.3-0.2-0.5-0.4c-0.3-0.2-0.6-0.4-0.7-0.6
			c-0.2-0.2-0.2-0.5-0.2-0.7c0-0.5,0.2-0.9,0.6-1.1c0.4-0.3,0.9-0.4,1.4-0.4c0.3,0,0.5,0,0.8,0.1c0.3,0,0.6,0.1,0.8,0.2l-0.3,1.2
			h-0.6c0-0.3-0.1-0.5-0.2-0.7c-0.1-0.1-0.3-0.2-0.6-0.2c-0.2,0-0.4,0.1-0.5,0.2c-0.1,0.1-0.2,0.3-0.2,0.5c0,0.1,0,0.2,0.1,0.3
			c0.1,0.1,0.1,0.2,0.2,0.3c0.1,0.1,0.3,0.2,0.5,0.3c0.4,0.2,0.6,0.4,0.8,0.7c0.2,0.2,0.2,0.5,0.2,0.8c0,0.3-0.1,0.6-0.3,0.9
			c-0.2,0.2-0.4,0.4-0.7,0.5c-0.3,0.1-0.7,0.2-1.1,0.2c-0.4,0-0.7,0-1-0.1c-0.3,0-0.6-0.1-0.9-0.2l0.3-1.2H29V17.9z"/>
	</g>
	<g>
		<path class="st4" d="M45.6,22.6H30.8c-0.2,0-0.3-0.1-0.3-0.3V7.5c0-0.2,0.1-0.3,0.3-0.3h14.8c0.2,0,0.3,0.1,0.3,0.3v14.8
			C45.9,22.5,45.8,22.6,45.6,22.6z M31.1,22h14.2V7.8H31.1V22z"/>
	</g>
	<g>
		<path class="st5" d="M36.2,15.2c0.5-0.4,1.1-0.6,1.6-0.6s1,0.2,1.3,0.6c0.3,0.5,0.3,1,0.1,1.6c-0.2,0.7-0.7,1.3-1.3,1.6
			c-0.5,0.4-1.1,0.6-1.6,0.6c-0.6,0-1-0.2-1.2-0.6c-0.3-0.5-0.3-1-0.1-1.6C35.2,16.2,35.6,15.6,36.2,15.2z M36.7,15.6
			c-0.4,0.3-0.7,0.8-0.9,1.2c-0.2,0.5-0.2,1,0,1.2c0.2,0.2,0.4,0.4,0.7,0.4s0.6-0.1,1-0.4c0.4-0.3,0.7-0.7,0.9-1.2
			c0.2-0.5,0.2-1-0.1-1.3c-0.1-0.2-0.4-0.3-0.7-0.3S37,15.4,36.7,15.6z"/>
		<path class="st5" d="M44,14.6l-0.3,0.9c-0.1,0-0.2,0-0.4,0c-0.4,0-0.8,0.2-1.2,0.5c-0.4,0.3-0.7,0.6-0.9,0.9L40.4,19h-0.8l1.4-4.3
			h0.8l-0.4,1.1c0.2-0.2,0.4-0.4,0.6-0.6C42.6,14.8,43.2,14.6,44,14.6z"/>
	</g>
</g>
</svg>
