<svg id="Capa_1" enable-background="new 0 0 512 512" height="512" viewBox="0 0 512 512" width="512" xmlns="http://www.w3.org/2000/svg"><g><path d="m418.149 173.733c-4.143 0-7.5 3.358-7.5 7.5v312.368c0 1.875-1.525 3.399-3.399 3.399h-293.16c-1.874 0-3.399-1.525-3.399-3.399v-84.047c0-4.142-3.358-7.5-7.5-7.5s-7.5 3.358-7.5 7.5v84.047c0 10.146 8.254 18.399 18.399 18.399h293.16c10.146 0 18.399-8.254 18.399-18.399v-312.368c0-4.143-3.357-7.5-7.5-7.5z"/><path d="m407.25 66.962h-54.432c.245-1.728.379-3.49.379-5.285 0-20.7-16.841-37.54-37.54-37.54s-37.539 16.84-37.539 37.54c0 1.794.135 3.557.379 5.285h-81.812c-1.975.015-3.905.8-5.303 2.197l-93.495 93.495c-1.392 1.399-2.191 3.33-2.196 5.303v204.571c0 4.142 3.358 7.5 7.5 7.5s7.5-3.358 7.5-7.5v-197.071h75.095c10.146 0 18.399-8.254 18.399-18.399v-75.096h79.91c6.688 10.37 18.332 17.255 31.562 17.255s24.875-6.886 31.563-17.255h60.03c1.874 0 3.399 1.525 3.399 3.399v58.845c0 4.142 3.357 7.5 7.5 7.5s7.5-3.358 7.5-7.5v-58.845c0-10.145-8.254-18.399-18.399-18.399zm-221.464 93.495h-64.488l67.888-67.888v64.489c-.001 1.874-1.525 3.399-3.4 3.399zm129.871-76.24c-12.428 0-22.539-10.111-22.539-22.54s10.111-22.54 22.539-22.54c12.429 0 22.54 10.111 22.54 22.54s-10.111 22.54-22.54 22.54z"/><path d="m235.915 356.298c2.67 3.167 7.402 3.57 10.568.898 3.367-2.84 8.149-4.465 13.13-4.465h.069c5.006.015 9.808 1.671 13.173 4.544 1.413 1.206 3.144 1.795 4.865 1.795 2.119 0 4.225-.893 5.708-2.631 2.689-3.15 2.315-7.884-.835-10.574-6.115-5.22-14.236-8.109-22.866-8.135-.039 0-.078 0-.118 0-8.585 0-16.677 2.838-22.796 7.998-3.166 2.672-3.568 7.403-.898 10.57z"/><path d="m300.722 324.938c.158.017.319.02.48.027.094.004.187.015.282.016h.042c4.123 0 7.477-3.331 7.499-7.459.02-3.64-2.557-6.687-5.994-7.388-.025-.005-.051-.007-.077-.012-.216-.042-.435-.078-.657-.1-.09-.009-.182-.009-.273-.015-.152-.01-.304-.025-.458-.026h-.089c-.014 0-.027 0-.042 0-.258 0-.513.013-.765.039-3.782.38-6.699 3.575-6.699 7.462 0 3.844 2.931 7.008 6.663 7.444.03.002.059.009.088.012z"/><path d="m219.818 309.981c-4.142 0-7.457 3.358-7.457 7.5s3.402 7.5 7.544 7.5 7.5-3.358 7.5-7.5-3.358-7.5-7.5-7.5z"/><path d="m188.27 267.212c-13.471 16.552-20.889 37.442-20.889 58.82 0 51.44 41.85 93.29 93.291 93.29s93.29-41.85 93.29-93.29c0-21.383-7.421-42.275-20.896-58.829-13.277-16.311-31.844-27.769-52.279-32.263-4.049-.893-8.046 1.669-8.937 5.714-.89 4.045 1.669 8.046 5.714 8.936 17.142 3.77 32.722 13.388 43.869 27.083 11.304 13.886 17.529 31.416 17.529 49.359 0 43.169-35.121 78.29-78.29 78.29s-78.291-35.121-78.291-78.29c0-17.94 6.223-35.467 17.523-49.352 11.144-13.693 26.719-23.313 43.856-27.086 4.045-.891 6.603-4.892 5.712-8.938-.891-4.045-4.892-6.6-8.938-5.712-20.43 4.5-38.991 15.959-52.264 32.268z"/><path d="m260.641 207.515c4.131 0 7.486-3.343 7.499-7.478l.073-24.316c.013-4.142-3.335-7.51-7.478-7.522-.008 0-.015 0-.023 0-4.131 0-7.486 3.343-7.499 7.478l-.073 24.316c-.012 4.142 3.335 7.51 7.478 7.522z"/><path d="m224.384 217.879c1.311 0 2.64-.344 3.846-1.067 3.554-2.128 4.709-6.734 2.581-10.288l-12.634-21.093c-2.128-3.554-6.734-4.71-10.288-2.581-3.554 2.128-4.709 6.734-2.581 10.288l12.634 21.093c1.406 2.347 3.892 3.648 6.442 3.648z"/><path d="m296.833 218.211c2.534 0 5.007-1.285 6.418-3.609l12.761-21.023c2.149-3.541 1.021-8.154-2.52-10.303-3.542-2.148-8.153-1.021-10.303 2.52l-12.761 21.023c-2.149 3.541-1.021 8.154 2.52 10.303 1.217.738 2.559 1.089 3.885 1.089z"/><path d="m113.564 68.682c1.464 1.465 3.384 2.197 5.303 2.197s3.839-.732 5.303-2.197l6.314-6.314 6.314 6.314c1.464 1.464 3.384 2.197 5.303 2.197s3.839-.732 5.303-2.197c2.929-2.929 2.929-7.678 0-10.606l-6.314-6.314 6.314-6.314c2.929-2.929 2.929-7.678 0-10.606-2.929-2.929-7.678-2.929-10.606 0l-6.314 6.314-6.314-6.314c-2.929-2.929-7.678-2.929-10.606 0-2.929 2.929-2.929 7.678 0 10.606l6.314 6.314-6.314 6.314c-2.929 2.928-2.929 7.677 0 10.606z"/><path d="m238.954 33.051c1.464 1.465 3.384 2.197 5.303 2.197s3.839-.732 5.303-2.197l4.821-4.82 4.82 4.82c1.465 1.464 3.385 2.197 5.304 2.197s3.839-.732 5.304-2.197c2.929-2.929 2.929-7.678 0-10.606l-4.821-4.821 4.821-4.821c2.929-2.929 2.929-7.678 0-10.606-2.93-2.929-7.678-2.929-10.607 0l-4.82 4.82-4.821-4.82c-2.929-2.929-7.678-2.929-10.606 0-2.929 2.929-2.929 7.678 0 10.606l4.821 4.821-4.821 4.821c-2.931 2.928-2.931 7.677-.001 10.606z"/><path d="m116.158 111.501c0-16.043-13.052-29.095-29.095-29.095s-29.095 13.052-29.095 29.095 13.052 29.095 29.095 29.095 29.095-13.052 29.095-29.095zm-29.095 14.095c-7.772 0-14.095-6.323-14.095-14.095s6.323-14.095 14.095-14.095 14.095 6.323 14.095 14.095-6.323 14.095-14.095 14.095z"/><path d="m447.015 31.637 4.821-4.821c2.929-2.929 2.929-7.678 0-10.606-2.93-2.929-7.678-2.929-10.607 0l-4.82 4.82-4.82-4.82c-2.93-2.929-7.678-2.929-10.607 0s-2.929 7.678 0 10.606l4.821 4.821-4.821 4.821c-2.929 2.929-2.929 7.678 0 10.606 1.465 1.464 3.385 2.197 5.304 2.197s3.839-.732 5.304-2.197l4.82-4.82 4.82 4.82c1.465 1.464 3.385 2.197 5.304 2.197s3.839-.732 5.304-2.197c2.929-2.929 2.929-7.678 0-10.606z"/></g></svg>