<?xml version="1.0" encoding="utf-8"?>
<!-- Generator: Adobe Illustrator 24.1.1, SVG Export Plug-In . SVG Version: 6.00 Build 0)  -->
<svg version="1.1" id="Layer_1" xmlns="http://www.w3.org/2000/svg" xmlns:xlink="http://www.w3.org/1999/xlink" x="0px" y="0px"
	 viewBox="0 0 300 92.7" style="enable-background:new 0 0 300 92.7;" xml:space="preserve">
<style type="text/css">
	.st0{fill:#364349;}
</style>
<g id="Layer_2_1_">
	<g id="Layer_1-2">
		<g id="Shape_1">
			<path class="st0" d="M68.7,66.7c-1.2,0-2.2,1-2.2,2.2s1,2.2,2.2,2.2s2.2-1,2.2-2.2l0,0C70.8,67.7,69.9,66.7,68.7,66.7z
				 M65.6,62.4c0.2-0.1,0.4-0.2,0.6-0.3v-7.4c-2.1,0.4-4.1,1.2-5.9,2.4L65.6,62.4z M71,75.6V83c2.1-0.4,4.1-1.2,5.9-2.4l-5.2-5.2
				C71.5,75.5,71.3,75.6,71,75.6L71,75.6z M68.7,72.8c-0.5,0-0.9,0.4-0.9,0.9s0.4,0.9,0.9,0.9s0.9-0.4,0.9-0.9l0,0
				C69.6,73.2,69.2,72.8,68.7,72.8z M75.2,71.9l5.2,5.2c1.2-1.8,2.1-3.8,2.4-5.9h-7.4C75.4,71.5,75.3,71.7,75.2,71.9L75.2,71.9z
				 M75.2,65.8c0.1,0.2,0.2,0.4,0.3,0.7h7.4c-0.4-2.1-1.2-4.1-2.4-5.9L75.2,65.8z M62.2,65.8L57,60.6c-1.2,1.8-2.1,3.8-2.4,5.9H62
				C62,66.2,62.1,66,62.2,65.8L62.2,65.8z M72.6,68.8c0,0.5,0.4,0.9,0.9,0.9s0.9-0.4,0.9-0.9s-0.4-0.9-0.9-0.9l0,0
				C73,68,72.6,68.4,72.6,68.8z M68.7,64.9c0.5,0,0.9-0.4,0.9-0.9s-0.4-0.9-0.9-0.9s-0.9,0.4-0.9,0.9l0,0
				C67.7,64.5,68.2,64.9,68.7,64.9L68.7,64.9L68.7,64.9z M77,57.1c-1.8-1.2-3.8-2.1-5.9-2.4v7.4c0.2,0.1,0.4,0.2,0.7,0.3L77,57.1z
				 M68.7,45.4c-13,0-23.5,10.5-23.5,23.5s10.5,23.5,23.5,23.5s23.5-10.5,23.5-23.5l0,0C92.2,55.9,81.7,45.4,68.7,45.4z M68.7,85.7
				c-9.3,0-16.8-7.5-16.8-16.8s7.5-16.8,16.8-16.8s16.8,7.5,16.8,16.8l0,0C85.4,78.1,77.9,85.6,68.7,85.7z M60.4,80.6
				c1.8,1.2,3.8,2.1,5.9,2.4v-7.4c-0.2-0.1-0.4-0.2-0.6-0.3L60.4,80.6z M64.7,68.8c0-0.5-0.4-0.9-0.9-0.9s-0.9,0.4-0.9,0.9
				s0.4,0.9,0.9,0.9l0,0C64.3,69.8,64.7,69.4,64.7,68.8z M61.9,71.3h-7.4c0.4,2.1,1.2,4.1,2.4,5.9l5.2-5.2
				C62.1,71.7,62,71.5,61.9,71.3L61.9,71.3z M299,64.7V53.8l-0.9-0.4l-0.2-2.3c-0.6-2.3-1.3-5.4-2.6-7.3c-2.4-3.6-6.7-5.4-10.9-7.3
				c-11.5-5-43.2-11.3-52.8-11.5c0.3,0,0.2,0-0.5,0h0.5c-1.5-0.1-13.4-0.9-18.3-0.2c-0.1,0-0.1,0-0.2,0h0.2
				c0.8-0.3-3.3-3.4-43.1-23.7c-0.8-0.4-1.7-0.4-2.3-0.9c-3.2,0.1-6.1,2-7.5,4.9c0.2,0.5,10.8,4,17.9,8.9c3.7,2.6,2.4,1.8,5.1,4.9
				c-1.1,1.6-2.9,6.7,0.2,7.7c-7.5,0.8-2.6-3.7-2.1-7.9c-2.3-0.6-4.7,7.9-4.7,7.9l-43.7-2.1c-0.9,0.1-1.7,0-2.6-0.2
				c-1.1-5.3,3.3-7.5,0-15.6c-0.4-0.9-3.2-2.5-4.7-1.5c-0.7-2.1-2.2,11-2.1,17.1c0.4,0.4-42.5-1.9-42.9-2.1
				c-0.3-11-0.4-9.4-0.9-12.6C81,10,73,7.2,71.3,14.8c-0.5,1.9-0.8,3.8-0.8,5.7c-5.2-1.3-13.2-0.6-19.6-0.6C44.7,19.9,39,19.6,33,21
				c-3.3,0.7-6.7,0.4-9.8,1.1c-3.7,0.8-7.5,0.3-11.1,1.1c-1.3,0.3-2.7-0.4-3.4,0C6.5,24,6,27.5,6.1,30.7c1.3,1.2-0.1,0.7,1.7,1.1
				c0,4.3-0.3,10-1.7,12.4c-0.4,0.6-4.3,1.9-5.1,2.3c0.1,3.2,0.3,6.4,0.4,9.6c0.8,2.4,5,5.4,0.9,8.1C2.5,65.8,3.5,66,4,67.3
				c1,0.3,2,0.4,3,0.4c0.3,1.1,0.6,2.1,0.9,3.2c2.7,5.3,7.9,3.2,18.3,3.4c1.4,0.4,2.9,0.8,4.3,1.3h13.9c0-0.2,0-0.4,0-0.6v-6.6
				c0-13.7,11.1-24.7,24.8-24.7s24.7,11.1,24.7,24.7v7.3h130.4l0.2-8.1c0-13.2,11.1-23.9,24.3-23.9c13.2,0,23.9,10.7,23.9,23.9v8.1
				h4.5l16.4-0.6c4.6-1.4,5.7-3,2.7-5.1c-0.1,0.1-0.1,0.1-0.3-0.2l0.3,0.2c0.2-0.4-0.3-3.5,0.7-5.1L299,64.7z M251,75.7v7.4
				c2.1-0.4,4.1-1.2,5.9-2.4l-5.2-5.2C251.4,75.5,251.2,75.6,251,75.7L251,75.7z M248.6,66.7c-1.2,0-2.2,1-2.2,2.1
				c0,1.2,1,2.2,2.1,2.2c1.2,0,2.2-1,2.2-2.1l0,0C250.7,67.7,249.8,66.7,248.6,66.7z M245.5,62.4c0.2-0.1,0.4-0.2,0.6-0.3v-7.4
				c-2.1,0.4-4.1,1.2-5.9,2.4L245.5,62.4z M248.6,72.8c-0.5,0-0.9,0.4-0.9,0.9s0.4,0.9,0.9,0.9s0.9-0.4,0.9-0.9l0,0
				C249.5,73.2,249.1,72.8,248.6,72.8z M248.6,45.3c-13,0-23.5,10.5-23.5,23.5s10.5,23.5,23.5,23.5s23.5-10.5,23.5-23.5l0,0
				C272.1,55.9,261.6,45.4,248.6,45.3L248.6,45.3z M248.6,85.7c-9.3,0-16.8-7.5-16.8-16.8s7.5-16.8,16.8-16.8
				c9.3,0,16.8,7.5,16.8,16.8C265.4,78.1,257.9,85.7,248.6,85.7L248.6,85.7L248.6,85.7z M255.1,65.8c0.1,0.2,0.2,0.4,0.3,0.7h7.4
				c-0.4-2.1-1.2-4.1-2.4-5.9L255.1,65.8z M255.1,71.9l5.2,5.2c1.2-1.8,2.1-3.8,2.4-5.9h-7.4C255.3,71.5,255.2,71.7,255.1,71.9
				L255.1,71.9z M252.5,68.8c0,0.5,0.4,0.9,0.9,0.9s0.9-0.4,0.9-0.9s-0.4-0.9-0.9-0.9l0,0C253,67.9,252.5,68.3,252.5,68.8z
				 M248.6,64.9c0.5,0,0.9-0.4,0.9-0.9s-0.4-0.9-0.9-0.9s-0.9,0.4-0.9,0.9l0,0C247.7,64.5,248.1,64.9,248.6,64.9L248.6,64.9
				L248.6,64.9z M242.1,65.8l-5.2-5.2c-1.2,1.8-2.1,3.8-2.4,5.9h7.4C241.9,66.2,242,66,242.1,65.8L242.1,65.8z M256.9,57.1
				c-1.8-1.2-3.8-2.1-5.9-2.4v7.4c0.2,0.1,0.4,0.2,0.7,0.3L256.9,57.1z M241.8,71.3h-7.4c0.4,2.1,1.2,4.1,2.4,5.9L242,72
				C242,71.7,241.9,71.5,241.8,71.3z M244.6,68.8c0-0.5-0.4-0.9-0.9-0.9s-0.9,0.4-0.9,0.9s0.4,0.9,0.9,0.9l0,0
				C244.2,69.8,244.6,69.4,244.6,68.8z M240.3,80.6c1.8,1.2,3.8,2.1,5.9,2.4v-7.4c-0.2-0.1-0.4-0.2-0.6-0.3L240.3,80.6z"/>
		</g>
	</g>
</g>
</svg>
