<?xml version="1.0" encoding="utf-8"?>
<!-- Generator: Adobe Illustrator 24.1.1, SVG Export Plug-In . SVG Version: 6.00 Build 0)  -->
<svg version="1.1" id="Layer_1" xmlns="http://www.w3.org/2000/svg" xmlns:xlink="http://www.w3.org/1999/xlink" x="0px" y="0px"
	 viewBox="0 0 300 74.4" style="enable-background:new 0 0 300 74.4;" xml:space="preserve">
<style type="text/css">
	.st0{fill:#364349;}
</style>
<g>
	<path class="st0" d="M299,36.3c0-1-0.4-2-1.2-2.7c-0.4-0.3-0.8-0.6-1.2-0.8c-0.5-0.2-1-0.2-1.5-0.2l-2-9.4h0l-0.2-1.1
		c-0.7-3.4-3.6-5.9-7-6.2l-14.5-1.2v0c0,0-14-9.9-25.9-12.1v0c-5.8-1.6-11.8-2.4-17.9-2.4L100.2,0.8c-4.8,0-9.6,1.1-13.9,3.2l0,0
		c-0.2,0.1-0.4,0.2-0.6,0.3c-0.2,0.1-0.4,0.2-0.6,0.3c-0.6,0.3-1.1,0.6-1.7,1L62.9,18.3l-47.2,3.6C10.1,22.4,5.3,26,3.3,31.2
		c-0.2,0.6-0.4,1.2-0.6,1.8c-0.1,0.2-0.1,0.3-0.2,0.5c-0.1,0.5-0.3,0.9-0.4,1.4C2.1,35,2,35.2,2,35.4c-0.1,0.6-0.3,1.2-0.4,1.7
		c0,0,0,0.1,0,0.1c-0.1,0.6-0.2,1.3-0.3,2c0,0,0,0.1,0,0.1h0c-0.2,1.5-0.3,3-0.3,4.5l0,2.8c0,4.7,3.4,8.5,7.9,9.2v0
		c0.1,0,0.2,0,0.3,0.1c0,0,0.1,0,0.1,0c0,0,0.1,0,0.1,0c0,0,0.1,0,0.1,0c0,0,0,0,0.1,0c0.1,0,0.1,0,0.2,0c0.1,0,0.2,0,0.2,0
		c0.1,0,0.3,0,0.4,0l1.3,0l0.1-1.7c0.9-9.7,9-17.3,18.9-17.3c10.1,0,18.3,7.8,19,17.7l0,0l0,0.3l0,0.5c0,0,0,0,0,0l0,0.4l192-0.7
		l0-1c0.9-9.6,9-17.2,18.9-17.2c9.1,0,16.7,6.4,18.5,14.9l0,1.3l7.7,0c4.6,0,8.6-2.6,10.6-6.4c0.2-0.3,0.4-0.7,0.5-1.1
		c0.6-1.5,0.9-3,0.9-4.7L299,36.3z M116.6,21.7l-44.2,0.7L92.9,7.7c1.7-1.2,3.7-1.9,5.8-1.9L121,5.7L116.6,21.7z M197.6,17.1
		c0,1.3-1.1,2.3-2.4,2.4l-57.9,1.9c-1.5,0-2.7-1.4-2.4-2.9l2-10.8c0.2-1.1,1.2-2,2.4-2l56.2-0.3c1.4,0,2.5,1.1,2.4,2.5L197.6,17.1z
		 M213.6,19.1l0.5-13.8l15.2,0c3.4,0,6.7,1.1,9.3,3.3l12.4,10L213.6,19.1z"/>
	<path class="st0" d="M89.3,6.3l-3-2.3c-1,0.5-1.9,1-2.8,1.5L62.9,18.3c0,1.7,1.1,3.2,2.7,3.7l1.2,0.4L89.2,7.2
		C89.5,7,89.5,6.5,89.3,6.3z"/>
	<path class="st0" d="M289.7,17.2l-2.4,5.1c-0.3,0.7-0.4,1.4-0.2,2.1l2,7.2c0.2,0.6,0.8,1.1,1.4,1.1l4.5,0v0l-2.2-10.6
		C292.5,20,291.3,18.3,289.7,17.2z"/>
	<path class="st0" d="M89.2,7.2c0.3-0.2,0.3-0.6,0-0.8l-3-2.3c-1,0.5-1.9,1-2.8,1.5L62.9,18.3c0,0.1,0,0.3,0,0.4l23.2-9.4L89.2,7.2z
		"/>
	<path class="st0" d="M75,24.7l1.3,0c0.7,0,1.2-0.6,1.2-1.2l0-3.7c0-0.7-0.6-1.2-1.2-1.2l-1.3,0c-1.5,0-2.7,1.2-2.7,2.7l0,0.7
		C72.3,23.5,73.5,24.7,75,24.7z"/>
	<path class="st0" d="M30.8,54.3c-0.9,0-1.7,0.7-1.7,1.7c0,0.9,0.7,1.7,1.7,1.7c0.9,0,1.7-0.7,1.7-1.7C32.4,55,31.7,54.3,30.8,54.3z
		 M30.8,59c-0.4,0-0.7,0.3-0.7,0.7c0,0.4,0.3,0.7,0.7,0.7c0.4,0,0.7-0.3,0.7-0.7C31.5,59.3,31.2,59,30.8,59z M35.8,58.3l4,4
		c0.9-1.3,1.6-2.9,1.9-4.6H36C35.9,58,35.9,58.2,35.8,58.3z M32.6,61.2v5.7c1.7-0.3,3.2-0.9,4.6-1.9l-4-4
		C33,61.1,32.8,61.1,32.6,61.2z M35.8,53.6c0.1,0.2,0.1,0.3,0.2,0.5h5.7c-0.3-1.7-0.9-3.2-1.9-4.6L35.8,53.6z M28.4,50.9
		c0.2-0.1,0.3-0.1,0.5-0.2V45c-1.7,0.3-3.2,0.9-4.6,1.9L28.4,50.9z M24.3,65c1.3,0.9,2.9,1.6,4.6,1.9v-5.7c-0.2-0.1-0.3-0.1-0.5-0.2
		L24.3,65z M33.8,55.9c0,0.4,0.3,0.7,0.7,0.7s0.7-0.3,0.7-0.7c0-0.4-0.3-0.7-0.7-0.7S33.8,55.6,33.8,55.9z M27.7,55.9
		c0-0.4-0.3-0.7-0.7-0.7c-0.4,0-0.7,0.3-0.7,0.7c0,0.4,0.3,0.7,0.7,0.7C27.4,56.7,27.7,56.3,27.7,55.9z M37.2,46.9
		c-1.3-0.9-2.9-1.6-4.6-1.9v5.7c0.2,0.1,0.3,0.1,0.5,0.2L37.2,46.9z M30.8,52.9c0.4,0,0.7-0.3,0.7-0.7c0-0.4-0.3-0.7-0.7-0.7
		c-0.4,0-0.7,0.3-0.7,0.7C30.1,52.6,30.4,52.9,30.8,52.9z M30.8,37.7c-10.1,0-18.2,8.1-18.2,18.2s8.1,18.2,18.2,18.2
		C40.8,74.2,49,66,49,56C49,45.9,40.8,37.7,30.8,37.7z M30.8,69c-7.2,0-13-5.8-13-13c0-7.2,5.8-13,13-13s13,5.8,13,13
		C43.8,63.1,38,69,30.8,69z M25.5,57.8h-5.7c0.3,1.7,0.9,3.2,1.9,4.6l4-4C25.7,58.2,25.6,58,25.5,57.8z M25.7,53.6l-4-4
		c-0.9,1.3-1.6,2.9-1.9,4.6h5.7C25.6,53.9,25.7,53.7,25.7,53.6z"/>
	<path class="st0" d="M260.7,54.3c-0.9,0-1.7,0.7-1.7,1.7c0,0.9,0.7,1.7,1.7,1.7c0.9,0,1.7-0.7,1.7-1.7
		C262.4,55,261.6,54.3,260.7,54.3z M260.7,59c-0.4,0-0.7,0.3-0.7,0.7c0,0.4,0.3,0.7,0.7,0.7c0.4,0,0.7-0.3,0.7-0.7
		C261.4,59.3,261.1,59,260.7,59z M265.7,58.3l4,4c0.9-1.3,1.6-2.9,1.9-4.6h-5.7C265.9,58,265.8,58.2,265.7,58.3z M262.6,61.2v5.7
		c1.7-0.3,3.2-0.9,4.6-1.9l-4-4C262.9,61.1,262.7,61.1,262.6,61.2z M265.7,53.6c0.1,0.2,0.1,0.3,0.2,0.5h5.7
		c-0.3-1.7-0.9-3.2-1.9-4.6L265.7,53.6z M258.3,50.9c0.2-0.1,0.3-0.1,0.5-0.2V45c-1.7,0.3-3.2,0.9-4.6,1.9L258.3,50.9z M254.3,65
		c1.3,0.9,2.9,1.6,4.6,1.9v-5.7c-0.2-0.1-0.3-0.1-0.5-0.2L254.3,65z M263.7,55.9c0,0.4,0.3,0.7,0.7,0.7s0.7-0.3,0.7-0.7
		c0-0.4-0.3-0.7-0.7-0.7S263.7,55.6,263.7,55.9z M257.6,55.9c0-0.4-0.3-0.7-0.7-0.7s-0.7,0.3-0.7,0.7c0,0.4,0.3,0.7,0.7,0.7
		S257.6,56.3,257.6,55.9z M267.1,46.9c-1.3-0.9-2.9-1.6-4.6-1.9v5.7c0.2,0.1,0.3,0.1,0.5,0.2L267.1,46.9z M260.7,52.9
		c0.4,0,0.7-0.3,0.7-0.7c0-0.4-0.3-0.7-0.7-0.7s-0.7,0.3-0.7,0.7C260,52.6,260.3,52.9,260.7,52.9z M260.7,37.7
		c-10.1,0-18.2,8.1-18.2,18.2s8.1,18.2,18.2,18.2c10.1,0,18.2-8.1,18.2-18.2C278.9,45.9,270.7,37.7,260.7,37.7z M260.7,69
		c-7.2,0-13-5.8-13-13c0-7.2,5.8-13,13-13s13,5.8,13,13C273.7,63.1,267.9,69,260.7,69z M255.5,57.8h-5.7c0.3,1.7,0.9,3.2,1.9,4.6
		l4-4C255.6,58.2,255.5,58,255.5,57.8z M255.7,53.6l-4-4c-0.9,1.3-1.6,2.9-1.9,4.6h5.7C255.5,53.9,255.6,53.7,255.7,53.6z"/>
</g>
</svg>
