<?xml version="1.0" encoding="utf-8"?>
<!-- Generator: Adobe Illustrator 24.1.1, SVG Export Plug-In . SVG Version: 6.00 Build 0)  -->
<svg version="1.1" id="Layer_1" xmlns="http://www.w3.org/2000/svg" xmlns:xlink="http://www.w3.org/1999/xlink" x="0px" y="0px"
	 viewBox="0 0 300 100.5" style="enable-background:new 0 0 300 100.5;" xml:space="preserve">
<style type="text/css">
	.st0{fill:#364349;}
</style>
<g id="Layer_2_1_">
	<g id="Layer_1-2">
		<g id="Shape_1">
			<path class="st0" d="M66.2,81.2c-0.5,0-0.9,0.4-0.9,0.9s0.4,0.9,0.9,0.9s0.9-0.4,0.9-0.9l0,0C67.1,81.6,66.7,81.2,66.2,81.2z
				 M66.2,75.3c-1.2,0-2.1,0.9-2.1,2.1s0.9,2.1,2.1,2.1s2.1-0.9,2.1-2.1l0,0C68.3,76.2,67.4,75.3,66.2,75.3L66.2,75.3z M63.3,71.1
				c0.2-0.1,0.4-0.2,0.6-0.3v-7.2c-2.1,0.3-4,1.1-5.7,2.4L63.3,71.1z M66.2,54.6c-12.6,0-22.8,10.2-22.8,22.8s10.2,22.8,22.8,22.8
				C78.8,100.1,89,90,89,77.4S78.8,54.6,66.2,54.6L66.2,54.6z M66.2,93.6c-9,0-16.3-7.3-16.3-16.3S57.2,61,66.2,61
				s16.3,7.3,16.3,16.3l0,0C82.5,86.4,75.3,93.7,66.2,93.6C66.3,93.7,66.3,93.7,66.2,93.6L66.2,93.6z M68.5,83.9v7.2
				c2.1-0.4,4-1.2,5.7-2.4l-5.1-5.1C69,83.8,68.8,83.9,68.5,83.9z M72.7,75.1h7.2c-0.3-2-1.1-4-2.3-5.7l-5.1,5.1
				C72.6,74.6,72.7,74.8,72.7,75.1L72.7,75.1z M72.5,80.4l5.1,5.1c1.2-1.7,2-3.6,2.4-5.7h-7.2C72.7,80,72.6,80.2,72.5,80.4z
				 M58.2,88.7c1.7,1.2,3.6,2,5.7,2.4v-7.2c-0.2-0.1-0.4-0.2-0.6-0.3L58.2,88.7z M70.1,77.4c0,0.5,0.4,0.9,0.9,0.9s0.9-0.4,0.9-0.9
				s-0.4-0.9-0.9-0.9l0,0C70.5,76.5,70.1,76.8,70.1,77.4L70.1,77.4L70.1,77.4z M74.3,66c-1.7-1.2-3.7-2-5.8-2.3v7.2
				c0.2,0.1,0.4,0.2,0.6,0.3L74.3,66z M66.3,73.6c0.5,0,0.9-0.4,0.9-0.9s-0.4-0.9-0.9-0.9s-0.9,0.4-0.9,0.9l0,0
				C65.4,73.2,65.8,73.5,66.3,73.6L66.3,73.6z M59.7,79.7h-7.2c0.3,2.1,1.2,4,2.4,5.7l5.1-5.1C59.9,80.2,59.8,80,59.7,79.7
				L59.7,79.7z M60,74.4l-5.1-5c-1.2,1.7-2,3.6-2.4,5.7h7.2C59.8,74.8,59.9,74.6,60,74.4L60,74.4z M62.5,77.4c0-0.5-0.4-0.9-0.9-0.9
				s-0.9,0.4-0.9,0.9s0.4,0.9,0.9,0.9l0,0C62,78.3,62.4,77.9,62.5,77.4L62.5,77.4z M246.2,75.3c-1.2,0-2.1,0.9-2.1,2.1
				s0.9,2.1,2.1,2.1c1.2,0,2.1-0.9,2.1-2.1C248.3,76.2,247.4,75.3,246.2,75.3L246.2,75.3L246.2,75.3z M246.2,81.3
				c-0.5,0-0.9,0.4-0.9,0.9s0.4,0.9,0.9,0.9s0.9-0.4,0.9-0.9l0,0C247.1,81.7,246.8,81.3,246.2,81.3
				C246.2,81.2,246.2,81.2,246.2,81.3L246.2,81.3z M252.8,75.1h7.2c-0.3-2.1-1.2-4-2.4-5.7l-5.1,5.1
				C252.6,74.6,252.7,74.8,252.8,75.1L252.8,75.1z M246.2,54.7c-12.6,0-22.8,10.2-22.8,22.8s10.2,22.8,22.8,22.8
				c12.6,0,22.8-10.2,22.8-22.8l0,0C269,64.9,258.8,54.7,246.2,54.7C246.2,54.6,246.2,54.6,246.2,54.7L246.2,54.7z M246.2,93.7
				c-9,0-16.3-7.3-16.3-16.3s7.3-16.3,16.3-16.3s16.3,7.3,16.3,16.3l0,0C262.5,86.4,255.2,93.7,246.2,93.7L246.2,93.7L246.2,93.7z
				 M252.5,80.4l5.1,5.1c1.2-1.7,2-3.6,2.4-5.7h-7.2C252.7,80,252.6,80.2,252.5,80.4L252.5,80.4z M297.1,64.8
				c-0.4-0.6-1.6-0.9-2-1.5c-0.5-0.8-0.5-2.4-0.8-3.3c-3.1-7.6-6.5-9.9-10.9-12.6c-6.2-3.8-12.9-5.4-20.3-8.1
				c0.4,0.1-11.1-3-13.9-3.5c-1.7-0.6-7.9-2.4-9.5-1.8c-1.7-1.7-4.6-2.6-6.6-3.8c-3.3-2-6.8-4.3-10.1-6.3c-1.8-1.1-3.7-1.7-5.5-2.8
				c-4.7-2.8-14.9-7.5-14.9-7.5S164.6-7.9,31,3.9c-1.6,0.2-3.6,0-4.8,0.8l-0.5,0.2c0,1.3,0.6,5.3,0,6.3c-0.2,1.5-3,3.7-4,4.8
				c-2.2,2.5-4.5,5.2-6.5,7.8c-0.9,1.2-1.8,3-3,3.8c-0.4,0.4-2.6,3.6-3.5,5c-1.2,1.9-2.2,4-3,6.1c-0.8,3.2,0.3,7.2,0.8,9.6
				c0,0.2-0.1,5.3,0,7.5C5.8,57.9,4.9,60,3.9,62c-0.9,2.2-1.1,3.9-2.8,5.1c-0.2,4.5,0.1,8.8,2.2,11.5c1.2,1.6,6,8.9,6,8.9h34.9
				c-5.6-12.2-0.2-26.7,12-32.3s26.7-0.2,32.3,12c2.9,6.4,2.9,13.8,0,20.3h135.7c-5.6-12.2-0.2-26.7,12-32.3s26.7-0.2,32.3,12
				c2.9,6.4,2.9,13.8,0,20.3h17.8c0,0,14.4-0.8,9.1-4.8c0.6-1.3,0.7-3.3,1.7-4.6c0.4-0.2,0.9-0.3,1.3-0.3
				C299.9,74.3,298.6,66.9,297.1,64.8z M29.5,29.4c0,0,1.8-1.7,2.7-2.3c2.4-1.8,4.6-3.8,7.1-5.6c4-2.8,8.7-7,13.3-8.9
				c3-1.3,6.4-1,9.9-1.8c2.8-0.6,6.3-0.5,9.3-1.2c-0.3,0,7.5-0.3,7.1-0.3s5-0.5,7.1-0.5c0,8.3,1,14.6,1,22.9
				C48.8,29.9,29.5,29.4,29.5,29.4z M97.9,31.2l-1.5-23c0,0,12.5-1,24.6-1.1c12.4,0,24.4,0.9,24.4,0.9l2.5,25.9L97.9,31.2z
				 M161.4,34.9c0,0-3.8-26.4-3.8-26.6c0-0.2,22.5,3,31.9,6.8c3.3,1.4,7.3,2.8,10.3,4.6c1.6,1,5.5,3,5.5,3l1,15.8L161.4,34.9z
				 M243.2,71.1c0.2-0.1,0.4-0.2,0.6-0.3v-7.2c-2.1,0.3-4,1.1-5.7,2.4L243.2,71.1z M248.5,83.9v7.2c2.1-0.3,4-1.2,5.8-2.4l-5.1-5.1
				C249,83.8,248.8,83.9,248.5,83.9L248.5,83.9z M250,77.4c0,0.5,0.4,0.9,0.9,0.9s0.9-0.4,0.9-0.9s-0.4-0.9-0.9-0.9l0,0
				C250.4,76.5,250,76.9,250,77.4L250,77.4z M242.4,77.4c0-0.5-0.4-0.9-0.9-0.9s-0.9,0.4-0.9,0.9s0.4,0.9,0.9,0.9l0,0
				C242,78.3,242.4,77.9,242.4,77.4L242.4,77.4L242.4,77.4z M246.2,73.6c0.5,0,0.9-0.4,0.9-0.9s-0.4-0.9-0.9-0.9s-0.9,0.4-0.9,0.9
				l0,0C245.3,73.2,245.7,73.6,246.2,73.6L246.2,73.6L246.2,73.6z M254.3,66.1c-1.7-1.2-3.6-2-5.7-2.4v7.2c0.2,0.1,0.4,0.2,0.6,0.3
				L254.3,66.1z M238.2,88.7c1.7,1.2,3.6,2,5.7,2.4v-7.2c-0.2-0.1-0.4-0.2-0.6-0.3L238.2,88.7z M239.7,79.7h-7.2
				c0.3,2.1,1.2,4,2.4,5.7l5.1-5.1C239.8,80.2,239.7,80,239.7,79.7L239.7,79.7z M239.9,74.4l-5.1-5.1c-1.2,1.7-2,3.6-2.4,5.7h7.2
				C239.7,74.8,239.8,74.6,239.9,74.4L239.9,74.4z"/>
		</g>
	</g>
</g>
</svg>
