<?xml version="1.0" encoding="utf-8"?>
<!-- Generator: Adobe Illustrator 24.1.1, SVG Export Plug-In . SVG Version: 6.00 Build 0)  -->
<svg version="1.1" id="Layer_1" xmlns="http://www.w3.org/2000/svg" xmlns:xlink="http://www.w3.org/1999/xlink" x="0px" y="0px"
	 viewBox="0 0 300 96.5" style="enable-background:new 0 0 300 96.5;" xml:space="preserve">
<style type="text/css">
	.st0{fill:#364349;}
</style>
<g id="Layer_2_1_">
	<g id="Layer_1-2">
		<g id="Shape_1">
			<path class="st0" d="M78.5,78.2v7.9c2.3-0.4,4.4-1.3,6.3-2.6l-5.6-5.6C79,78,78.8,78.1,78.5,78.2z M75.9,68.6
				c-1.3,0-2.3,1-2.3,2.3s1,2.3,2.3,2.3s2.3-1,2.3-2.3C78.2,69.7,77.2,68.6,75.9,68.6z M75.9,75.2c-0.5,0-1,0.4-1,1s0.4,1,1,1
				s1-0.4,1-1S76.5,75.2,75.9,75.2z M82.9,74.2l5.6,5.6c1.3-1.9,2.2-4,2.6-6.3h-7.9C83.1,73.8,83,74,82.9,74.2L82.9,74.2z
				 M82.9,67.6c0.1,0.2,0.2,0.5,0.3,0.7h7.9c-0.4-2.3-1.3-4.4-2.6-6.3L82.9,67.6z M72.6,63.9c0.2-0.1,0.5-0.2,0.7-0.3v-7.9
				C71,56.1,68.9,57,67,58.3L72.6,63.9z M68.6,73.5h-7.9c0.4,2.3,1.3,4.4,2.6,6.3l5.6-5.6C68.9,74,68.8,73.8,68.6,73.5L68.6,73.5z
				 M80.2,70.9c0,0.5,0.4,1,1,1s1-0.4,1-1s-0.4-1-1-1S80.2,70.4,80.2,70.9L80.2,70.9L80.2,70.9z M84.8,58.3c-1.9-1.3-4-2.2-6.3-2.6
				v7.9c0.2,0.1,0.5,0.2,0.7,0.3L84.8,58.3z M75.9,66.7c0.5,0,1-0.4,1-1s-0.4-1-1-1s-1,0.4-1,1C74.9,66.2,75.4,66.7,75.9,66.7
				L75.9,66.7L75.9,66.7z M75.9,45.7C62,45.7,50.7,57,50.7,70.9S62,96.2,75.9,96.2s25.2-11.3,25.2-25.2l0,0
				C101.1,57,89.9,45.7,75.9,45.7L75.9,45.7z M75.9,89c-10,0-18-8.1-18-18.1s8.1-18,18.1-18s18,8.1,18,18C94,80.9,85.9,89,75.9,89
				L75.9,89L75.9,89z M67,83.5c1.9,1.3,4,2.2,6.3,2.6v-7.9c-0.2-0.1-0.5-0.2-0.7-0.3L67,83.5z M68.9,67.6L63.3,62
				c-1.3,1.9-2.2,4-2.6,6.3h7.9C68.8,68.1,68.9,67.9,68.9,67.6L68.9,67.6z M71.7,70.9c0-0.5-0.4-1-1-1s-1,0.4-1,1s0.4,1,1,1
				C71.2,71.9,71.7,71.5,71.7,70.9L71.7,70.9L71.7,70.9z M226.9,67.6l-5.6-5.6c-1.3,1.9-2.2,4-2.6,6.3h7.9
				C226.8,68.1,226.9,67.9,226.9,67.6L226.9,67.6z M240.9,74.2l5.6,5.6c1.3-1.9,2.2-4,2.6-6.3h-7.9C241.1,73.8,241,74,240.9,74.2
				L240.9,74.2z M240.9,67.6c0.1,0.2,0.2,0.5,0.3,0.7h7.9c-0.4-2.3-1.3-4.4-2.6-6.3L240.9,67.6z M236.5,78.2v7.9
				c2.3-0.4,4.4-1.3,6.3-2.6l-5.6-5.6C237,78,236.7,78.1,236.5,78.2L236.5,78.2z M233.9,68.6c-1.3,0-2.3,1-2.3,2.3s1,2.3,2.3,2.3
				s2.3-1,2.3-2.3C236.2,69.7,235.2,68.6,233.9,68.6L233.9,68.6z M233.9,45.7c-13.9,0-25.2,11.3-25.2,25.2s11.3,25.2,25.2,25.2
				s25.2-11.3,25.2-25.2l0,0C259.1,57,247.8,45.7,233.9,45.7L233.9,45.7z M233.9,89c-10,0-18-8.1-18-18c0-10,8.1-18,18-18
				c10,0,18,8.1,18,18S243.9,88.9,233.9,89L233.9,89z M297.5,63.8c-2.5-3.2-5.4-6.2-8.6-8.8c-5.7-4-52.5-23-86.3-27
				c2.3,0.3-6,0-8-1.6c-1.6-1.2-2.9-3-4.4-4.2c-4.8-3.7-19.9-16.2-27.7-20.7c-1-0.4-2-0.7-3-0.9c-1-0.1-1.9-0.1-2.9,0
				c-14.9-0.8-35.9-0.6-51.4,3.6C103.8,4.7,95,7,88.8,9.4c-1.9,0.8-4.1,1.4-6.5,2.3c-6.7,2.7-12.9,5.1-19.4,8
				c-3.9,1.7-10.3,4.9-9.5,4.7c-0.5,0.1-1.1-0.7-2-0.4c-1.9,0.6-3.9,2.2-5.6,2.7c-1.4,0.4-8.5,0-10.6-2.4c-2.3-2.6-3-1-6.7-1.6
				c3.2,0.5-22.6-1.6-23.4-1.2C2.5,21.3,4,23.1,4,23.4c0.6,0.9,1.3,1.8,2.1,2.6C9.2,28.3,18,37.1,18.5,37.7c1,1,1.8,2.5,3,3.3
				l-0.1,0.4c-1.8,0.5-2.9,2.4-4.3,3.3c-2.9,1.7-5,4.5-5.7,7.8v6.3c-2.6,0.2-5,0.7-7.4,1.5c-1.4,0.4-2.7-0.1-2.7,1.6
				c-0.6,1.1-0.1,6.4-0.1,8.2C3.5,71.6,6,73,8.5,74.3c7,3.7,4.7,7.2,4.7,7.2h37v-12c0-13.5,11-24.4,24.4-24.4H77
				c13.5,0,24.4,10.9,24.4,24.4l0,0v11.9h106.7v-12c0-13.5,10.9-24.4,24.4-24.4h2.9c13.5,0,24.4,10.9,24.4,24.4v11.9h12.6
				c0,0,15.7-0.1,23.6-0.1c0.7-0.6,2.1-1.5-0.4-3.9c1.2,1.1,1.9-5.8,1.6-10.2h0.3C299.4,65.9,299.6,65.4,297.5,63.8L297.5,63.8z
				 M112.4,30.5h-0.3c-0.5,0.1-1,0.2-1.5,0.1c-8.2-0.3-23.4,1-34.1-2c-0.2-0.3-0.3-0.7-0.3-1.1c0.6-2.6,4.9-3.7,7.3-4.9
				c2.8-1.5,18.2-7.6,23-8.3C108.7,19.8,112.1,29.9,112.4,30.5L112.4,30.5C112.4,30.5,112.4,30.6,112.4,30.5z M160.4,30.8V31H116
				c0,0-4.3-12.9-6.2-16.9c0.2-0.1,0.4-0.2,0.6-0.3c10.7-5,32.7-4.3,40.3-4c2.5,4.6,4.6,9.6,6.7,14.5c0.8,1.8,2.8,4.5,3,6.6V30.8z
				 M177.2,30.9c-6.2,0-9.8,0-14.8-0.1c-3.8-8.9-8.1-16.3-9.5-20.7c0.2-0.4,0.6-0.3,1.2-0.3c0.4-0.1,0.9-0.1,1.3,0
				c3,0,3.6,2.2,5.5,3.6c2,1.7,3.9,3.5,5.6,5.5c3,3.1,5.7,5.5,8.8,8.9c0.7,0.8,1.2,1.7,2,2.4L177.2,30.9z M191,28.8
				c-1.1,0.3-2.1,0.2-3,0.6c-0.2-1.9-1.7-5.6-3.4-5.8c-1.8-0.4-3.7-0.5-5.6-0.3c-0.4,0.2-0.2,0.3-0.6,0.4c0.8,1-3.1-1.9-15.4-16.1
				c-0.2-0.3-1.1-0.8-0.7-1.2c0.4-0.7,2.3-1.4,3.3-1.4c10.1,6.9,19.8,14.5,29,22.5C193.4,27.9,192.1,28.5,191,28.8L191,28.8z
				 M110.6,30.7L110.6,30.7z M226.7,73.5h-7.9c0.4,2.3,1.3,4.4,2.6,6.3l5.6-5.6C226.9,74,226.8,73.8,226.7,73.5z M233.9,66.7
				c0.5,0,1-0.4,1-1s-0.4-1-1-1s-1,0.4-1,1S233.4,66.7,233.9,66.7L233.9,66.7L233.9,66.7z M242.9,58.3c-1.9-1.3-4-2.2-6.3-2.6v7.9
				c0.2,0.1,0.5,0.2,0.7,0.3L242.9,58.3z M238.2,70.9c0,0.5,0.4,1,1,1s1-0.4,1-1c0-0.5-0.4-1-1-1C238.6,69.9,238.2,70.3,238.2,70.9
				L238.2,70.9L238.2,70.9z M229.7,70.9c0-0.5-0.4-1-1-1s-1,0.4-1,1c0,0.5,0.4,1,1,1C229.2,71.9,229.7,71.5,229.7,70.9L229.7,70.9z
				 M230.7,64c0.2-0.1,0.5-0.2,0.7-0.3v-7.9c-2.3,0.4-4.4,1.3-6.3,2.6L230.7,64z M234,75.2c-0.5,0-1,0.4-1,1s0.4,1,1,1s1-0.4,1-1
				S234.5,75.2,234,75.2C234,75.2,233.9,75.2,234,75.2L234,75.2z M225,83.5c1.9,1.3,4,2.2,6.3,2.6v-7.9c-0.2-0.1-0.5-0.2-0.7-0.3
				L225,83.5z"/>
		</g>
	</g>
</g>
</svg>
