<?xml version="1.0" encoding="utf-8"?>
<!-- Generator: Adobe Illustrator 24.1.1, SVG Export Plug-In . SVG Version: 6.00 Build 0)  -->
<svg version="1.1" id="Layer_1" xmlns="http://www.w3.org/2000/svg" xmlns:xlink="http://www.w3.org/1999/xlink" x="0px" y="0px"
	 viewBox="0 0 300 116.5" style="enable-background:new 0 0 300 116.5;" xml:space="preserve">
<style type="text/css">
	.st0{fill:#364349;}
</style>
<g id="Layer_2_1_">
	<g id="Layer_1-2">
		<g id="Shape_1">
			<path class="st0" d="M64.5,85.5c-1.4,0-2.6,1.2-2.6,2.6s1.2,2.6,2.6,2.6c1.4,0,2.6-1.2,2.6-2.6C67,86.7,65.9,85.5,64.5,85.5
				L64.5,85.5z M64.5,92.8c-0.6,0-1.1,0.5-1.1,1.1s0.5,1.1,1.1,1.1s1.1-0.5,1.1-1.1S65.1,92.8,64.5,92.8L64.5,92.8L64.5,92.8z
				 M67.4,96.1v8.8c2.5-0.4,4.9-1.4,7-2.9l-6.3-6.2C67.9,95.9,67.6,96,67.4,96.1z M72.5,91c-0.1,0.3-0.2,0.5-0.3,0.8l6.3,6.2
				c1.5-2.1,2.5-4.5,2.9-7H72.5z M60.8,80.3c0.3-0.1,0.5-0.2,0.8-0.3v-8.8c-2.5,0.4-4.9,1.4-7,2.9L60.8,80.3z M64.5,60
				c-15.5,0.1-28,12.7-28,28.2c0.1,15.5,12.7,28,28.2,28c15.4-0.1,27.9-12.6,28-28C92.6,72.5,80,60,64.5,60L64.5,60z M64.5,108.1
				c-11.1,0-20-9-20-20.1s9-20,20.1-20s20,9,20,20.1C84.5,99.2,75.5,108.1,64.5,108.1L64.5,108.1z M54.5,102
				c2.1,1.5,4.5,2.5,7.1,2.9v-8.8c-0.3-0.1-0.5-0.2-0.8-0.3L54.5,102z M59.7,88.1c0-0.6-0.5-1.1-1.1-1.1s-1.1,0.5-1.1,1.1
				s0.5,1.1,1.1,1.1l0,0C59.2,89.2,59.7,88.7,59.7,88.1z M72.5,85.2h8.9c-0.4-2.5-1.4-4.9-2.9-7l-6.3,6.2
				C72.4,84.7,72.5,84.9,72.5,85.2z M64.4,83.3c0.6,0,1.1-0.5,1.1-1.1s-0.5-1.1-1.1-1.1s-1.1,0.5-1.1,1.1l0,0
				C63.3,82.9,63.8,83.3,64.4,83.3C64.4,83.3,64.5,83.3,64.4,83.3L64.4,83.3z M69.2,88.1c0,0.6,0.5,1.1,1.1,1.1s1.1-0.5,1.1-1.1
				S70.9,87,70.3,87l0,0C69.7,87,69.2,87.5,69.2,88.1L69.2,88.1z M56.7,84.4l-6.3-6.2c-1.5,2.1-2.5,4.5-2.9,7h8.8
				C56.5,84.9,56.6,84.7,56.7,84.4z M252.7,83.8h8.9c-0.4-2.5-1.4-4.9-2.9-7l-6.3,6.2C252.5,83.3,252.6,83.6,252.7,83.8z M56.4,91
				h-8.8c0.4,2.5,1.4,4.9,2.9,7l6.3-6.2C56.6,91.5,56.5,91.2,56.4,91z M74.4,74.1c-2.1-1.5-4.5-2.5-7-2.9V80
				c0.3,0.1,0.5,0.2,0.8,0.3L74.4,74.1z M247.5,94.8v8.9c2.5-0.5,4.9-1.5,7-3l-6.3-6.2C248.1,94.6,247.8,94.7,247.5,94.8z
				 M252.4,90.4l6.3,6.2c1.5-2.1,2.5-4.5,2.9-7h-8.9C252.6,89.9,252.5,90.2,252.4,90.4z M244.6,84.2c-1.4,0-2.6,1.2-2.6,2.6
				s1.2,2.6,2.6,2.6c1.4,0,2.5-1.1,2.6-2.5C247.3,85.4,246.1,84.2,244.6,84.2C244.7,84.2,244.7,84.2,244.6,84.2L244.6,84.2z
				 M244.6,91.5c-0.6,0-1.1,0.5-1.1,1.1s0.5,1.1,1.1,1.1s1.1-0.5,1.1-1.1C245.7,92,245.2,91.5,244.6,91.5L244.6,91.5z M5.5,62.2
				L5.5,62.2L5.5,62.2z M299,69.3c0.5-17.8-11.4-25-10.8-24.6c-3-2.2-7-3-11.1-4.2c7.2,2-10.1-1.8-48.4-6l-2.2-0.1
				c-8.5-2.6-8.8-3.1-11.6-5l-7.9-5.6c-5.5-3.9-11.3-7.5-17.1-11.1c-2.1-1.4-4.4-2.4-6.5-3.7c-2.2-1.2-4.4-2.3-6.7-3.2
				c-0.2-0.2-0.2-0.5-0.4-0.8c-0.8-1.3-2-3.7-4.1-3.3v0.8c0.2,0.6,0.3,1.2,0.2,1.8C169.6,4,164,3.2,164,3.2s-9.4-1.3-21.2-1.7
				c-19.1-0.7-44.4-1.2-44.4-1.2S74,1,55.9,1.8C45,2.2,36.4,3,36.4,3S22.9,5.3,23.5,5.1c-5.7,2.1-1.7,2.6-1.5,3.5
				c-3.1,3.4-8.7,5.8-15.9,26.9c-0.6,1.8-0.4,4-0.9,5.8c0,7.6,0.4,20.1,0.3,20.9c1.3-0.3-7.6,4.9-3.3,19.7c0.4,1.5,2.5,6,3.4,4.8
				C1.5,92.1,17,95,36.1,96.4c-4.6-15.7,4.4-32.1,20.1-36.6s32.1,4.4,36.6,20.1c0.8,2.6,1.2,5.4,1.2,8.2c0,3.4-0.6,6.7-1.7,9.9h0.6
				l124.5,0.2c-1.5-3.6-2.3-7.4-2.3-11.3c0.3-16.3,13.8-29.3,30.1-29c15.9,0.3,28.7,13.1,29,29c0,3.9-0.8,7.9-2.3,11.5h1.6
				c0,0,13.2,0.9,15.1-4.1c0.6-0.4,1.7-0.2,2.4-0.4c2.1-0.7,5.4-5,4.2-4.3C297.5,88.1,298.8,76.5,299,69.3z M81.5,12L65.9,34.1
				c0,0,5.4,0.1-48.2,0c2.8-9.3,8.2-17.6,15.6-23.8l46-2.7c0,0,2.7,0,3,0.9C83.2,9.5,81.5,12,81.5,12z M95.4,35c0,0-5.5-1.6-6.4-4.4
				c-0.3-1.3-0.2-2.6,0.2-3.8l0,0l0,0c0-0.1,4.6-13.8,8.2-16.9c4.6-2.6,34.2-0.6,34.2-0.6V35H95.4z M190.4,23.2L190.4,23.2
				L190.4,23.2c-4,5.1-0.3,13-0.3,13h-46.3c0,0,0.1-25.5,0.1-23.4c0.3-1.3,0.2-2.5,0.9-3.4s1.8-0.8,3-1.1c0.2,0,13.8-0.3,21.2,2.1
				C173.4,11.9,191.3,23.9,190.4,23.2z M244.6,58.7c-15.5,0.1-28,12.7-28,28.2c0.1,15.5,12.7,28,28.2,28c15.4-0.1,27.9-12.6,28-28
				C272.8,71.3,260.2,58.7,244.6,58.7C244.7,58.7,244.7,58.7,244.6,58.7z M244.6,106.8c-11.1,0-20-9-20-20.1s9-20,20.1-20
				s20,9,20,20.1S255.7,106.8,244.6,106.8z M249.4,86.8c0,0.6,0.5,1.1,1.1,1.1s1.1-0.5,1.1-1.1s-0.5-1.1-1.1-1.1
				C249.9,85.7,249.4,86.2,249.4,86.8L249.4,86.8z M241,79.1c0.3-0.1,0.5-0.2,0.8-0.3v-8.9c-2.5,0.4-4.9,1.4-7,2.9L241,79.1z
				 M244.6,82c0.6,0,1.1-0.5,1.1-1.1s-0.5-1.1-1.1-1.1s-1.1,0.5-1.1,1.1C243.6,81.5,244,82,244.6,82L244.6,82z M254.6,72.8
				c-2.1-1.5-4.5-2.5-7-2.9v8.8c0.3,0.1,0.5,0.2,0.8,0.3L254.6,72.8z M236.9,83.1l-6.3-6.2c-1.5,2.1-2.5,4.4-2.9,7h8.9
				C236.6,83.6,236.7,83.3,236.9,83.1z M239.9,86.8c0-0.6-0.5-1.1-1.1-1.1s-1.1,0.5-1.1,1.1s0.5,1.1,1.1,1.1l0,0
				C239.4,87.9,239.9,87.4,239.9,86.8z M234.7,100.7c2.1,1.5,4.5,2.5,7,2.9v-8.8c-0.3-0.1-0.5-0.2-0.8-0.3L234.7,100.7z M236.6,89.6
				h-8.9c0.4,2.5,1.4,4.9,2.9,7l6.3-6.2C236.7,90.1,236.6,89.9,236.6,89.6L236.6,89.6z"/>
		</g>
	</g>
</g>
</svg>
