<?xml version="1.0" encoding="utf-8"?>
<!-- Generator: Adobe Illustrator 24.1.1, SVG Export Plug-In . SVG Version: 6.00 Build 0)  -->
<svg version="1.1" id="Layer_1" xmlns="http://www.w3.org/2000/svg" xmlns:xlink="http://www.w3.org/1999/xlink" x="0px" y="0px"
	 viewBox="0 0 300 121.3" style="enable-background:new 0 0 300 121.3;" xml:space="preserve">
<style type="text/css">
	.st0{fill:#364349;}
</style>
<g id="Layer_2_1_">
	<g id="Layer_1-2">
		<g id="Shape_1">
			<path class="st0" d="M66.7,93.2c-1.3,0-2.3,1-2.3,2.3s1,2.3,2.3,2.3s2.3-1,2.3-2.3l0,0C69,94.2,68,93.2,66.7,93.2z M66.7,99.8
				c-0.5,0-1,0.4-1,1s0.4,1,1,1s1-0.4,1-1C67.7,100.2,67.3,99.8,66.7,99.8C66.7,99.7,66.7,99.7,66.7,99.8L66.7,99.8z M73.7,98.8
				l5.7,5.7c1.3-1.9,2.2-4.1,2.6-6.4h-8C73.9,98.3,73.8,98.6,73.7,98.8L73.7,98.8z M69.3,102.8v7.9c2.3-0.4,4.5-1.3,6.4-2.6
				l-5.7-5.7C69.8,102.6,69.5,102.7,69.3,102.8L69.3,102.8z M73.7,92.1c0.1,0.2,0.2,0.5,0.3,0.7h7.9c-0.4-2.3-1.3-4.5-2.6-6.3
				L73.7,92.1z M63.4,88.5c0.2-0.1,0.5-0.2,0.7-0.3v-7.9c-2.3,0.4-4.5,1.3-6.3,2.6L63.4,88.5z M57.7,108.2c1.9,1.3,4.1,2.2,6.3,2.6
				v-7.9c-0.2-0.1-0.5-0.2-0.7-0.3L57.7,108.2z M71,95.5c0,0.5,0.4,1,1,1s1-0.4,1-1s-0.4-1-1-1S71,94.9,71,95.5z M62.4,95.5
				c0-0.5-0.4-1-1-1c-0.5,0-1,0.4-1,1s0.4,1,1,1S62.4,96,62.4,95.5z M75.7,82.8c-1.9-1.3-4.1-2.2-6.4-2.6v7.9
				c0.2,0.1,0.5,0.2,0.7,0.3L75.7,82.8z M66.7,91.2c0.5,0,1-0.4,1-1s-0.4-1-1-1s-1,0.4-1,1S66.2,91.2,66.7,91.2z M66.7,70.1
				c-14,0-25.4,11.3-25.4,25.4s11.3,25.4,25.4,25.4c14,0,25.4-11.3,25.4-25.4l0,0C92.1,81.5,80.7,70.1,66.7,70.1L66.7,70.1z
				 M66.7,113.7c-10,0-18.2-8.1-18.2-18.1s8.1-18.2,18.1-18.2s18.2,8.1,18.2,18.1l0,0C84.8,105.5,76.7,113.6,66.7,113.7L66.7,113.7
				L66.7,113.7z M59.4,98.1h-7.9c0.4,2.3,1.3,4.5,2.6,6.4l5.6-5.7C59.6,98.6,59.5,98.3,59.4,98.1z M59.7,92.1L54,86.5
				c-1.3,1.9-2.2,4.1-2.6,6.3h7.9C59.5,92.6,59.6,92.4,59.7,92.1L59.7,92.1z M249.9,93.1c-1.3,0-2.3,1-2.3,2.3s1,2.3,2.3,2.3
				s2.3-1,2.3-2.3l0,0C252.2,94.2,251.2,93.2,249.9,93.1L249.9,93.1z M252.5,102.8v7.9c2.3-0.4,4.5-1.3,6.3-2.6l-5.7-5.7
				C253,102.6,252.8,102.7,252.5,102.8L252.5,102.8z M258.9,82.8c-1.9-1.3-4.1-2.2-6.3-2.6v7.9c0.2,0.1,0.5,0.2,0.7,0.3L258.9,82.8z
				 M256.9,98.8l5.7,5.7c1.3-1.9,2.2-4.1,2.6-6.4h-7.9C257.1,98.3,257,98.6,256.9,98.8L256.9,98.8z M298.5,79.9
				c-0.9-2.4-4.2-1.5-5.1-3.1c5.6-8-0.8-22.9-0.3-22.2c-2.1-3.3-6.9-5-10.6-6.7c-5.2-2.3-10.9-4.8-16.6-6.8c-3.1-1.1-6-1.4-9.2-2.5
				c-3.7-1.2-7-2.9-7.3-2.9l0.3,0.2c-0.2-0.2-0.3-0.2-0.3-0.2C220.2,7.4,208.5,3.9,197.2,1.2c-0.3-0.1-14-0.8-14-0.8h-156
				c-2.1,0.6-4,1.6-5.7,2.8c-3,2-3.4,5.6-4.7,9.2C14,20.1,6.7,39.9,6.7,78c0,0.9-2.8,0.1-3.3,1c-7.9,13.7,5.7,20.1,12.3,20.1
				c3.8,0,23.8,3.1,23.8,3.1h1.2C37.2,87.9,46,73.4,60.3,69.9s28.8,5.3,32.3,19.6c1,4.2,1,8.5,0,12.7h131.7
				c-3.6-14.2,4.9-28.6,19.1-32.2s28.6,4.9,32.2,19.1c1.1,4.3,1.1,8.8,0,13.2h7.8c0,0,3.5-1.7,4.3-2.9c0.8-1.1,0.6-2.2,1.8-2.9
				c5.5-3,9.4-3,9.4-11.7C299,83.1,299.2,80.9,298.5,79.9z M219,30.7c-0.9,1.3-2.6,0.8-2.7,10.1l-39.6-0.4c0,0-0.1-31.3-0.2-31.8
				l0,0c5.7-1,16.5-1.4,24,0.4c19.5,5.7,26.7,17.7,30.9,22.8C229.5,31.7,220.5,30.4,219,30.7z M246.6,88.5c0.2-0.1,0.5-0.2,0.7-0.3
				v-7.9c-2.3,0.4-4.5,1.3-6.3,2.6L246.6,88.5z M256.9,92.2c0.1,0.2,0.2,0.5,0.3,0.7h7.9c-0.4-2.3-1.3-4.5-2.6-6.3L256.9,92.2z
				 M250,70.1c-14,0-25.4,11.4-25.4,25.4s11.4,25.4,25.4,25.4s25.4-11.4,25.4-25.4l0,0C275.4,81.5,264,70.1,250,70.1
				C249.9,70.1,249.9,70.1,250,70.1L250,70.1z M250,113.6c-10,0-18.2-8.1-18.2-18.1s8.1-18.2,18.1-18.2c10,0,18.2,8.1,18.2,18.1l0,0
				C268.1,105.5,260,113.6,250,113.6C249.9,113.6,249.9,113.6,250,113.6L250,113.6z M250,99.7c-0.5,0-1,0.4-1,1c0,0.5,0.4,1,1,1
				c0.5,0,1-0.4,1-1C251,100.2,250.5,99.7,250,99.7C250,99.7,249.9,99.7,250,99.7L250,99.7z M245.7,95.5c0-0.5-0.4-1-1-1
				c-0.5,0-1,0.4-1,1c0,0.5,0.4,1,1,1C245.2,96.4,245.6,96,245.7,95.5L245.7,95.5z M243,92.1l-5.7-5.6c-1.3,1.9-2.2,4.1-2.6,6.3h7.9
				C242.7,92.6,242.8,92.4,243,92.1L243,92.1z M254.2,95.5c0,0.5,0.4,1,1,1c0.5,0,1-0.4,1-1c0-0.5-0.4-1-1-1
				C254.7,94.4,254.2,94.9,254.2,95.5C254.2,95.4,254.2,95.5,254.2,95.5L254.2,95.5z M250,91.2c0.5,0,1-0.4,1-1c0-0.5-0.4-1-1-1
				c-0.5,0-1,0.4-1,1C249,90.7,249.4,91.2,250,91.2L250,91.2z M241,108.1c1.9,1.3,4.1,2.2,6.3,2.6v-7.9c-0.2-0.1-0.5-0.2-0.7-0.3
				L241,108.1z M242.7,98h-7.9c0.4,2.3,1.3,4.5,2.6,6.4l5.7-5.7C242.8,98.6,242.7,98.3,242.7,98L242.7,98z"/>
		</g>
	</g>
</g>
</svg>
