<svg xmlns="http://www.w3.org/2000/svg" viewBox="0 0 300 209.91"><defs><style>.cls-1{fill:#364349;}</style></defs><g id="Layer_2" data-name="Layer 2"><g id="Layer_1-2" data-name="Layer 1"><path class="cls-1" d="M15.54,123.52c0-5.07-5.12-9.19-11.4-9.19V132.7C10.42,132.7,15.54,128.58,15.54,123.52Z"/><path class="cls-1" d="M251,0H48.29V16.33h15C51.49,23.61,34.68,49,34.68,49S1.52,113.82,22.45,141.51c53.06-1.37,49,49,49,49H202.31a39.94,39.94,0,1,1,77.28-14.18,38.66,38.66,0,0,1-.37,5.19,48.89,48.89,0,0,0,20.78-40V49A49,49,0,0,0,251,0ZM131.18,176.31H95.13s6.2-49.56-36.06-62c0,0,1.36-64.59,32.66-89.47h39.45V176.31Zm91.93-62c-42.25,12.42-36.06,62-36.06,62H151V24.87h72.11Z"/><path class="cls-1" d="M54.65,152.52c-13.6-11.66-31-9.7-31.73-9.63l.84,6.85a30.46,30.46,0,1,0,37.09,31.81,71.68,71.68,0,0,1,.89,9.06l8.15-.25C69.36,173.48,64.23,160.75,54.65,152.52ZM30.48,201.75a22.31,22.31,0,1,1,22.3-22.31A22.32,22.32,0,0,1,30.48,201.75Z"/><path class="cls-1" d="M238.46,143.92a32.4,32.4,0,1,0,32.39,32.39A32.42,32.42,0,0,0,238.46,143.92Zm0,56.62a24.23,24.23,0,1,1,24.24-24.23A24.26,24.26,0,0,1,238.46,200.54Z"/></g></g></svg>