<?xml version="1.0" encoding="utf-8"?>
<!-- Generator: Adobe Illustrator 24.1.1, SVG Export Plug-In . SVG Version: 6.00 Build 0)  -->
<svg version="1.1" id="Layer_1" xmlns="http://www.w3.org/2000/svg" xmlns:xlink="http://www.w3.org/1999/xlink" x="0px" y="0px"
	 viewBox="0 0 300 98.2" style="enable-background:new 0 0 300 98.2;" xml:space="preserve">
<style type="text/css">
	.st0{fill:#364349;}
</style>
<g>
	<path class="st0" d="M27.1,72.7L27.1,72.7c2,0,3.7-1.7,3.7-3.7v-5.3c0-2-1.7-3.7-3.7-3.7h0c-2,0-3.7,1.7-3.7,3.7v5.3
		C23.4,71.1,25.1,72.7,27.1,72.7z"/>
	<g>
		<g>
			<rect x="204.2" y="39.8" class="st0" width="40.8" height="16.5"/>
			<rect x="275.1" y="49.6" class="st0" width="4.3" height="16.5"/>
			<path class="st0" d="M277.2,66.2L277.2,66.2c-3.1,0-5.6-2.5-5.6-5.6v-5.3c0-3.1,2.5-5.6,5.6-5.6h0c3.1,0,5.6,2.5,5.6,5.6v5.3
				C282.8,63.6,280.3,66.2,277.2,66.2z"/>
			<path class="st0" d="M297.9,22c-2.4-6.3-4.8-20.2-21.8-20.2c-17,0-202.6-0.8-212.5-0.4c-6.9,0.3-29,2.7-43.1,22.2
				c0.3,0,0.5,0,0.5,0l-1.5,2.8c-0.3,0-0.6,0-0.9,0c-5.2,8.2-9,19.2-10.1,33.7c0,0-2.4,9.5-1.2,16.6C8.6,83.8,10.6,87,14.9,87
				c2.1,0,14.3,0,32.6,0c-0.3-1.1-0.4-2.2-0.4-3.3c0-7.6,6.2-13.8,13.8-13.8c7.6,0,13.8,6.2,13.8,13.8c0,1.1-0.1,2.2-0.4,3.3
				c41.3-0.1,63.8-0.1,109.3-0.2c-0.2-1-0.4-2-0.4-3.1c0-7.6,6.2-13.8,13.8-13.8c7.6,0,13.8,6.2,13.8,13.8c0,1-0.1,2-0.3,3
				c2,0,3.9,0,5.9,0c-0.2-1-0.3-2-0.3-3c0-7.6,6.2-13.8,13.8-13.8c7.6,0,13.8,6.2,13.8,13.8c0,1-0.1,2-0.3,3c13,0,21.3,0,22.6,0
				c7.9,0,27.7-3.6,30.1-8.7C298.3,72.7,300.3,28.4,297.9,22z M8.4,71.5c-0.4-1.7,0-4.1,0-4.1c0.2-2,4.7-5.4,4.4-4.4
				c-0.3,1.1,0.6,4.8,0.6,4.8C11.8,68.7,8.8,73.2,8.4,71.5z M12.3,56.7l-2.5,2.1c1.6-29.3,19.2-42.9,19.2-42.9
				C13.3,31,12.3,56.7,12.3,56.7z M39.8,52.4c-8.8,4.8-20.9,4.2-20.9,4.2c-1-16.2,2.4-22.6,2.4-22.6h18.6V52.4z M22.4,31.4
				c6.2-15.7,17.4-17.8,17.4-17.8l0.1,17.8H22.4z M42.9,50.4L43,38.6h9.2L42.9,50.4z M42.9,36.2V12.3c9.4-6.4,27.3-5.3,27.3-5.3
				L53.2,36.2H42.9z M100,36.1l-39.2,0L77.8,6.9L100.2,7L100,36.1z M130.5,36.5h-26.6V6.8h26.6V36.5z M160.8,36.5h-26.6V6.8h26.6
				V36.5z M202.1,36.5h-37.6V6.8h37.6V36.5z M221.5,51.6h-15.7v-11h15.7V51.6z M243.4,51.6h-16.6v-11h16.6V51.6z M243.4,36.5h-37.6
				V6.8h37.6V36.5z M283.3,30.8L247,36.5V6.8L283.6,8L283.3,30.8z M296.3,67.5H294V56.1h2.4V67.5z M296.3,54.8H294v-2.4h2.4V54.8z"
				/>
		</g>
		<path class="st0" d="M61,70.9c-7.2,0-13,5.8-13,13s5.8,13,13,13s13-5.8,13-13C74,76.7,68.2,70.9,61,70.9z M61,93
			c-5,0-9.1-4.1-9.1-9.1c0-5,4.1-9.1,9.1-9.1s9.1,4.1,9.1,9.1C70.1,88.9,66,93,61,93z M61,75.7c-4.5,0-8.2,3.7-8.2,8.2
			s3.7,8.2,8.2,8.2c4.5,0,8.2-3.7,8.2-8.2C69.2,79.3,65.5,75.7,61,75.7z M62.3,76.2c1.2,0.2,2.3,0.7,3.2,1.3l-2.8,2.8
			c-0.1-0.1-0.2-0.1-0.4-0.1V76.2z M64.1,83.9c0,0.3-0.2,0.5-0.5,0.5s-0.5-0.2-0.5-0.5s0.2-0.5,0.5-0.5
			C63.9,83.4,64.1,83.6,64.1,83.9z M61,80.7c0.3,0,0.5,0.2,0.5,0.5s-0.2,0.5-0.5,0.5c-0.3,0-0.5-0.2-0.5-0.5S60.7,80.7,61,80.7z
			 M54.7,79.4l2.8,2.8c-0.1,0.1-0.1,0.2-0.1,0.4h-4C53.5,81.4,54,80.3,54.7,79.4z M54.7,88.4c-0.7-0.9-1.1-2-1.3-3.2h4
			c0,0.1,0.1,0.2,0.1,0.4L54.7,88.4z M59.7,91.5c-1.2-0.2-2.3-0.7-3.2-1.3l2.8-2.8c0.1,0.1,0.2,0.1,0.4,0.1V91.5z M57.9,83.9
			c0-0.3,0.2-0.5,0.5-0.5c0.3,0,0.5,0.2,0.5,0.5s-0.2,0.5-0.5,0.5C58.1,84.4,57.9,84.1,57.9,83.9z M59.7,80.2
			c-0.1,0-0.2,0.1-0.4,0.1l-2.8-2.8c0.9-0.7,2-1.1,3.2-1.3L59.7,80.2L59.7,80.2z M61,87c-0.3,0-0.5-0.2-0.5-0.5
			c0-0.3,0.2-0.5,0.5-0.5c0.3,0,0.5,0.2,0.5,0.5C61.5,86.8,61.3,87,61,87z M61,85c-0.6,0-1.2-0.5-1.2-1.2c0-0.6,0.5-1.2,1.2-1.2
			c0.6,0,1.2,0.5,1.2,1.2C62.2,84.5,61.7,85,61,85z M62.3,91.5v-4c0.1,0,0.2-0.1,0.4-0.1l2.8,2.8C64.6,90.9,63.5,91.3,62.3,91.5z
			 M67.4,88.4l-2.8-2.8c0.1-0.1,0.1-0.2,0.1-0.4h4C68.5,86.4,68,87.4,67.4,88.4z M68.7,82.6h-4c0-0.1-0.1-0.2-0.1-0.4l2.8-2.8
			C68,80.3,68.5,81.4,68.7,82.6z"/>
		<path class="st0" d="M196.9,70.9c-7.2,0-13,5.8-13,13s5.8,13,13,13c7.2,0,13-5.8,13-13C209.9,76.7,204.1,70.9,196.9,70.9z
			 M196.9,93c-5,0-9.1-4.1-9.1-9.1c0-5,4.1-9.1,9.1-9.1s9.1,4.1,9.1,9.1C206,88.9,202,93,196.9,93z M196.9,75.7
			c-4.5,0-8.2,3.7-8.2,8.2s3.7,8.2,8.2,8.2c4.5,0,8.2-3.7,8.2-8.2C205.1,79.3,201.5,75.7,196.9,75.7z M198.2,76.2
			c1.2,0.2,2.3,0.7,3.2,1.3l-2.8,2.8c-0.1-0.1-0.2-0.1-0.4-0.1V76.2z M200.1,83.9c0,0.3-0.2,0.5-0.5,0.5s-0.5-0.2-0.5-0.5
			s0.2-0.5,0.5-0.5C199.8,83.4,200.1,83.6,200.1,83.9z M196.9,80.7c0.3,0,0.5,0.2,0.5,0.5s-0.2,0.5-0.5,0.5c-0.3,0-0.5-0.2-0.5-0.5
			S196.7,80.7,196.9,80.7z M190.6,79.4l2.8,2.8c-0.1,0.1-0.1,0.2-0.1,0.4h-4C189.5,81.4,189.9,80.3,190.6,79.4z M190.6,88.4
			c-0.7-0.9-1.1-2-1.3-3.2h4c0,0.1,0.1,0.2,0.1,0.4L190.6,88.4z M195.6,91.5c-1.2-0.2-2.3-0.7-3.2-1.3l2.8-2.8
			c0.1,0.1,0.2,0.1,0.4,0.1V91.5z M193.8,83.9c0-0.3,0.2-0.5,0.5-0.5c0.3,0,0.5,0.2,0.5,0.5s-0.2,0.5-0.5,0.5
			C194,84.4,193.8,84.1,193.8,83.9z M195.6,80.2c-0.1,0-0.2,0.1-0.4,0.1l-2.8-2.8c0.9-0.7,2-1.1,3.2-1.3L195.6,80.2L195.6,80.2z
			 M196.9,87c-0.3,0-0.5-0.2-0.5-0.5c0-0.3,0.2-0.5,0.5-0.5c0.3,0,0.5,0.2,0.5,0.5C197.4,86.8,197.2,87,196.9,87z M196.9,85
			c-0.6,0-1.2-0.5-1.2-1.2c0-0.6,0.5-1.2,1.2-1.2c0.6,0,1.2,0.5,1.2,1.2C198.1,84.5,197.6,85,196.9,85z M198.2,91.5v-4
			c0.1,0,0.2-0.1,0.4-0.1l2.8,2.8C200.5,90.9,199.4,91.3,198.2,91.5z M203.3,88.4l-2.8-2.8c0.1-0.1,0.1-0.2,0.1-0.4h4
			C204.4,86.4,203.9,87.4,203.3,88.4z M204.6,82.6h-4c0-0.1-0.1-0.2-0.1-0.4l2.8-2.8C203.9,80.3,204.4,81.4,204.6,82.6z"/>
		<path class="st0" d="M229.8,70.9c-7.2,0-13,5.8-13,13s5.8,13,13,13c7.2,0,13-5.8,13-13C242.8,76.7,236.9,70.9,229.8,70.9z
			 M229.8,93c-5,0-9.1-4.1-9.1-9.1c0-5,4.1-9.1,9.1-9.1s9.1,4.1,9.1,9.1C238.9,88.9,234.8,93,229.8,93z M229.8,75.7
			c-4.5,0-8.2,3.7-8.2,8.2s3.7,8.2,8.2,8.2c4.5,0,8.2-3.7,8.2-8.2C238,79.3,234.3,75.7,229.8,75.7z M231.1,76.2
			c1.2,0.2,2.3,0.7,3.2,1.3l-2.8,2.8c-0.1-0.1-0.2-0.1-0.4-0.1V76.2z M232.9,83.9c0,0.3-0.2,0.5-0.5,0.5s-0.5-0.2-0.5-0.5
			s0.2-0.5,0.5-0.5C232.7,83.4,232.9,83.6,232.9,83.9z M229.8,80.7c0.3,0,0.5,0.2,0.5,0.5s-0.2,0.5-0.5,0.5c-0.3,0-0.5-0.2-0.5-0.5
			S229.5,80.7,229.8,80.7z M223.4,79.4l2.8,2.8c-0.1,0.1-0.1,0.2-0.1,0.4h-4C222.3,81.4,222.8,80.3,223.4,79.4z M223.4,88.4
			c-0.7-0.9-1.1-2-1.3-3.2h4c0,0.1,0.1,0.2,0.1,0.4L223.4,88.4z M228.5,91.5c-1.2-0.2-2.3-0.7-3.2-1.3l2.8-2.8
			c0.1,0.1,0.2,0.1,0.4,0.1V91.5z M226.6,83.9c0-0.3,0.2-0.5,0.5-0.5c0.3,0,0.5,0.2,0.5,0.5s-0.2,0.5-0.5,0.5
			C226.8,84.4,226.6,84.1,226.6,83.9z M228.5,80.2c-0.1,0-0.2,0.1-0.4,0.1l-2.8-2.8c0.9-0.7,2-1.1,3.2-1.3L228.5,80.2L228.5,80.2z
			 M229.8,87c-0.3,0-0.5-0.2-0.5-0.5c0-0.3,0.2-0.5,0.5-0.5c0.3,0,0.5,0.2,0.5,0.5C230.3,86.8,230,87,229.8,87z M229.8,85
			c-0.6,0-1.2-0.5-1.2-1.2c0-0.6,0.5-1.2,1.2-1.2c0.6,0,1.2,0.5,1.2,1.2C230.9,84.5,230.4,85,229.8,85z M231.1,91.5v-4
			c0.1,0,0.2-0.1,0.4-0.1l2.8,2.8C233.3,90.9,232.2,91.3,231.1,91.5z M236.1,88.4l-2.8-2.8c0.1-0.1,0.1-0.2,0.1-0.4h4
			C237.2,86.4,236.8,87.4,236.1,88.4z M237.4,82.6h-4c0-0.1-0.1-0.2-0.1-0.4l2.8-2.8C236.8,80.3,237.2,81.4,237.4,82.6z"/>
	</g>
	<path class="st0" d="M21.1,23.6c0,0-18.1-1.2-18.5,7.3l0.8,1.3H5c0,0,3.7-6.4,14.6-5.8"/>
	<rect x="1" y="30.5" class="st0" width="5.4" height="11"/>
	<path class="st0" d="M294.5,69.4L294.5,69.4c-1.4,0-2.6-1.2-2.6-2.6v-13c0-1.4,1.2-2.6,2.6-2.6h0c1.4,0,2.6,1.2,2.6,2.6v13
		C297,68.2,295.9,69.4,294.5,69.4z"/>
	<path class="st0" d="M10.4,74.8L10.4,74.8c2.9,0,5.2-2.4,5.2-5.2v-2.7c0-2.9-2.4-5.2-5.2-5.2h0c-2.9,0-5.2,2.4-5.2,5.2v2.7
		C5.2,72.4,7.6,74.8,10.4,74.8z"/>
	<path class="st0" d="M33.4,14.4L22.9,25l-8.9,35l-4.7-1.3l1.1-10l4.1-13.3l3.8-7.6l1.1-1.3l0.3-0.2l1.5-2.4l0.7-1.2l2.2-3.1
		l4.4-4.4c0,0,3.9-0.6,4-0.6S33.4,14.4,33.4,14.4z"/>
</g>
</svg>
