<?xml version="1.0" encoding="utf-8"?>
<!-- Generator: Adobe Illustrator 24.1.1, SVG Export Plug-In . SVG Version: 6.00 Build 0)  -->
<svg version="1.1" id="Layer_1" xmlns="http://www.w3.org/2000/svg" xmlns:xlink="http://www.w3.org/1999/xlink" x="0px" y="0px"
	 viewBox="0 0 300 96.2" style="enable-background:new 0 0 300 96.2;" xml:space="preserve">
<style type="text/css">
	.st0{fill:#364349;}
	.st1{fill:#F9FAFB;}
</style>
<g id="Layer_2_1_">
	<g id="Layer_1-2">
		<path class="st0" d="M44.2,72.4c-6.5,0-11.8,5.3-11.8,11.8S37.7,96,44.2,96S56,90.7,56,84.2C55.9,77.7,50.7,72.4,44.2,72.4
			L44.2,72.4z M44.2,92.4c-4.5,0-8.2-3.7-8.2-8.2s3.7-8.2,8.2-8.2s8.2,3.7,8.2,8.2l0,0C52.4,88.7,48.7,92.4,44.2,92.4L44.2,92.4z
			 M44.2,76.7c-4.1,0-7.4,3.3-7.4,7.4s3.3,7.4,7.4,7.4s7.4-3.3,7.4-7.4l0,0C51.6,80.1,48.3,76.7,44.2,76.7z M45.4,77.2
			c1,0.2,2,0.6,2.9,1.2L45.7,81l-0.3-0.1V77.2z M47,84.2c0,0.2-0.2,0.4-0.4,0.4s-0.4-0.2-0.4-0.4c0-0.2,0.2-0.4,0.4-0.4l0,0
			C46.8,83.7,47,83.9,47,84.2L47,84.2z M44.2,81.3c0.2,0,0.4,0.2,0.4,0.5c0,0.2-0.2,0.4-0.5,0.4c-0.2,0-0.4-0.2-0.4-0.4
			C43.7,81.5,43.9,81.3,44.2,81.3L44.2,81.3L44.2,81.3z M38.4,80.1l2.6,2.6c0,0.1-0.1,0.2-0.1,0.3h-3.6
			C37.4,81.9,37.8,80.9,38.4,80.1z M38.4,88.2c-0.6-0.9-1-1.8-1.2-2.9h3.6c0,0.1,0.1,0.2,0.1,0.3L38.4,88.2z M43,91.1
			c-1-0.2-2-0.6-2.9-1.2l2.6-2.6l0.3,0.1L43,91.1z M41.3,84.1c0-0.2,0.2-0.4,0.4-0.4s0.4,0.2,0.4,0.4c0,0.2-0.2,0.4-0.4,0.4l0,0
			C41.5,84.6,41.3,84.4,41.3,84.1L41.3,84.1z M43,80.8l-0.3,0.1l-2.6-2.6c0.9-0.6,1.8-1,2.9-1.2C43,77.2,43,80.8,43,80.8z M44.2,87
			c-0.2,0-0.4-0.2-0.4-0.4c0-0.2,0.2-0.4,0.4-0.4s0.4,0.2,0.4,0.4l0,0C44.6,86.8,44.4,87,44.2,87L44.2,87L44.2,87z M44.2,85.2
			c-0.6,0-1.1-0.5-1.1-1.1s0.5-1.1,1.1-1.1s1.1,0.5,1.1,1.1l0,0C45.2,84.7,44.8,85.2,44.2,85.2L44.2,85.2L44.2,85.2z M45.4,91.1
			v-3.6l0.3-0.1l2.6,2.6C47.4,90.5,46.4,90.9,45.4,91.1L45.4,91.1z M49.9,88.2l-2.6-2.6c0-0.1,0.1-0.2,0.1-0.3H51
			C50.9,86.4,50.5,87.4,49.9,88.2L49.9,88.2z M51.1,82.9h-3.6c0-0.1-0.1-0.2-0.1-0.3L50,80C50.5,80.9,50.9,81.9,51.1,82.9L51.1,82.9
			z"/>
		<rect x="85.6" y="37.8" class="st0" width="3.7" height="47.1"/>
		<rect x="81.9" y="50.5" class="st0" width="3.7" height="21.7"/>
		<rect x="95" y="4.4" class="st0" width="200" height="63.3"/>
		<rect x="295" y="75.8" class="st0" width="4" height="9"/>
		<rect x="113.9" y="0.3" class="st0" width="15.8" height="4.1"/>
		<rect x="255.8" y="0.3" class="st0" width="15.8" height="4.1"/>
		<path class="st0" d="M77,21.6H39.8c-1,0-2,0.7-2.3,1.7l-7.9,25.3L8.8,53.8C6.6,54.4,5,56.4,5,58.7v26.2h26.8c0-0.2,0-0.5,0-0.7
			c0-6.9,5.6-12.4,12.4-12.4s12.4,5.6,12.4,12.4c0,0.2,0,0.5,0,0.7h22.8V24C79.5,22.7,78.4,21.6,77,21.6
			C77.1,21.6,77.1,21.6,77,21.6z M71,48.6H34l7.2-22.7H71V48.6z"/>
		<path class="st1" d="M67.4,53.2h3.1c0.3,0,0.5-0.2,0.5-0.5l0,0l0,0c0-0.3-0.2-0.5-0.5-0.5l0,0h-3.1c-0.3,0-0.5,0.2-0.5,0.5l0,0
			C66.9,53,67.1,53.2,67.4,53.2z"/>
		<rect x="1" y="75.8" class="st0" width="4" height="9"/>
		<path class="st0" d="M110.6,72.4c-6.5,0-11.8,5.3-11.8,11.8S104.1,96,110.6,96s11.8-5.3,11.8-11.8l0,0
			C122.4,77.7,117.1,72.4,110.6,72.4z M110.6,92.4c-4.5,0-8.2-3.7-8.2-8.2s3.7-8.2,8.2-8.2s8.2,3.7,8.2,8.2l0,0
			C118.9,88.7,115.2,92.4,110.6,92.4z M110.6,76.7c-4.1,0-7.4,3.3-7.4,7.4s3.3,7.4,7.4,7.4s7.4-3.3,7.4-7.4l0,0
			C118,80.1,114.7,76.7,110.6,76.7z M111.8,77.2c1,0.2,2,0.6,2.9,1.2l-2.6,2.6l-0.3-0.1V77.2z M113.5,84.2c0,0.2-0.2,0.4-0.4,0.4
			s-0.4-0.2-0.4-0.4s0.2-0.4,0.4-0.4l0,0C113.3,83.7,113.5,83.9,113.5,84.2L113.5,84.2z M110.6,81.3c0.2,0,0.4,0.2,0.4,0.4
			s-0.2,0.4-0.4,0.4s-0.4-0.2-0.4-0.4l0,0C110.2,81.5,110.4,81.3,110.6,81.3L110.6,81.3L110.6,81.3z M104.9,80.1l2.6,2.6
			c0,0.1-0.1,0.2-0.1,0.3h-3.6C103.9,81.9,104.3,80.9,104.9,80.1L104.9,80.1z M104.9,88.2c-0.6-0.9-1-1.8-1.2-2.9h3.6
			c0,0.1,0.1,0.2,0.1,0.3L104.9,88.2z M109.5,91.1c-1-0.2-2-0.6-2.9-1.2l2.6-2.6l0.3,0.1V91.1z M107.8,84.1c0-0.2,0.2-0.4,0.4-0.4
			c0.2,0,0.4,0.2,0.4,0.4s-0.2,0.4-0.4,0.4l0,0C108,84.6,107.8,84.4,107.8,84.1L107.8,84.1z M109.5,80.8l-0.3,0.1l-2.6-2.6
			c0.9-0.6,1.8-1,2.9-1.2V80.8z M110.6,87c-0.2,0-0.4-0.2-0.4-0.4c0-0.2,0.2-0.4,0.4-0.4s0.4,0.2,0.4,0.4l0,0
			C111.1,86.8,110.9,87,110.6,87L110.6,87L110.6,87z M110.6,85.2c-0.6,0-1.1-0.5-1.1-1.1s0.5-1.1,1.1-1.1s1.1,0.5,1.1,1.1l0,0
			C111.7,84.7,111.2,85.2,110.6,85.2L110.6,85.2z M111.8,91.1v-3.6l0.3-0.1l2.6,2.6C113.8,90.5,112.9,90.9,111.8,91.1L111.8,91.1z
			 M116.4,88.2l-2.6-2.6c0-0.1,0.1-0.2,0.1-0.3h3.6C117.4,86.4,117,87.4,116.4,88.2L116.4,88.2z M117.6,83H114
			c0-0.1-0.1-0.2-0.1-0.3l2.6-2.6C117,80.9,117.4,81.9,117.6,83L117.6,83z"/>
		<path class="st0" d="M140.7,72.4c-6.5,0-11.8,5.3-11.8,11.8S134.2,96,140.7,96s11.8-5.3,11.8-11.8l0,0
			C152.5,77.7,147.2,72.4,140.7,72.4z M140.7,92.4c-4.5,0-8.2-3.7-8.2-8.2s3.7-8.2,8.2-8.2s8.2,3.7,8.2,8.2l0,0
			C148.9,88.7,145.2,92.4,140.7,92.4z M140.7,76.7c-4.1,0-7.4,3.3-7.4,7.4s3.3,7.4,7.4,7.4c4.1,0,7.4-3.3,7.4-7.4
			S144.8,76.7,140.7,76.7L140.7,76.7z M141.9,77.2c1,0.2,2,0.6,2.9,1.2l-2.6,2.6l-0.3-0.1L141.9,77.2z M143.5,84.2
			c0,0.2-0.2,0.4-0.4,0.4s-0.4-0.2-0.4-0.4c0-0.2,0.2-0.4,0.4-0.4C143.3,83.7,143.5,83.9,143.5,84.2L143.5,84.2z M140.7,81.3
			c0.2,0,0.4,0.2,0.4,0.4c0,0.2-0.2,0.4-0.4,0.4s-0.4-0.2-0.4-0.4l0,0C140.2,81.5,140.4,81.3,140.7,81.3L140.7,81.3L140.7,81.3z
			 M135,80.1l2.6,2.6c0,0.1-0.1,0.2-0.1,0.3h-3.6C133.9,81.9,134.3,80.9,135,80.1L135,80.1z M135,88.2c-0.6-0.9-1-1.8-1.2-2.9h3.6
			c0,0.1,0.1,0.2,0.1,0.3L135,88.2z M139.5,91.1c-1-0.2-2-0.6-2.9-1.2l2.6-2.6l0.3,0.1L139.5,91.1z M137.9,84.1
			c0-0.2,0.2-0.4,0.4-0.4s0.4,0.2,0.4,0.4c0,0.2-0.2,0.4-0.4,0.4C138.1,84.6,137.9,84.4,137.9,84.1L137.9,84.1z M139.5,80.8
			l-0.3,0.1l-2.6-2.6c0.9-0.6,1.8-1,2.9-1.2L139.5,80.8L139.5,80.8z M140.7,87c-0.2,0-0.4-0.2-0.4-0.4c0-0.2,0.2-0.4,0.4-0.4
			s0.4,0.2,0.4,0.4l0,0C141.1,86.8,140.9,87,140.7,87L140.7,87L140.7,87z M140.7,85.2c-0.6,0-1.1-0.5-1.1-1.1s0.5-1.1,1.1-1.1
			s1.1,0.5,1.1,1.1l0,0C141.8,84.7,141.3,85.2,140.7,85.2L140.7,85.2L140.7,85.2z M141.9,91.1v-3.6l0.3-0.1l2.6,2.6
			C143.9,90.5,142.9,90.9,141.9,91.1L141.9,91.1z M146.4,88.2l-2.6-2.6c0.1-0.1,0.1-0.2,0.1-0.3h3.6C147.5,86.4,147,87.4,146.4,88.2
			L146.4,88.2z M147.6,83H144c0-0.1-0.1-0.2-0.1-0.3l2.6-2.6C147.1,80.9,147.5,81.9,147.6,83L147.6,83z"/>
		<path class="st0" d="M233.6,72.4c-6.5,0-11.8,5.3-11.8,11.8S227.1,96,233.6,96s11.8-5.3,11.8-11.8l0,0
			C245.4,77.7,240.1,72.4,233.6,72.4z M233.6,92.4c-4.5,0-8.2-3.7-8.2-8.2s3.7-8.2,8.2-8.2s8.2,3.7,8.2,8.2l0,0
			C241.8,88.7,238.2,92.4,233.6,92.4z M233.6,76.7c-4.1,0-7.4,3.3-7.4,7.4s3.3,7.4,7.4,7.4c4.1,0,7.4-3.3,7.4-7.4
			S237.7,76.7,233.6,76.7L233.6,76.7z M234.8,77.2c1,0.2,2,0.6,2.9,1.2l-2.6,2.6l-0.3-0.1L234.8,77.2z M236.4,84.2
			c0,0.2-0.2,0.4-0.4,0.4s-0.4-0.2-0.4-0.4c0-0.2,0.2-0.4,0.4-0.4l0,0C236.2,83.7,236.4,83.9,236.4,84.2L236.4,84.2z M233.6,81.3
			c0.2,0,0.4,0.2,0.4,0.4c0,0.2-0.2,0.4-0.4,0.4s-0.4-0.2-0.4-0.4l0,0C233.2,81.5,233.4,81.3,233.6,81.3L233.6,81.3L233.6,81.3z
			 M227.9,80.1l2.6,2.6c0,0.1-0.1,0.2-0.1,0.3h-3.6C226.9,81.9,227.3,80.9,227.9,80.1L227.9,80.1z M227.9,88.2
			c-0.6-0.9-1-1.8-1.2-2.9h3.6c0,0.1,0.1,0.2,0.1,0.3L227.9,88.2z M232.4,91.1c-1-0.2-2-0.6-2.9-1.2l2.6-2.6l0.3,0.1L232.4,91.1
			L232.4,91.1z M230.8,84.1c0-0.3,0.2-0.5,0.4-0.5c0.3,0,0.5,0.2,0.5,0.4c0,0.3-0.2,0.5-0.4,0.5l0,0C231,84.6,230.8,84.4,230.8,84.1
			C230.8,84.2,230.8,84.2,230.8,84.1L230.8,84.1z M232.4,80.8l-0.3,0.1l-2.6-2.6c0.9-0.6,1.8-1,2.9-1.2L232.4,80.8L232.4,80.8z
			 M233.6,87c-0.2,0-0.4-0.2-0.4-0.4c0-0.2,0.2-0.4,0.4-0.4s0.4,0.2,0.4,0.4l0,0C234.1,86.8,233.9,87,233.6,87L233.6,87L233.6,87z
			 M233.6,85.2c-0.6,0-1.1-0.5-1.1-1.1s0.5-1.1,1.1-1.1s1.1,0.5,1.1,1.1l0,0C234.7,84.7,234.2,85.2,233.6,85.2L233.6,85.2
			L233.6,85.2z M234.8,91.1v-3.6l0.3-0.1l2.6,2.6C236.8,90.5,235.8,90.9,234.8,91.1L234.8,91.1z M239.4,88.2l-2.6-2.6
			c0.1-0.1,0.1-0.2,0.1-0.3h3.6C240.4,86.4,240,87.4,239.4,88.2z M240.6,83H237c0-0.1-0.1-0.2-0.1-0.3l2.6-2.6
			C240,80.9,240.4,81.9,240.6,83L240.6,83z"/>
		<path class="st0" d="M263.7,72.4c-6.5,0-11.8,5.3-11.8,11.8S257.2,96,263.7,96s11.8-5.3,11.8-11.8l0,0
			C275.4,77.7,270.2,72.4,263.7,72.4z M263.7,92.4c-4.5,0-8.2-3.7-8.2-8.2s3.7-8.2,8.2-8.2s8.2,3.7,8.2,8.2l0,0
			C271.9,88.7,268.2,92.4,263.7,92.4z M263.7,76.7c-4.1,0-7.4,3.3-7.4,7.4s3.3,7.4,7.4,7.4s7.4-3.3,7.4-7.4l0,0
			C271.1,80.1,267.8,76.7,263.7,76.7z M264.8,77.2c1,0.2,2,0.6,2.9,1.2l-2.6,2.6l-0.3-0.1V77.2z M266.5,84.2c0,0.2-0.2,0.4-0.4,0.4
			c-0.2,0-0.4-0.2-0.4-0.4s0.2-0.4,0.4-0.4C266.3,83.7,266.5,83.9,266.5,84.2L266.5,84.2z M263.7,81.3c0.2,0,0.5,0.2,0.5,0.4
			c0,0.2-0.2,0.5-0.4,0.5c-0.2,0-0.5-0.2-0.5-0.4l0,0C263.2,81.5,263.4,81.3,263.7,81.3L263.7,81.3z M257.9,80.1l2.6,2.6
			c0,0.1-0.1,0.2-0.1,0.3h-3.6C256.9,81.9,257.3,80.9,257.9,80.1L257.9,80.1z M257.9,88.2c-0.6-0.9-1-1.8-1.2-2.9h3.6
			c0,0.1,0.1,0.2,0.1,0.3L257.9,88.2z M262.5,91.1c-1-0.2-2-0.6-2.9-1.2l2.6-2.6l0.3,0.1V91.1z M260.8,84.1c0-0.2,0.2-0.4,0.4-0.4
			c0.2,0,0.4,0.2,0.4,0.4s-0.2,0.4-0.4,0.4C261,84.6,260.8,84.4,260.8,84.1L260.8,84.1z M262.5,80.8l-0.3,0.1l-2.6-2.6
			c0.9-0.6,1.8-1,2.9-1.2V80.8z M263.7,87c-0.2,0-0.4-0.2-0.4-0.4c0-0.2,0.2-0.4,0.4-0.4s0.4,0.2,0.4,0.4S263.9,87,263.7,87
			L263.7,87L263.7,87z M263.7,85.2c-0.6,0-1.1-0.5-1.1-1.1s0.5-1.1,1.1-1.1s1.1,0.5,1.1,1.1l0,0C264.7,84.7,264.3,85.2,263.7,85.2
			L263.7,85.2z M264.8,91.1v-3.6l0.3-0.1l2.6,2.6C266.9,90.5,265.9,90.9,264.8,91.1L264.8,91.1z M269.4,88.2l-2.6-2.6
			c0-0.1,0.1-0.2,0.1-0.3h3.6C270.4,86.4,270,87.4,269.4,88.2L269.4,88.2z M270.6,83H267c0-0.1-0.1-0.2-0.1-0.3l2.6-2.6
			C270,80.9,270.4,81.9,270.6,83L270.6,83z"/>
		<path class="st0" d="M85.6,70.1v14.8h12.7c0-0.2,0-0.5,0-0.7c0-6.9,5.6-12.4,12.4-12.4c6.9,0,12.4,5.6,12.4,12.4
			c0,0.2,0,0.5,0,0.7h5.3c0-0.2,0-0.5,0-0.7c0-6.9,5.6-12.4,12.4-12.4s12.4,5.6,12.4,12.4c0,0.2,0,0.5,0,0.7h68.2c0-0.2,0-0.5,0-0.7
			c0-6.9,5.6-12.4,12.4-12.4c6.9,0,12.4,5.6,12.4,12.4c0,0.2,0,0.5,0,0.7h5.1c0-0.2,0-0.5,0-0.7c0-6.9,5.6-12.4,12.4-12.4
			s12.4,5.6,12.4,12.4c0,0.2,0,0.5,0,0.7H295V70.1H85.6z"/>
	</g>
</g>
</svg>
