<?xml version="1.0" encoding="utf-8"?>
<!-- Generator: Adobe Illustrator 24.1.1, SVG Export Plug-In . SVG Version: 6.00 Build 0)  -->
<svg version="1.1" id="Layer_1" xmlns="http://www.w3.org/2000/svg" xmlns:xlink="http://www.w3.org/1999/xlink" x="0px" y="0px"
	 viewBox="0 0 300 124" style="enable-background:new 0 0 300 124;" xml:space="preserve">
<style type="text/css">
	.st0{fill:#364349;}
</style>
<g id="Layer_2_1_">
	<g id="Layer_1-2">
		<g id="Shape_1">
			<path class="st0" d="M44.9,93.9c-1.4,0-2.5,1.1-2.5,2.5s1.1,2.5,2.5,2.5s2.5-1.1,2.5-2.5S46.3,93.9,44.9,93.9z M41.4,88.9
				c0.2-0.1,0.5-0.2,0.8-0.3V80c-2.4,0.4-4.8,1.4-6.8,2.8L41.4,88.9z M44.9,101c-0.6,0-1.1,0.5-1.1,1.1s0.5,1.1,1.1,1.1
				s1.1-0.5,1.1-1.1l0,0C46,101.4,45.5,101,44.9,101z M47.7,104.2v8.5c2.4-0.4,4.8-1.4,6.8-2.8l-6-6C48.2,104,48,104.1,47.7,104.2z
				 M52.7,99.2c-0.1,0.3-0.2,0.5-0.3,0.8l6,6c1.4-2,2.4-4.3,2.8-6.8H52.7z M44.9,69.2c-15,0-27.2,12.2-27.2,27.2
				s12.2,27.2,27.2,27.2s27.2-12.2,27.2-27.2S59.9,69.2,44.9,69.2L44.9,69.2z M44.9,115.8c-10.7,0-19.4-8.7-19.4-19.4
				S34.2,77,44.9,77s19.4,8.7,19.4,19.4l0,0C64.3,107.1,55.6,115.8,44.9,115.8z M49.5,96.4c0,0.6,0.5,1.1,1.1,1.1s1.1-0.5,1.1-1.1
				s-0.5-1.1-1.1-1.1l0,0C50,95.3,49.5,95.8,49.5,96.4L49.5,96.4z M44.9,91.8c0.6,0,1.1-0.5,1.1-1.1s-0.5-1.1-1.1-1.1
				s-1.1,0.5-1.1,1.1v0.1C43.9,91.4,44.4,91.8,44.9,91.8z M54.5,82.9c-2-1.4-4.4-2.4-6.8-2.8v8.5c0.3,0.1,0.5,0.2,0.8,0.3L54.5,82.9
				z M37.4,92.8l-6-6c-1.4,2-2.4,4.3-2.8,6.8h8.5C37.2,93.4,37.3,93.1,37.4,92.8z M37.1,99.2h-8.5c0.4,2.4,1.4,4.8,2.8,6.8l6-6
				C37.3,99.7,37.2,99.4,37.1,99.2z M35.3,109.9c2,1.4,4.3,2.4,6.8,2.8v-8.5c-0.3-0.1-0.5-0.2-0.8-0.3L35.3,109.9z M40.4,96.4
				c0-0.6-0.5-1.1-1.1-1.1s-1.1,0.5-1.1,1.1s0.5,1.1,1.1,1.1l0,0C39.9,97.4,40.4,97,40.4,96.4L40.4,96.4z M52.7,93.6h8.5
				c-0.4-2.4-1.4-4.7-2.8-6.8l-6,6C52.5,93.1,52.6,93.3,52.7,93.6z M247.5,92.5c-1.4,0-2.5,1.1-2.5,2.5s1.1,2.5,2.5,2.5
				s2.5-1.1,2.5-2.5l0,0C250,93.6,248.9,92.5,247.5,92.5L247.5,92.5z M250.3,102.8v8.5c2.4-0.4,4.8-1.4,6.8-2.8l-6-6
				C250.8,102.6,250.6,102.7,250.3,102.8z M247.5,99.6c-0.6,0-1.1,0.5-1.1,1.1s0.5,1.1,1.1,1.1s1.1-0.5,1.1-1.1l0,0
				C248.6,100,248.1,99.6,247.5,99.6L247.5,99.6z M297.9,83.6c1.3-8.2,0-8.9-5.5-21c-1.5-3.3-5.4-5.3-8.5-7
				c-16.5-9-57.6-14.6-60.3-14.6c-8.4-8.3-22.1-24-40.5-36.6c-3.4-2.3-15.5-2.7-15.5-2.7s-99.3-3.9-123,1.8c-2,0.5-3.5,0.3-5.2,1.2
				c-1.9,1.8-3.8,3.8-5.5,5.8c-0.3,0.5-1.9,2.3-2.4,3c-3.7,5-8.1,9.8-11.3,15.2c-1.4,2.4-2,4.6-3.3,7c-1.4,2.4-6,4-6.7,8.2
				c-0.3,2-2.6,1.3-2.7,4.3c0.8,0.4,1.6,0.7,2.4,0.9c-1.8,6.7-3,18.5-3,19.8l0,0c0,0.2,0,0.1,0,0C1,70.8,1.5,81.1,1,79.2
				c0.7,2.7,2.6,6.3,3.3,9.3c0.6,2.5-1.4,3.6-1.5,6.1c0.4,0.3,0.9,3,1.2,3.3c1.5,4,12.8,7.6,12.8,7.6h1.1c-5-14.9,3-31.1,17.9-36.1
				s31.1,3,36.1,17.9c2,5.9,2,12.3,0,18.3l149.2,0.2c-5.9-14.6,1.1-31.2,15.7-37.2c14.6-5.9,31.2,1.1,37.2,15.7
				c2.8,6.9,2.8,14.7,0,21.6h2.3c0,0,17.5,1.6,19.8-4c0.9-1,1.3-6.3,1.2-9.4c-0.1-3.1,0.7-2.6,1.5-4.6
				C299.6,85.8,297.6,84.5,297.9,83.6L297.9,83.6z M98.7,36.1c-0.6,0.4-0.5,0.6-1.2,0.9c-2.2,1.7-23.8-0.6-53.3-0.6
				c0.5,0.7-3.4,0.1-0.3-6.7c4.3-9.2,10.8-15.7,10.4-15.8c8.7-1.3,31.8-0.9,44.4-0.6C98.5,20.5,98.6,24.5,98.7,36.1z M186.8,43.1
				c-0.5-0.6-1.9-1.5-2.1-2.1c-0.2-0.7,0.5-2.3,0-3.4c-1.3-3-5.7-5-10.1-4.9c-1,1.2-2.6,1.7-3.3,3.3c-0.4,1.6-0.7,3.2-0.9,4.9
				c0.1,0.7,0.5,0.8,0.6,1.1c0.8,0,0.4,0.1,0,0.4c0-0.1,0-0.3,0-0.4c-2.2-0.1-13.5,0.3-59.1-2c-1.3-24-2.4-24.8,0.3-28.6
				c26.7,0,54.8-0.3,54.8-0.3s20,24.5,26.2,32.3C192,43.9,188.5,43.1,186.8,43.1z M205.9,40.7c-9.9-7.9-22.9-25-29.2-30.1
				c-2.1,0,5-0.1,8.8-0.9C197,19.8,208.8,29,219.3,40.9C214.3,41,210.1,44,205.9,40.7L205.9,40.7z M247.6,67.9
				c-15,0-27.2,12.2-27.2,27.2s12.2,27.2,27.2,27.2S274.7,110,274.7,95l0,0C274.7,80,262.6,67.9,247.6,67.9
				C247.6,67.8,247.6,67.8,247.6,67.9L247.6,67.9z M247.6,114.4c-10.7,0-19.4-8.7-19.4-19.4s8.7-19.4,19.4-19.4
				c10.7,0,19.4,8.7,19.4,19.4l0,0C266.9,105.7,258.2,114.4,247.6,114.4L247.6,114.4z M255.1,98.5l6,6c1.4-2,2.4-4.4,2.8-6.8h-8.5
				C255.3,98,255.2,98.3,255.1,98.5L255.1,98.5z M255.4,92.2h8.5c-0.4-2.4-1.4-4.8-2.8-6.8l-6,6C255.2,91.7,255.3,91.9,255.4,92.2
				L255.4,92.2z M244,87.5c0.2-0.1,0.5-0.2,0.8-0.3v-8.5c-2.4,0.4-4.8,1.4-6.8,2.8L244,87.5z M243,95c0-0.6-0.5-1.1-1.1-1.1
				s-1,0.5-1.1,1.1c0,0.6,0.5,1.1,1.1,1.1C242.5,96,243,95.6,243,95L243,95z M247.6,90.4c0.6,0,1.1-0.5,1.1-1.1s-0.5-1.1-1.1-1.1
				s-1.1,0.5-1.1,1.1l0,0C246.5,89.9,247,90.4,247.6,90.4L247.6,90.4z M257.2,81.5c-2-1.5-4.4-2.4-6.8-2.8v8.5
				c0.2,0.1,0.5,0.2,0.7,0.3L257.2,81.5z M252.2,95c0,0.6,0.5,1.1,1.1,1.1s1-0.5,1.1-1.1c0-0.6-0.5-1.1-1.1-1.1S252.2,94.4,252.2,95
				L252.2,95z M240.1,91.5l-6-6c-1.4,2-2.4,4.3-2.8,6.8h8.5C239.9,92,240,91.7,240.1,91.5L240.1,91.5z M238,108.5
				c2,1.4,4.3,2.4,6.8,2.8v-8.5c-0.3-0.1-0.5-0.2-0.8-0.3L238,108.5z M239.7,97.8h-8.5c0.4,2.4,1.4,4.8,2.8,6.8l6-6
				C239.9,98.3,239.8,98,239.7,97.8z"/>
		</g>
	</g>
</g>
</svg>
