<svg xmlns="http://www.w3.org/2000/svg" viewBox="0 0 300 180.58"><defs><style>.cls-1{fill:#364349;}</style></defs><g id="Layer_2" data-name="Layer 2"><g id="Layer_1-2" data-name="Layer 1"><path class="cls-1" d="M131.51,123c-10-24.93-23-47.52-51-52.61-25.61-4.66-50.07,1.23-69.43,20.78-.41.42-.79.87-1.21,1.27a6.53,6.53,0,0,1-.92.59l-4.3-3.44c-5.8-4.62-5.85-4.71-1.81-11.19C9.34,67.9,19.28,61.74,30.14,56.71c1.51-.7,2.77-2,5-3.57-3.35-.6-5.51-.71-7.47-1.4-3.31-1.16-4.67-3.81-4.2-7.24.43-3.22,2.32-5.34,5.59-5.77,7.48-1,15-2.16,22.47-2.58,7.85-.45,15.76.22,23.61-.17,16.82-.84,24.91,9.54,27.44,22.92.08.41.23.81.48,1.67,11,0,22-.25,33.05.11,4.71.16,7.82-1.24,10.66-5,3.6-4.73,7.1-10.53,12.07-12.91,4.64-2.22,11.14-.74,16.81-.6a120.78,120.78,0,0,0,49-8.59c5-2.05,6-4.1,4.2-9.28-2.67-7.5-8.9-10.37-16-11.85-2.7-.56-5.47-.73-8.49-1.12V0c12.85,1.39,25.43,2.93,35.43,12.16,3.48,3.22,3.56,4.36,4.84,15.86l11.3-2.9c.17,2.23.31,4,.5,6.42h12.06v23H257.08c-2.11,2.47,1.64,8-5.36,6.71,1.09,8.19,2.12,15.88,3.09,23.18,5.69,1.61,11.17,2.61,16.19,4.7,19.76,8.23,30.41,27,28.85,46-1.93,23.56-16.83,40.13-38.8,44.45-30.25,6-58.44-18.16-56.91-48.94.63-12.7,5.55-23.79,15-32.4,2.69-2.45,2.76-4.4,1.68-7.41-1.8-5-3.22-10.23-5.16-16.53-3.12,3.79-6,6.76-8.29,10.17-7.16,10.8-14.36,21.59-21,32.7-9,15-22.58,23-39.28,25.38-11.57,1.65-23.39,1.53-35.1,2.2l-.4-1.26c-.46,1.32-.94,2.64-1.38,4-7.13,21.6-27.69,34.88-50.87,32.86-20.85-1.82-38.57-18.82-41.85-40.15-3.84-24.95,11.79-48.51,36-54.19a48.09,48.09,0,0,1,57.22,33.07c1,3.23,2.28,4,5.33,3.9C120.93,122.79,125.88,123,131.51,123Zm-100,9.87c0,18.75,14.42,33.55,32.76,33.6a33.42,33.42,0,0,0,33.81-33.23c0-18-14.82-32.82-32.34-33.38C46.68,99.2,31,115.25,31.54,132.82Zm221.14-32.9c-18.75,0-33.83,14.9-33.7,33.27a33.49,33.49,0,0,0,33.44,33.23,33.25,33.25,0,0,0,.26-66.5ZM239.9,63.49l-8.74,2.86c1.26,7.63,2.45,14.87,3.65,22.14l10.28-2.84C243.37,78.29,241.73,71.27,239.9,63.49Z"/><path class="cls-1" d="M36.69,132.8c-.16,15.28,12,27.86,26.6,28.46,16.13.67,29.33-12.13,29.55-27.38A28.16,28.16,0,0,0,65.7,105C49.9,104.31,36.22,117.81,36.69,132.8Z"/><path class="cls-1" d="M252.69,105.11c-15.93,0-28.48,12.29-28.54,28a28.3,28.3,0,1,0,28.54-28Z"/><path class="cls-1" d="M36.69,132.8c-.47-15,13.21-28.49,29-27.79a28.16,28.16,0,0,1,27.14,28.87c-.22,15.25-13.42,28.05-29.55,27.38C48.68,160.66,36.53,148.08,36.69,132.8Z"/><path class="cls-1" d="M252.69,105.11a28,28,0,1,1-28.54,28C224.21,117.4,236.76,105.09,252.69,105.11Z"/></g></g></svg>