<?xml version="1.0" encoding="utf-8"?>
<!-- Generator: Adobe Illustrator 24.1.1, SVG Export Plug-In . SVG Version: 6.00 Build 0)  -->
<svg version="1.1" id="Layer_1" xmlns="http://www.w3.org/2000/svg" xmlns:xlink="http://www.w3.org/1999/xlink" x="0px" y="0px"
	 viewBox="0 0 300 100.7" style="enable-background:new 0 0 300 100.7;" xml:space="preserve">
<style type="text/css">
	.st0{fill:#364349;}
</style>
<g id="Layer_2_1_">
	<g id="Layer_1-2">
		<g id="Shape_1">
			<path class="st0" d="M66.6,73.8c-1.2,0-2.2,1-2.2,2.2s1,2.2,2.2,2.2s2.2-1,2.2-2.2l0,0C68.8,74.8,67.8,73.8,66.6,73.8z
				 M66.6,80.2c-0.5,0-1,0.4-1,1c0,0.5,0.4,1,1,1c0.5,0,1-0.4,1-1S67.2,80.1,66.6,80.2C66.6,80.1,66.6,80.1,66.6,80.2L66.6,80.2z
				 M69.1,83.1v7.7c2.2-0.4,4.3-1.2,6.1-2.5l-5.4-5.4C69.5,82.9,69.3,82.9,69.1,83.1L69.1,83.1z M73.3,79.2l5.4,5.4
				c1.3-1.8,2.2-3.9,2.5-6.1h-7.7C73.5,78.7,73.4,79,73.3,79.2L73.3,79.2z M73.3,72.9c0.1,0.2,0.2,0.4,0.3,0.7h7.6
				c-0.4-2.2-1.2-4.3-2.5-6.1L73.3,72.9z M63.3,69.4c0.2-0.1,0.4-0.2,0.7-0.3v-7.6c-2.2,0.4-4.2,1.2-6,2.5L63.3,69.4z M66.6,51.7
				c-13.4,0-24.3,10.9-24.3,24.3s10.9,24.3,24.3,24.3S90.9,89.4,90.9,76l0,0C90.9,62.6,80,51.7,66.6,51.7z M66.6,93.4
				c-9.6,0-17.4-7.8-17.4-17.4S57,58.6,66.6,58.6S84,66.4,84,76C83.9,85.6,76.2,93.4,66.6,93.4L66.6,93.4z M66.6,71.9
				c0.5,0,0.9-0.4,0.9-0.9s-0.4-0.9-0.9-0.9c-0.5,0.2-0.8,0.7-0.6,1.3C66,71.6,66.3,71.8,66.6,71.9z M75.1,63.9
				c-1.8-1.3-3.9-2.2-6.1-2.5V69c0.2,0.1,0.4,0.2,0.7,0.3L75.1,63.9z M59.8,72.8l-5.4-5.4c-1.3,1.8-2.1,3.9-2.5,6.1h7.7
				C59.7,73.3,59.7,73.1,59.8,72.8z M58,88.1c1.8,1.3,3.9,2.1,6.1,2.5V83c-0.2-0.1-0.5-0.2-0.7-0.3L58,88.1z M59.6,78.5h-7.7
				c0.4,2.2,1.2,4.3,2.5,6.1l5.4-5.4C59.7,79,59.7,78.8,59.6,78.5z M62.5,76c0-0.5-0.4-1-1-1s-1,0.4-1,1c0,0.5,0.4,1,1,1
				C62,77,62.4,76.6,62.5,76C62.5,76.1,62.4,76,62.5,76L62.5,76z M70.7,76c0,0.5,0.4,1,1,1c0.5,0,1-0.4,1-1c0-0.5-0.4-1-1-1
				c-0.5-0.1-1,0.3-1,0.8C70.6,75.9,70.6,76,70.7,76L70.7,76z M255.1,73.8c-1.2,0-2.2,1-2.2,2.2s1,2.2,2.2,2.2c1.2,0,2.2-1,2.2-2.2
				c0,0,0,0,0-0.1C257.3,74.8,256.3,73.9,255.1,73.8z M251.9,69.4c0.2-0.1,0.4-0.2,0.7-0.3v-7.6c-2.2,0.4-4.3,1.2-6.1,2.5
				L251.9,69.4z M255.1,80.2c-0.5,0-1,0.4-1,1c0,0.5,0.4,1,1,1c0.5,0,1-0.4,1-1S255.7,80.1,255.1,80.2
				C255.1,80.1,255.1,80.1,255.1,80.2L255.1,80.2z M257.6,83.1v7.7c2.2-0.4,4.3-1.2,6.1-2.5l-5.4-5.4
				C258,82.9,257.8,82.9,257.6,83.1L257.6,83.1z M262.1,78.6c-0.1,0.2-0.2,0.5-0.3,0.7l5.4,5.4c1.3-1.8,2.1-3.9,2.5-6.1H262.1z
				 M297.4,47.8c-3.3-5.1-11.8-6.8-18.2-8.9c-45-10.9-59.9-7.3-67.4-8.4c-1.5-0.4-2.9-1.7-4.1-2.5c-2.7-1.7-5.5-3.2-8.2-4.8
				c-4.4-2.7-24.8-13.9-30.3-15.9C157,2.8,137.9-0.7,91.7,3c-1.9-0.5-3-2-5-2.5C84.8,0,83,1,81.6,1.3c0,1.3-0.1,2.7-0.4,4
				c-9,3.8-18.1,6.7-27.1,10.5c-3.7,1.6-7.6,3.1-11.4,4.8c-2.4,1-4.6,2.5-7.3,3.4c-2.9,0.9-6.1,0.5-9.3,1.3
				c-5.8,1.3-12.2,1.5-18.6,1.6c-0.7,1.3-2,2.5-2.3,4.1c1.1,0.3,1.5,1.1,1.4,2.7c-2,2.9-1.4,7.1-1.4,11.8c-4.2,2.1-4.8,10-3.7,16.2
				l-0.4,1.6C1.3,65,1.9,66.9,2,68.8c1.7,1.2,3.2,2.6,4.5,4.3c0.5,0.7,0.8,2,1.8,2.3c5.3,3.8,31.9,4.6,31.9,4.6l1.4,0.1
				c-0.2-1.3-0.3-2.7-0.3-4.1c0-14,11.3-25.3,25.3-25.3S91.9,62,91.9,76c0,2.8-0.3,5.6-0.9,8.3l140.2-0.2c-4.4-13.3,2.7-27.6,16-32
				c13.3-4.4,27.6,2.7,32,16c1.6,4.9,1.7,10.1,0.3,15.1h1.4c0,0,11-0.5,13.7-1.8s3.8-4.8,3.8-4.8l-0.7-7.5
				C297.6,69,300.9,53.1,297.4,47.8L297.4,47.8z M73.5,29.4c-8.4-5.6-4-12.1-4.2-12s-0.2,0.2-0.3,0.3c0.1-0.1,0.2-0.2,0.3-0.3
				c2.2-1.9,14.5-10.5,58.2-10.6c1.4,7.7,2.7,17.7,4.1,25.4C114.1,31.6,79.5,31.9,73.5,29.4z M186.2,32.2h-42.1
				c0,0-6.2-16.3-8.4-25.3l7.8,0.3c0,0,15,1.7,24.4,4.8c7.4,2.4,22,12.3,22.3,12.8C186,25.2,184.9,28.6,186.2,32.2L186.2,32.2z
				 M255.1,51.7c-13.4,0-24.3,10.9-24.3,24.3s10.9,24.3,24.3,24.3c13.4,0,24.3-10.9,24.3-24.3l0,0C279.4,62.6,268.5,51.7,255.1,51.7
				z M255.1,93.4c-9.6,0-17.4-7.8-17.4-17.4s7.8-17.4,17.4-17.4c9.6,0,17.4,7.8,17.4,17.4l0,0C272.4,85.6,264.7,93.4,255.1,93.4
				L255.1,93.4z M248.3,72.8l-5.4-5.4c-1.3,1.8-2.2,3.9-2.5,6.1h7.6C248.2,73.3,248.3,73.1,248.3,72.8z M251,76
				c0.2-0.5-0.1-1.1-0.6-1.3c-0.5-0.2-1.1,0.1-1.3,0.6c-0.1,0.2-0.1,0.4,0,0.6c-0.2,0.5,0.1,1.1,0.6,1.3c0.5,0.2,1.1-0.1,1.3-0.6
				C251,76.4,251,76.2,251,76z M255.1,71.9c0.5,0,0.9-0.4,0.9-0.9s-0.4-0.9-0.9-0.9s-0.9,0.4-0.9,0.9l0,0
				C254.1,71.5,254.5,71.9,255.1,71.9L255.1,71.9L255.1,71.9z M263.7,63.9c-1.8-1.3-3.9-2.2-6.1-2.5V69c0.2,0.1,0.5,0.2,0.7,0.3
				L263.7,63.9z M259.2,76c0,0.5,0.4,1,1,1s1-0.4,1-1c0-0.5-0.4-1-1-1S259.2,75.5,259.2,76L259.2,76z M246.5,88.1
				c1.8,1.3,3.9,2.1,6.1,2.5V83c-0.2-0.1-0.5-0.2-0.7-0.3L246.5,88.1z M248.1,78.5h-7.7c0.4,2.2,1.2,4.3,2.5,6.1l5.4-5.4
				C248.3,79,248.2,78.7,248.1,78.5z M262.1,73.6h7.6c-0.4-2.2-1.2-4.3-2.5-6.1l-5.4,5.4C261.9,73.1,262,73.3,262.1,73.6L262.1,73.6
				z"/>
		</g>
	</g>
</g>
</svg>
