<?xml version="1.0" encoding="utf-8"?>
<!-- Generator: Adobe Illustrator 24.1.1, SVG Export Plug-In . SVG Version: 6.00 Build 0)  -->
<svg version="1.1" id="Layer_1" xmlns="http://www.w3.org/2000/svg" xmlns:xlink="http://www.w3.org/1999/xlink" x="0px" y="0px"
	 viewBox="0 0 300 100.5" style="enable-background:new 0 0 300 100.5;" xml:space="preserve">
<style type="text/css">
	.st0{fill:#364349;}
</style>
<g id="Layer_2_1_">
	<g id="Layer_1-2">
		<g id="Shape_1">
			<path class="st0" d="M72.4,49.8c-13.9,0-25.2,11.3-25.2,25.2s11.3,25.2,25.2,25.2S97.6,88.9,97.6,75l0,0
				C97.6,61.1,86.4,49.8,72.4,49.8L72.4,49.8z M72.4,92.6c-9.7,0-17.6-7.9-17.6-17.6s7.9-17.6,17.6-17.6S90,65.3,90,75l0,0
				C90.1,84.7,82.2,92.6,72.4,92.6z M252.4,49.8c-13.9,0-25.2,11.3-25.2,25.2s11.3,25.2,25.2,25.2s25.2-11.3,25.2-25.2l0,0
				C277.6,61.1,266.3,49.8,252.4,49.8L252.4,49.8z M252.4,92.6c-9.7,0-17.6-7.9-17.6-17.6s7.9-17.6,17.6-17.6S270,65.3,270,75l0,0
				C270,84.7,262.1,92.6,252.4,92.6L252.4,92.6z M297,64.6c-1.2-1.1-3.4-0.9-4.9-1.9c1.6-1.2,1.1-4.4,1.1-7.2v-6.4
				c-0.3-0.7-1.1-0.7-1.5-1.1c-1.7-2.1-1.2-5.6-3.8-6.8c-3.7-3.2-13.1-3.6-18.9-4.5c-17.3-2.9-47.9-5.5-43.7-5.3
				c-1.6-0.7-1.4-2-4.1-2.3c-0.6,0.6-0.3,0.4-0.8,0.4c-13.7-7.9-24.5-20.7-40.7-26c-5.9-1.9-13.7-2.9-20.8-2.9
				c-7.3,0-27.3-1.6-29.4,4c-2.7,3-3.4,18.2-3.4,24.1c-0.9,3.3-2.8,2.3-2.8,2.3H8c0,0-0.4,4.3-0.4,6.4c-3.2,4.7-0.5,21.1,0,26.4
				c-2.1-0.1-4.2-0.1-5.3,0.8c-1.1,1.1-1.2,2.2-1.1,4.5c-1.2,3,2.6,11.8,2.6,11.8h41.8c0-0.4,0-0.9,0-1.3v-4.9
				c0-14.6,11.8-26.4,26.4-26.4h1c14.6,0,26.4,11.8,26.4,26.4v4.9c0,0.4,0,0.9,0,1.3L226,81c0-0.4,0-0.8,0-1.2v-5.2
				c-0.3-14.5,11.3-26.5,25.8-26.8c14.5-0.3,26.5,11.3,26.8,25.8c0,0.3,0,0.7,0,1v5.2c0,0.4,0,0.8,0,1.3h7.9c0,0,9.1-0.5,11.3-3.6
				C300.1,74.4,298.7,66.9,297,64.6z M200.1,33.6h-51.3l-2.6-26.8c0,0,36.3-6.5,53.9,15.9C197.8,25,200,33.6,200.1,33.6L200.1,33.6z
				 M72.4,59.1c-8.8,0-15.9,7.1-15.9,15.9s7.1,15.9,15.9,15.9S88.3,83.8,88.3,75S81.2,59.1,72.4,59.1L72.4,59.1z M75,60.1
				c2.2,0.4,4.3,1.3,6.2,2.6l-5.5,5.5c-0.2-0.1-0.5-0.2-0.7-0.3V60.1z M78.5,75c0,0.5-0.4,1-1,1s-1-0.4-1-1s0.4-1,1-1
				S78.5,74.4,78.5,75L78.5,75z M72.4,68.9c0.5,0,1,0.4,1,1c0,0.5-0.4,1-1,1c-0.5,0-1-0.4-1-1S71.9,68.9,72.4,68.9z M60.1,66.3
				l5.5,5.5c-0.1,0.2-0.2,0.5-0.3,0.7h-7.7C58,70.2,58.9,68.1,60.1,66.3z M60.1,83.7c-1.3-1.8-2.2-3.9-2.5-6.2h7.8
				c0.1,0.2,0.2,0.5,0.3,0.7L60.1,83.7z M69.9,89.8c-2.2-0.4-4.3-1.3-6.2-2.6l5.5-5.5c0.2,0.1,0.5,0.2,0.7,0.3
				C69.9,82,69.9,89.8,69.9,89.8z M66.4,74.9c0-0.5,0.4-1,1-1c0.5,0,1,0.4,1,1c0,0.5-0.4,1-1,1S66.4,75.5,66.4,74.9L66.4,74.9z
				 M69.9,67.9c-0.2,0.1-0.5,0.2-0.7,0.3l-5.5-5.5c1.8-1.3,4-2.2,6.2-2.6V67.9z M72.4,81c-0.5,0-1-0.4-1-1s0.4-1,1-1
				c0.5,0,1,0.4,1,1S73,81,72.4,81L72.4,81z M72.4,77.2c-1.3,0-2.3-1-2.3-2.3s1-2.3,2.3-2.3s2.3,1,2.3,2.3l0,0
				C74.7,76.2,73.7,77.2,72.4,77.2L72.4,77.2z M75,89.8V82c0.2-0.1,0.5-0.2,0.7-0.3l5.5,5.5C79.3,88.6,77.2,89.5,75,89.8z
				 M84.7,83.7l-5.5-5.5c0.1-0.2,0.2-0.5,0.3-0.7h7.8C86.9,79.7,86.1,81.8,84.7,83.7z M87.3,72.4h-7.8c-0.1-0.2-0.2-0.5-0.3-0.7
				l5.5-5.5C86.1,68.1,86.9,70.2,87.3,72.4z M252.4,59.1c-8.8,0-15.9,7.1-15.9,15.9s7.1,15.9,15.9,15.9s15.9-7.1,15.9-15.9
				S261.1,59.1,252.4,59.1L252.4,59.1z M254.9,60.1c2.2,0.4,4.3,1.3,6.2,2.6l-5.5,5.5c-0.2-0.1-0.4-0.2-0.7-0.3L254.9,60.1
				L254.9,60.1z M258.4,75c0,0.5-0.4,1-1,1c-0.5,0-1-0.4-1-1s0.4-1,1-1S258.4,74.4,258.4,75L258.4,75z M252.4,68.9c0.5,0,1,0.4,1,1
				c0,0.5-0.4,1-1,1s-1-0.4-1-1S251.8,68.9,252.4,68.9z M240.1,66.2l5.5,5.5c-0.1,0.2-0.2,0.5-0.3,0.7h-7.8
				C237.9,70.2,238.8,68.1,240.1,66.2L240.1,66.2z M240.1,83.7c-1.3-1.8-2.2-3.9-2.6-6.2h7.8c0.1,0.2,0.2,0.5,0.3,0.7L240.1,83.7z
				 M249.8,89.8c-2.2-0.4-4.3-1.3-6.2-2.6l5.5-5.5c0.2,0.1,0.5,0.2,0.7,0.3V89.8z M246.3,74.9c0-0.5,0.4-1,1-1s1,0.4,1,1s-0.4,1-1,1
				C246.8,75.9,246.4,75.5,246.3,74.9L246.3,74.9z M249.8,67.9c-0.2,0.1-0.5,0.2-0.7,0.3l-5.5-5.5c1.8-1.3,3.9-2.2,6.2-2.6V67.9z
				 M252.4,81c-0.5,0.1-1.1-0.2-1.2-0.7c-0.1-0.5,0.2-1.1,0.7-1.2c0.2,0,0.4,0,0.5,0c0.5,0.1,0.8,0.7,0.7,1.2
				C253,80.7,252.7,81,252.4,81z M252.4,77.2c-1.3,0-2.3-1-2.3-2.3s1-2.3,2.3-2.3s2.3,1,2.3,2.3l0,0
				C254.6,76.2,253.6,77.2,252.4,77.2L252.4,77.2z M254.9,89.8V82c0.2-0.1,0.5-0.2,0.7-0.3l5.5,5.5
				C259.2,88.6,257.1,89.4,254.9,89.8L254.9,89.8z M264.7,83.7l-5.5-5.5c0.1-0.2,0.2-0.5,0.3-0.7h7.7
				C266.8,79.7,266,81.8,264.7,83.7L264.7,83.7z M267.2,72.4h-7.8c-0.1-0.2-0.2-0.5-0.3-0.7l5.5-5.5
				C265.9,68.1,266.8,70.2,267.2,72.4z"/>
		</g>
	</g>
</g>
</svg>
