<svg width="677" height="231" viewBox="0 0 677 231" fill="none" xmlns="http://www.w3.org/2000/svg">
<path d="M7.616 154.228C7.616 154.695 7.49933 155.133 7.266 155.544C7.042 155.955 6.706 156.3 6.258 156.58C5.81933 156.86 5.29667 157.028 4.69 157.084V158.218H3.78V157.084C2.90267 157 2.19333 156.725 1.652 156.258C1.11067 155.791 0.84 155.175 0.84 154.41H2.548C2.576 154.774 2.69267 155.077 2.898 155.32C3.10333 155.553 3.39733 155.703 3.78 155.768V152.688C3.15467 152.529 2.646 152.371 2.254 152.212C1.862 152.044 1.526 151.783 1.246 151.428C0.975333 151.073 0.84 150.588 0.84 149.972C0.84 149.197 1.11067 148.558 1.652 148.054C2.19333 147.541 2.90267 147.242 3.78 147.158V146.024H4.69V147.158C5.51133 147.233 6.16933 147.494 6.664 147.942C7.168 148.381 7.45267 148.987 7.518 149.762H5.81C5.782 149.473 5.67 149.216 5.474 148.992C5.278 148.759 5.01667 148.6 4.69 148.516V151.54C5.31533 151.689 5.824 151.848 6.216 152.016C6.608 152.175 6.93933 152.431 7.21 152.786C7.48067 153.131 7.616 153.612 7.616 154.228ZM2.464 149.888C2.464 150.271 2.576 150.569 2.8 150.784C3.03333 150.999 3.36 151.171 3.78 151.302V148.474C3.37867 148.521 3.05667 148.665 2.814 148.908C2.58067 149.151 2.464 149.477 2.464 149.888ZM4.69 155.768C5.10067 155.703 5.42267 155.539 5.656 155.278C5.88933 155.007 6.006 154.685 6.006 154.312C6.006 153.939 5.88933 153.649 5.656 153.444C5.432 153.229 5.11 153.057 4.69 152.926V155.768ZM13.3722 148.25V146.794H16.2842V157H14.6742V148.25H13.3722ZM19.3307 157.098C19.0414 157.098 18.7987 157 18.6027 156.804C18.4067 156.608 18.3087 156.365 18.3087 156.076C18.3087 155.787 18.4067 155.544 18.6027 155.348C18.7987 155.152 19.0414 155.054 19.3307 155.054C19.6107 155.054 19.8487 155.152 20.0447 155.348C20.2407 155.544 20.3387 155.787 20.3387 156.076C20.3387 156.365 20.2407 156.608 20.0447 156.804C19.8487 157 19.6107 157.098 19.3307 157.098ZM21.8537 151.764C21.8537 150.149 22.1243 148.889 22.6657 147.984C23.2163 147.069 24.159 146.612 25.4937 146.612C26.8283 146.612 27.7663 147.069 28.3077 147.984C28.8583 148.889 29.1337 150.149 29.1337 151.764C29.1337 153.397 28.8583 154.676 28.3077 155.6C27.7663 156.515 26.8283 156.972 25.4937 156.972C24.159 156.972 23.2163 156.515 22.6657 155.6C22.1243 154.676 21.8537 153.397 21.8537 151.764ZM27.5657 151.764C27.5657 151.008 27.5143 150.369 27.4117 149.846C27.3183 149.323 27.1223 148.899 26.8237 148.572C26.525 148.236 26.0817 148.068 25.4937 148.068C24.9057 148.068 24.4623 148.236 24.1637 148.572C23.865 148.899 23.6643 149.323 23.5617 149.846C23.4683 150.369 23.4217 151.008 23.4217 151.764C23.4217 152.548 23.4683 153.206 23.5617 153.738C23.655 154.27 23.851 154.699 24.1497 155.026C24.4577 155.353 24.9057 155.516 25.4937 155.516C26.0817 155.516 26.525 155.353 26.8237 155.026C27.1317 154.699 27.3323 154.27 27.4257 153.738C27.519 153.206 27.5657 152.548 27.5657 151.764ZM41.2804 147.27V157H39.6844V150.336L36.7164 157H35.6104L32.6284 150.336V157H31.0324V147.27H32.7544L36.1704 154.9L39.5724 147.27H41.2804Z" fill="#646A83"/>
<path d="M7.616 110.228C7.616 110.695 7.49933 111.133 7.266 111.544C7.042 111.955 6.706 112.3 6.258 112.58C5.81933 112.86 5.29667 113.028 4.69 113.084V114.218H3.78V113.084C2.90267 113 2.19333 112.725 1.652 112.258C1.11067 111.791 0.84 111.175 0.84 110.41H2.548C2.576 110.774 2.69267 111.077 2.898 111.32C3.10333 111.553 3.39733 111.703 3.78 111.768V108.688C3.15467 108.529 2.646 108.371 2.254 108.212C1.862 108.044 1.526 107.783 1.246 107.428C0.975333 107.073 0.84 106.588 0.84 105.972C0.84 105.197 1.11067 104.558 1.652 104.054C2.19333 103.541 2.90267 103.242 3.78 103.158V102.024H4.69V103.158C5.51133 103.233 6.16933 103.494 6.664 103.942C7.168 104.381 7.45267 104.987 7.518 105.762H5.81C5.782 105.473 5.67 105.216 5.474 104.992C5.278 104.759 5.01667 104.6 4.69 104.516V107.54C5.31533 107.689 5.824 107.848 6.216 108.016C6.608 108.175 6.93933 108.431 7.21 108.786C7.48067 109.131 7.616 109.612 7.616 110.228ZM2.464 105.888C2.464 106.271 2.576 106.569 2.8 106.784C3.03333 106.999 3.36 107.171 3.78 107.302V104.474C3.37867 104.521 3.05667 104.665 2.814 104.908C2.58067 105.151 2.464 105.477 2.464 105.888ZM4.69 111.768C5.10067 111.703 5.42267 111.539 5.656 111.278C5.88933 111.007 6.006 110.685 6.006 110.312C6.006 109.939 5.88933 109.649 5.656 109.444C5.432 109.229 5.11 109.057 4.69 108.926V111.768ZM13.3722 104.25V102.794H16.2842V113H14.6742V104.25H13.3722ZM19.3307 113.098C19.0414 113.098 18.7987 113 18.6027 112.804C18.4067 112.608 18.3087 112.365 18.3087 112.076C18.3087 111.787 18.4067 111.544 18.6027 111.348C18.7987 111.152 19.0414 111.054 19.3307 111.054C19.6107 111.054 19.8487 111.152 20.0447 111.348C20.2407 111.544 20.3387 111.787 20.3387 112.076C20.3387 112.365 20.2407 112.608 20.0447 112.804C19.8487 113 19.6107 113.098 19.3307 113.098ZM28.4337 104.166H23.7437V106.952C23.9397 106.691 24.229 106.471 24.6117 106.294C25.0037 106.117 25.419 106.028 25.8577 106.028C26.6417 106.028 27.2763 106.196 27.7617 106.532C28.2563 106.868 28.6063 107.293 28.8117 107.806C29.0263 108.319 29.1337 108.861 29.1337 109.43C29.1337 110.121 28.9983 110.737 28.7277 111.278C28.4663 111.81 28.0697 112.23 27.5377 112.538C27.015 112.846 26.371 113 25.6057 113C24.5883 113 23.7717 112.748 23.1557 112.244C22.5397 111.74 22.171 111.073 22.0497 110.242H23.6037C23.7063 110.681 23.935 111.031 24.2897 111.292C24.6443 111.544 25.0877 111.67 25.6197 111.67C26.2823 111.67 26.777 111.469 27.1037 111.068C27.4397 110.667 27.6077 110.135 27.6077 109.472C27.6077 108.8 27.4397 108.287 27.1037 107.932C26.7677 107.568 26.273 107.386 25.6197 107.386C25.1623 107.386 24.775 107.503 24.4577 107.736C24.1497 107.96 23.9257 108.268 23.7857 108.66H22.2737V102.766H28.4337V104.166ZM41.2531 103.27V113H39.6571V106.336L36.6891 113H35.5831L32.6011 106.336V113H31.0051V103.27H32.7271L36.1431 110.9L39.5451 103.27H41.2531Z" fill="#646A83"/>
<path d="M7.616 60.228C7.616 60.6947 7.49933 61.1333 7.266 61.544C7.042 61.9547 6.706 62.3 6.258 62.58C5.81933 62.86 5.29667 63.028 4.69 63.084V64.218H3.78V63.084C2.90267 63 2.19333 62.7247 1.652 62.258C1.11067 61.7913 0.84 61.1753 0.84 60.41H2.548C2.576 60.774 2.69267 61.0773 2.898 61.32C3.10333 61.5533 3.39733 61.7027 3.78 61.768V58.688C3.15467 58.5293 2.646 58.3707 2.254 58.212C1.862 58.044 1.526 57.7827 1.246 57.428C0.975333 57.0733 0.84 56.588 0.84 55.972C0.84 55.1973 1.11067 54.558 1.652 54.054C2.19333 53.5407 2.90267 53.242 3.78 53.158V52.024H4.69V53.158C5.51133 53.2327 6.16933 53.494 6.664 53.942C7.168 54.3807 7.45267 54.9873 7.518 55.762H5.81C5.782 55.4727 5.67 55.216 5.474 54.992C5.278 54.7587 5.01667 54.6 4.69 54.516V57.54C5.31533 57.6893 5.824 57.848 6.216 58.016C6.608 58.1747 6.93933 58.4313 7.21 58.786C7.48067 59.1313 7.616 59.612 7.616 60.228ZM2.464 55.888C2.464 56.2707 2.576 56.5693 2.8 56.784C3.03333 56.9987 3.36 57.1713 3.78 57.302V54.474C3.37867 54.5207 3.05667 54.6653 2.814 54.908C2.58067 55.1507 2.464 55.4773 2.464 55.888ZM4.69 61.768C5.10067 61.7027 5.42267 61.5393 5.656 61.278C5.88933 61.0073 6.006 60.6853 6.006 60.312C6.006 59.9387 5.88933 59.6493 5.656 59.444C5.432 59.2293 5.11 59.0567 4.69 58.926V61.768ZM14.4642 60.83C15.3602 60.0553 16.0649 59.4207 16.5782 58.926C17.1009 58.422 17.5349 57.8993 17.8802 57.358C18.2255 56.8167 18.3982 56.2753 18.3982 55.734C18.3982 55.174 18.2629 54.7353 17.9922 54.418C17.7309 54.1007 17.3155 53.942 16.7462 53.942C16.1955 53.942 15.7662 54.1193 15.4582 54.474C15.1595 54.8193 15.0009 55.286 14.9822 55.874H13.4422C13.4702 54.81 13.7875 53.998 14.3942 53.438C15.0102 52.8687 15.7895 52.584 16.7322 52.584C17.7495 52.584 18.5429 52.864 19.1122 53.424C19.6909 53.984 19.9802 54.7307 19.9802 55.664C19.9802 56.336 19.8075 56.9847 19.4622 57.61C19.1262 58.226 18.7202 58.7813 18.2442 59.276C17.7775 59.7613 17.1802 60.326 16.4522 60.97L15.8222 61.53H20.2602V62.86H13.4562V61.698L14.4642 60.83ZM22.5163 63.098C22.2269 63.098 21.9843 63 21.7883 62.804C21.5923 62.608 21.4943 62.3653 21.4943 62.076C21.4943 61.7867 21.5923 61.544 21.7883 61.348C21.9843 61.152 22.2269 61.054 22.5163 61.054C22.7963 61.054 23.0343 61.152 23.2303 61.348C23.4263 61.544 23.5243 61.7867 23.5243 62.076C23.5243 62.3653 23.4263 62.608 23.2303 62.804C23.0343 63 22.7963 63.098 22.5163 63.098ZM25.0392 57.764C25.0392 56.1493 25.3099 54.8893 25.8512 53.984C26.4019 53.0693 27.3446 52.612 28.6792 52.612C30.0139 52.612 30.9519 53.0693 31.4932 53.984C32.0439 54.8893 32.3192 56.1493 32.3192 57.764C32.3192 59.3973 32.0439 60.676 31.4932 61.6C30.9519 62.5147 30.0139 62.972 28.6792 62.972C27.3446 62.972 26.4019 62.5147 25.8512 61.6C25.3099 60.676 25.0392 59.3973 25.0392 57.764ZM30.7512 57.764C30.7512 57.008 30.6999 56.3687 30.5972 55.846C30.5039 55.3233 30.3079 54.8987 30.0092 54.572C29.7106 54.236 29.2672 54.068 28.6792 54.068C28.0912 54.068 27.6479 54.236 27.3492 54.572C27.0506 54.8987 26.8499 55.3233 26.7472 55.846C26.6539 56.3687 26.6072 57.008 26.6072 57.764C26.6072 58.548 26.6539 59.206 26.7472 59.738C26.8406 60.27 27.0366 60.6993 27.3352 61.026C27.6432 61.3527 28.0912 61.516 28.6792 61.516C29.2672 61.516 29.7106 61.3527 30.0092 61.026C30.3172 60.6993 30.5179 60.27 30.6112 59.738C30.7046 59.206 30.7512 58.548 30.7512 57.764ZM44.466 53.27V63H42.87V56.336L39.902 63H38.796L35.814 56.336V63H34.218V53.27H35.94L39.356 60.9L42.758 53.27H44.466Z" fill="#646A83"/>
<path d="M7.616 13.228C7.616 13.6947 7.49933 14.1333 7.266 14.544C7.042 14.9547 6.706 15.3 6.258 15.58C5.81933 15.86 5.29667 16.028 4.69 16.084V17.218H3.78V16.084C2.90267 16 2.19333 15.7247 1.652 15.258C1.11067 14.7913 0.84 14.1753 0.84 13.41H2.548C2.576 13.774 2.69267 14.0773 2.898 14.32C3.10333 14.5533 3.39733 14.7027 3.78 14.768V11.688C3.15467 11.5293 2.646 11.3707 2.254 11.212C1.862 11.044 1.526 10.7827 1.246 10.428C0.975333 10.0733 0.84 9.588 0.84 8.972C0.84 8.19733 1.11067 7.558 1.652 7.054C2.19333 6.54067 2.90267 6.242 3.78 6.158V5.024H4.69V6.158C5.51133 6.23267 6.16933 6.494 6.664 6.942C7.168 7.38067 7.45267 7.98733 7.518 8.762H5.81C5.782 8.47267 5.67 8.216 5.474 7.992C5.278 7.75867 5.01667 7.6 4.69 7.516V10.54C5.31533 10.6893 5.824 10.848 6.216 11.016C6.608 11.1747 6.93933 11.4313 7.21 11.786C7.48067 12.1313 7.616 12.612 7.616 13.228ZM2.464 8.888C2.464 9.27067 2.576 9.56933 2.8 9.784C3.03333 9.99867 3.36 10.1713 3.78 10.302V7.474C3.37867 7.52067 3.05667 7.66533 2.814 7.908C2.58067 8.15067 2.464 8.47733 2.464 8.888ZM4.69 14.768C5.10067 14.7027 5.42267 14.5393 5.656 14.278C5.88933 14.0073 6.006 13.6853 6.006 13.312C6.006 12.9387 5.88933 12.6493 5.656 12.444C5.432 12.2293 5.11 12.0567 4.69 11.926V14.768ZM14.4642 13.83C15.3602 13.0553 16.0649 12.4207 16.5782 11.926C17.1009 11.422 17.5349 10.8993 17.8802 10.358C18.2255 9.81667 18.3982 9.27533 18.3982 8.734C18.3982 8.174 18.2629 7.73533 17.9922 7.418C17.7309 7.10067 17.3155 6.942 16.7462 6.942C16.1955 6.942 15.7662 7.11933 15.4582 7.474C15.1595 7.81933 15.0009 8.286 14.9822 8.874H13.4422C13.4702 7.81 13.7875 6.998 14.3942 6.438C15.0102 5.86867 15.7895 5.584 16.7322 5.584C17.7495 5.584 18.5429 5.864 19.1122 6.424C19.6909 6.984 19.9802 7.73067 19.9802 8.664C19.9802 9.336 19.8075 9.98467 19.4622 10.61C19.1262 11.226 18.7202 11.7813 18.2442 12.276C17.7775 12.7613 17.1802 13.326 16.4522 13.97L15.8222 14.53H20.2602V15.86H13.4562V14.698L14.4642 13.83ZM22.5163 16.098C22.2269 16.098 21.9843 16 21.7883 15.804C21.5923 15.608 21.4943 15.3653 21.4943 15.076C21.4943 14.7867 21.5923 14.544 21.7883 14.348C21.9843 14.152 22.2269 14.054 22.5163 14.054C22.7963 14.054 23.0343 14.152 23.2303 14.348C23.4263 14.544 23.5243 14.7867 23.5243 15.076C23.5243 15.3653 23.4263 15.608 23.2303 15.804C23.0343 16 22.7963 16.098 22.5163 16.098ZM31.6192 7.166H26.9292V9.952C27.1252 9.69067 27.4146 9.47133 27.7972 9.294C28.1892 9.11667 28.6046 9.028 29.0432 9.028C29.8272 9.028 30.4619 9.196 30.9472 9.532C31.4419 9.868 31.7919 10.2927 31.9972 10.806C32.2119 11.3193 32.3192 11.8607 32.3192 12.43C32.3192 13.1207 32.1839 13.7367 31.9132 14.278C31.6519 14.81 31.2552 15.23 30.7232 15.538C30.2006 15.846 29.5566 16 28.7912 16C27.7739 16 26.9572 15.748 26.3412 15.244C25.7252 14.74 25.3566 14.0727 25.2352 13.242H26.7892C26.8919 13.6807 27.1206 14.0307 27.4752 14.292C27.8299 14.544 28.2732 14.67 28.8052 14.67C29.4679 14.67 29.9626 14.4693 30.2892 14.068C30.6252 13.6667 30.7932 13.1347 30.7932 12.472C30.7932 11.8 30.6252 11.2867 30.2892 10.932C29.9532 10.568 29.4586 10.386 28.8052 10.386C28.3479 10.386 27.9606 10.5027 27.6432 10.736C27.3352 10.96 27.1112 11.268 26.9712 11.66H25.4592V5.766H31.6192V7.166ZM44.4386 6.27V16H42.8426V9.336L39.8746 16H38.7686L35.7866 9.336V16H34.1906V6.27H35.9126L39.3286 13.9L42.7306 6.27H44.4386Z" fill="#646A83"/>
<path d="M148.72 214.27L145.836 224H144.03L141.986 216.636L139.816 224L138.024 224.014L135.266 214.27H136.96L138.976 222.194L141.16 214.27H142.952L144.982 222.152L147.012 214.27H148.72ZM157.106 219.954C157.106 220.243 157.088 220.505 157.05 220.738H151.156C151.203 221.354 151.432 221.849 151.842 222.222C152.253 222.595 152.757 222.782 153.354 222.782C154.213 222.782 154.82 222.423 155.174 221.704H156.896C156.663 222.413 156.238 222.997 155.622 223.454C155.016 223.902 154.26 224.126 153.354 224.126C152.617 224.126 151.954 223.963 151.366 223.636C150.788 223.3 150.33 222.833 149.994 222.236C149.668 221.629 149.504 220.929 149.504 220.136C149.504 219.343 149.663 218.647 149.98 218.05C150.307 217.443 150.76 216.977 151.338 216.65C151.926 216.323 152.598 216.16 153.354 216.16C154.082 216.16 154.731 216.319 155.3 216.636C155.87 216.953 156.313 217.401 156.63 217.98C156.948 218.549 157.106 219.207 157.106 219.954ZM155.44 219.45C155.431 218.862 155.221 218.391 154.81 218.036C154.4 217.681 153.891 217.504 153.284 217.504C152.734 217.504 152.262 217.681 151.87 218.036C151.478 218.381 151.245 218.853 151.17 219.45H155.44ZM165.747 219.954C165.747 220.243 165.728 220.505 165.691 220.738H159.797C159.844 221.354 160.072 221.849 160.483 222.222C160.894 222.595 161.398 222.782 161.995 222.782C162.854 222.782 163.46 222.423 163.815 221.704H165.537C165.304 222.413 164.879 222.997 164.263 223.454C163.656 223.902 162.9 224.126 161.995 224.126C161.258 224.126 160.595 223.963 160.007 223.636C159.428 223.3 158.971 222.833 158.635 222.236C158.308 221.629 158.145 220.929 158.145 220.136C158.145 219.343 158.304 218.647 158.621 218.05C158.948 217.443 159.4 216.977 159.979 216.65C160.567 216.323 161.239 216.16 161.995 216.16C162.723 216.16 163.372 216.319 163.941 216.636C164.51 216.953 164.954 217.401 165.271 217.98C165.588 218.549 165.747 219.207 165.747 219.954ZM164.081 219.45C164.072 218.862 163.862 218.391 163.451 218.036C163.04 217.681 162.532 217.504 161.925 217.504C161.374 217.504 160.903 217.681 160.511 218.036C160.119 218.381 159.886 218.853 159.811 219.45H164.081ZM170.37 220.15L173.926 224H171.77L168.914 220.682V224H167.318V213.64H168.914V219.66L171.714 216.286H173.926L170.37 220.15ZM178.286 215.25V213.794H181.198V224H179.588V215.25H178.286Z" fill="#646A83"/>
<path d="M263.72 214.27L260.836 224H259.03L256.986 216.636L254.816 224L253.024 224.014L250.266 214.27H251.96L253.976 222.194L256.16 214.27H257.952L259.982 222.152L262.012 214.27H263.72ZM272.106 219.954C272.106 220.243 272.088 220.505 272.05 220.738H266.156C266.203 221.354 266.432 221.849 266.842 222.222C267.253 222.595 267.757 222.782 268.354 222.782C269.213 222.782 269.82 222.423 270.174 221.704H271.896C271.663 222.413 271.238 222.997 270.622 223.454C270.016 223.902 269.26 224.126 268.354 224.126C267.617 224.126 266.954 223.963 266.366 223.636C265.788 223.3 265.33 222.833 264.994 222.236C264.668 221.629 264.504 220.929 264.504 220.136C264.504 219.343 264.663 218.647 264.98 218.05C265.307 217.443 265.76 216.977 266.338 216.65C266.926 216.323 267.598 216.16 268.354 216.16C269.082 216.16 269.731 216.319 270.3 216.636C270.87 216.953 271.313 217.401 271.63 217.98C271.948 218.549 272.106 219.207 272.106 219.954ZM270.44 219.45C270.431 218.862 270.221 218.391 269.81 218.036C269.4 217.681 268.891 217.504 268.284 217.504C267.734 217.504 267.262 217.681 266.87 218.036C266.478 218.381 266.245 218.853 266.17 219.45H270.44ZM280.747 219.954C280.747 220.243 280.728 220.505 280.691 220.738H274.797C274.844 221.354 275.072 221.849 275.483 222.222C275.894 222.595 276.398 222.782 276.995 222.782C277.854 222.782 278.46 222.423 278.815 221.704H280.537C280.304 222.413 279.879 222.997 279.263 223.454C278.656 223.902 277.9 224.126 276.995 224.126C276.258 224.126 275.595 223.963 275.007 223.636C274.428 223.3 273.971 222.833 273.635 222.236C273.308 221.629 273.145 220.929 273.145 220.136C273.145 219.343 273.304 218.647 273.621 218.05C273.948 217.443 274.4 216.977 274.979 216.65C275.567 216.323 276.239 216.16 276.995 216.16C277.723 216.16 278.372 216.319 278.941 216.636C279.51 216.953 279.954 217.401 280.271 217.98C280.588 218.549 280.747 219.207 280.747 219.954ZM279.081 219.45C279.072 218.862 278.862 218.391 278.451 218.036C278.04 217.681 277.532 217.504 276.925 217.504C276.374 217.504 275.903 217.681 275.511 218.036C275.119 218.381 274.886 218.853 274.811 219.45H279.081ZM285.37 220.15L288.926 224H286.77L283.914 220.682V224H282.318V213.64H283.914V219.66L286.714 216.286H288.926L285.37 220.15ZM294.378 221.83C295.274 221.055 295.979 220.421 296.492 219.926C297.015 219.422 297.449 218.899 297.794 218.358C298.14 217.817 298.312 217.275 298.312 216.734C298.312 216.174 298.177 215.735 297.906 215.418C297.645 215.101 297.23 214.942 296.66 214.942C296.11 214.942 295.68 215.119 295.372 215.474C295.074 215.819 294.915 216.286 294.896 216.874H293.356C293.384 215.81 293.702 214.998 294.308 214.438C294.924 213.869 295.704 213.584 296.646 213.584C297.664 213.584 298.457 213.864 299.026 214.424C299.605 214.984 299.894 215.731 299.894 216.664C299.894 217.336 299.722 217.985 299.376 218.61C299.04 219.226 298.634 219.781 298.158 220.276C297.692 220.761 297.094 221.326 296.366 221.97L295.736 222.53H300.174V223.86H293.37V222.698L294.378 221.83Z" fill="#646A83"/>
<path d="M379.72 214.27L376.836 224H375.03L372.986 216.636L370.816 224L369.024 224.014L366.266 214.27H367.96L369.976 222.194L372.16 214.27H373.952L375.982 222.152L378.012 214.27H379.72ZM388.106 219.954C388.106 220.243 388.088 220.505 388.05 220.738H382.156C382.203 221.354 382.432 221.849 382.842 222.222C383.253 222.595 383.757 222.782 384.354 222.782C385.213 222.782 385.82 222.423 386.174 221.704H387.896C387.663 222.413 387.238 222.997 386.622 223.454C386.016 223.902 385.26 224.126 384.354 224.126C383.617 224.126 382.954 223.963 382.366 223.636C381.788 223.3 381.33 222.833 380.994 222.236C380.668 221.629 380.504 220.929 380.504 220.136C380.504 219.343 380.663 218.647 380.98 218.05C381.307 217.443 381.76 216.977 382.338 216.65C382.926 216.323 383.598 216.16 384.354 216.16C385.082 216.16 385.731 216.319 386.3 216.636C386.87 216.953 387.313 217.401 387.63 217.98C387.948 218.549 388.106 219.207 388.106 219.954ZM386.44 219.45C386.431 218.862 386.221 218.391 385.81 218.036C385.4 217.681 384.891 217.504 384.284 217.504C383.734 217.504 383.262 217.681 382.87 218.036C382.478 218.381 382.245 218.853 382.17 219.45H386.44ZM396.747 219.954C396.747 220.243 396.728 220.505 396.691 220.738H390.797C390.844 221.354 391.072 221.849 391.483 222.222C391.894 222.595 392.398 222.782 392.995 222.782C393.854 222.782 394.46 222.423 394.815 221.704H396.537C396.304 222.413 395.879 222.997 395.263 223.454C394.656 223.902 393.9 224.126 392.995 224.126C392.258 224.126 391.595 223.963 391.007 223.636C390.428 223.3 389.971 222.833 389.635 222.236C389.308 221.629 389.145 220.929 389.145 220.136C389.145 219.343 389.304 218.647 389.621 218.05C389.948 217.443 390.4 216.977 390.979 216.65C391.567 216.323 392.239 216.16 392.995 216.16C393.723 216.16 394.372 216.319 394.941 216.636C395.51 216.953 395.954 217.401 396.271 217.98C396.588 218.549 396.747 219.207 396.747 219.954ZM395.081 219.45C395.072 218.862 394.862 218.391 394.451 218.036C394.04 217.681 393.532 217.504 392.925 217.504C392.374 217.504 391.903 217.681 391.511 218.036C391.119 218.381 390.886 218.853 390.811 219.45H395.081ZM401.37 220.15L404.926 224H402.77L399.914 220.682V224H398.318V213.64H399.914V219.66L402.714 216.286H404.926L401.37 220.15ZM409.468 216.314C409.524 215.446 409.856 214.769 410.462 214.284C411.078 213.799 411.862 213.556 412.814 213.556C413.468 213.556 414.032 213.673 414.508 213.906C414.984 214.139 415.344 214.457 415.586 214.858C415.829 215.259 415.95 215.712 415.95 216.216C415.95 216.795 415.796 217.289 415.488 217.7C415.18 218.111 414.812 218.386 414.382 218.526V218.582C414.933 218.75 415.362 219.058 415.67 219.506C415.978 219.945 416.132 220.509 416.132 221.2C416.132 221.751 416.006 222.241 415.754 222.67C415.502 223.099 415.129 223.44 414.634 223.692C414.14 223.935 413.547 224.056 412.856 224.056C411.848 224.056 411.018 223.799 410.364 223.286C409.72 222.763 409.375 222.017 409.328 221.046H410.868C410.906 221.541 411.097 221.947 411.442 222.264C411.788 222.572 412.254 222.726 412.842 222.726C413.412 222.726 413.85 222.572 414.158 222.264C414.466 221.947 414.62 221.541 414.62 221.046C414.62 220.393 414.41 219.931 413.99 219.66C413.58 219.38 412.945 219.24 412.086 219.24H411.722V217.924H412.1C412.856 217.915 413.43 217.789 413.822 217.546C414.224 217.303 414.424 216.921 414.424 216.398C414.424 215.95 414.28 215.595 413.99 215.334C413.701 215.063 413.29 214.928 412.758 214.928C412.236 214.928 411.83 215.063 411.54 215.334C411.251 215.595 411.078 215.922 411.022 216.314H409.468Z" fill="#646A83"/>
<path d="M494.72 214.27L491.836 224H490.03L487.986 216.636L485.816 224L484.024 224.014L481.266 214.27H482.96L484.976 222.194L487.16 214.27H488.952L490.982 222.152L493.012 214.27H494.72ZM503.106 219.954C503.106 220.243 503.088 220.505 503.05 220.738H497.156C497.203 221.354 497.432 221.849 497.842 222.222C498.253 222.595 498.757 222.782 499.354 222.782C500.213 222.782 500.82 222.423 501.174 221.704H502.896C502.663 222.413 502.238 222.997 501.622 223.454C501.016 223.902 500.26 224.126 499.354 224.126C498.617 224.126 497.954 223.963 497.366 223.636C496.788 223.3 496.33 222.833 495.994 222.236C495.668 221.629 495.504 220.929 495.504 220.136C495.504 219.343 495.663 218.647 495.98 218.05C496.307 217.443 496.76 216.977 497.338 216.65C497.926 216.323 498.598 216.16 499.354 216.16C500.082 216.16 500.731 216.319 501.3 216.636C501.87 216.953 502.313 217.401 502.63 217.98C502.948 218.549 503.106 219.207 503.106 219.954ZM501.44 219.45C501.431 218.862 501.221 218.391 500.81 218.036C500.4 217.681 499.891 217.504 499.284 217.504C498.734 217.504 498.262 217.681 497.87 218.036C497.478 218.381 497.245 218.853 497.17 219.45H501.44ZM511.747 219.954C511.747 220.243 511.728 220.505 511.691 220.738H505.797C505.844 221.354 506.072 221.849 506.483 222.222C506.894 222.595 507.398 222.782 507.995 222.782C508.854 222.782 509.46 222.423 509.815 221.704H511.537C511.304 222.413 510.879 222.997 510.263 223.454C509.656 223.902 508.9 224.126 507.995 224.126C507.258 224.126 506.595 223.963 506.007 223.636C505.428 223.3 504.971 222.833 504.635 222.236C504.308 221.629 504.145 220.929 504.145 220.136C504.145 219.343 504.304 218.647 504.621 218.05C504.948 217.443 505.4 216.977 505.979 216.65C506.567 216.323 507.239 216.16 507.995 216.16C508.723 216.16 509.372 216.319 509.941 216.636C510.51 216.953 510.954 217.401 511.271 217.98C511.588 218.549 511.747 219.207 511.747 219.954ZM510.081 219.45C510.072 218.862 509.862 218.391 509.451 218.036C509.04 217.681 508.532 217.504 507.925 217.504C507.374 217.504 506.903 217.681 506.511 218.036C506.119 218.381 505.886 218.853 505.811 219.45H510.081ZM516.37 220.15L519.926 224H517.77L514.914 220.682V224H513.318V213.64H514.914V219.66L517.714 216.286H519.926L516.37 220.15ZM524.3 221.872V220.668L529.004 213.92H530.936V220.486H532.238V221.872H530.936V224H529.368V221.872H524.3ZM529.438 215.544L526.134 220.486H529.438V215.544Z" fill="#646A83"/>
<path d="M610.72 214.27L607.836 224H606.03L603.986 216.636L601.816 224L600.024 224.014L597.266 214.27H598.96L600.976 222.194L603.16 214.27H604.952L606.982 222.152L609.012 214.27H610.72ZM619.106 219.954C619.106 220.243 619.088 220.505 619.05 220.738H613.156C613.203 221.354 613.432 221.849 613.842 222.222C614.253 222.595 614.757 222.782 615.354 222.782C616.213 222.782 616.82 222.423 617.174 221.704H618.896C618.663 222.413 618.238 222.997 617.622 223.454C617.016 223.902 616.26 224.126 615.354 224.126C614.617 224.126 613.954 223.963 613.366 223.636C612.788 223.3 612.33 222.833 611.994 222.236C611.668 221.629 611.504 220.929 611.504 220.136C611.504 219.343 611.663 218.647 611.98 218.05C612.307 217.443 612.76 216.977 613.338 216.65C613.926 216.323 614.598 216.16 615.354 216.16C616.082 216.16 616.731 216.319 617.3 216.636C617.87 216.953 618.313 217.401 618.63 217.98C618.948 218.549 619.106 219.207 619.106 219.954ZM617.44 219.45C617.431 218.862 617.221 218.391 616.81 218.036C616.4 217.681 615.891 217.504 615.284 217.504C614.734 217.504 614.262 217.681 613.87 218.036C613.478 218.381 613.245 218.853 613.17 219.45H617.44ZM627.747 219.954C627.747 220.243 627.728 220.505 627.691 220.738H621.797C621.844 221.354 622.072 221.849 622.483 222.222C622.894 222.595 623.398 222.782 623.995 222.782C624.854 222.782 625.46 222.423 625.815 221.704H627.537C627.304 222.413 626.879 222.997 626.263 223.454C625.656 223.902 624.9 224.126 623.995 224.126C623.258 224.126 622.595 223.963 622.007 223.636C621.428 223.3 620.971 222.833 620.635 222.236C620.308 221.629 620.145 220.929 620.145 220.136C620.145 219.343 620.304 218.647 620.621 218.05C620.948 217.443 621.4 216.977 621.979 216.65C622.567 216.323 623.239 216.16 623.995 216.16C624.723 216.16 625.372 216.319 625.941 216.636C626.51 216.953 626.954 217.401 627.271 217.98C627.588 218.549 627.747 219.207 627.747 219.954ZM626.081 219.45C626.072 218.862 625.862 218.391 625.451 218.036C625.04 217.681 624.532 217.504 623.925 217.504C623.374 217.504 622.903 217.681 622.511 218.036C622.119 218.381 621.886 218.853 621.811 219.45H626.081ZM632.37 220.15L635.926 224H633.77L630.914 220.682V224H629.318V213.64H630.914V219.66L633.714 216.286H635.926L632.37 220.15ZM647.076 215.166H642.386V217.952C642.582 217.691 642.872 217.471 643.254 217.294C643.646 217.117 644.062 217.028 644.5 217.028C645.284 217.028 645.919 217.196 646.404 217.532C646.899 217.868 647.249 218.293 647.454 218.806C647.669 219.319 647.776 219.861 647.776 220.43C647.776 221.121 647.641 221.737 647.37 222.278C647.109 222.81 646.712 223.23 646.18 223.538C645.658 223.846 645.014 224 644.248 224C643.231 224 642.414 223.748 641.798 223.244C641.182 222.74 640.814 222.073 640.692 221.242H642.246C642.349 221.681 642.578 222.031 642.932 222.292C643.287 222.544 643.73 222.67 644.262 222.67C644.925 222.67 645.42 222.469 645.746 222.068C646.082 221.667 646.25 221.135 646.25 220.472C646.25 219.8 646.082 219.287 645.746 218.932C645.41 218.568 644.916 218.386 644.262 218.386C643.805 218.386 643.418 218.503 643.1 218.736C642.792 218.96 642.568 219.268 642.428 219.66H640.916V213.766H647.076V215.166Z" fill="#646A83"/>
<path d="M677 197L61 197" stroke="#CED4ED"/>
<path d="M677 153L62 153" stroke="#EBEDF4" stroke-dasharray="5 5"/>
<path d="M677 106L62 106" stroke="#EBEDF4" stroke-dasharray="5 5"/>
<path d="M677 59.0001L62 58.9999" stroke="#EBEDF4" stroke-dasharray="5 5"/>
<path d="M677 12.0001L62 12" stroke="#EBEDF4" stroke-dasharray="5 5"/>
<path d="M62.0005 0L62.0001 197" stroke="#CED4ED"/>
<path d="M158 0L158 197" stroke="#EBEDF4" stroke-dasharray="5 5"/>
<path d="M623 0L623 197" stroke="#EBEDF4" stroke-dasharray="5 5"/>
<path d="M391 0L391 197" stroke="#EBEDF4" stroke-dasharray="5 5"/>
<path d="M275 0L275 197" stroke="#EBEDF4" stroke-dasharray="5 5"/>
<path d="M507 0L507 197" stroke="#EBEDF4" stroke-dasharray="5 5"/>
<path opacity="0.2" d="M193.15 120.34C131.5 115 81.7542 171.949 63 196V197H507V59.7111C430.5 10.4999 376.5 59.5 348 85.5C319.5 111.5 266.844 126.722 193.15 120.34Z" fill="url(#paint0_linear)"/>
<path d="M145 130C145 126.686 147.686 124 151 124H165C168.314 124 171 126.686 171 130V197H145V130Z" fill="#7A3EFB"/>
<path d="M262 124C262 120.686 264.686 118 268 118H282C285.314 118 288 120.686 288 124V197H262V124Z" fill="#7A3EFB"/>
<path d="M379 58C379 54.6863 381.686 52 385 52H399C402.314 52 405 54.6863 405 58V197H379V58Z" fill="#7A3EFB"/>
<path d="M494 65C494 61.6863 496.686 59 500 59H514C517.314 59 520 61.6863 520 65V197H494V65Z" fill="#7A3EFB"/>
<circle cx="158" cy="124" r="4.5" fill="#ECE3FE" stroke="white"/>
<circle cx="275" cy="118" r="4.5" fill="#ECE3FE" stroke="white"/>
<circle cx="507" cy="58" r="4.5" fill="#ECE3FE" stroke="white"/>
<circle cx="391" cy="52" r="4.5" fill="#ECE3FE" stroke="white"/>
<g filter="url(#filter0_d)">
<mask id="path-30-inside-1" fill="white">
<path fill-rule="evenodd" clip-rule="evenodd" d="M602 69C604.761 69 607 66.7614 607 64V42C607 39.2386 604.761 37 602 37H529.501C526.74 37 524.501 39.2386 524.501 42V48.1526L515 53.2782L524.501 58.4038V64C524.501 66.7614 526.74 69 529.501 69H602Z"/>
</mask>
<path fill-rule="evenodd" clip-rule="evenodd" d="M602 69C604.761 69 607 66.7614 607 64V42C607 39.2386 604.761 37 602 37H529.501C526.74 37 524.501 39.2386 524.501 42V48.1526L515 53.2782L524.501 58.4038V64C524.501 66.7614 526.74 69 529.501 69H602Z" fill="white"/>
<path d="M524.501 48.1526L524.976 49.0327L525.501 48.7493V48.1526H524.501ZM515 53.2782L514.525 52.3981L512.894 53.2782L514.525 54.1583L515 53.2782ZM524.501 58.4038H525.501V57.8071L524.976 57.5237L524.501 58.4038ZM606 64C606 66.2091 604.209 68 602 68V70C605.314 70 608 67.3137 608 64H606ZM606 42V64H608V42H606ZM602 38C604.209 38 606 39.7909 606 42H608C608 38.6863 605.314 36 602 36V38ZM529.501 38H602V36H529.501V38ZM525.501 42C525.501 39.7909 527.292 38 529.501 38V36C526.188 36 523.501 38.6863 523.501 42H525.501ZM525.501 48.1526V42H523.501V48.1526H525.501ZM515.475 54.1583L524.976 49.0327L524.027 47.2725L514.525 52.3981L515.475 54.1583ZM524.976 57.5237L515.475 52.3981L514.525 54.1583L524.027 59.2839L524.976 57.5237ZM525.501 64V58.4038H523.501V64H525.501ZM529.501 68C527.292 68 525.501 66.2091 525.501 64H523.501C523.501 67.3137 526.188 70 529.501 70V68ZM602 68H529.501V70H602V68Z" fill="#EBEDF4" mask="url(#path-30-inside-1)"/>
</g>
<path d="M540.616 55.228C540.616 55.6947 540.499 56.1333 540.266 56.544C540.042 56.9547 539.706 57.3 539.258 57.58C538.819 57.86 538.297 58.028 537.69 58.084V59.218H536.78V58.084C535.903 58 535.193 57.7247 534.652 57.258C534.111 56.7913 533.84 56.1753 533.84 55.41H535.548C535.576 55.774 535.693 56.0773 535.898 56.32C536.103 56.5533 536.397 56.7027 536.78 56.768V53.688C536.155 53.5293 535.646 53.3707 535.254 53.212C534.862 53.044 534.526 52.7827 534.246 52.428C533.975 52.0733 533.84 51.588 533.84 50.972C533.84 50.1973 534.111 49.558 534.652 49.054C535.193 48.5407 535.903 48.242 536.78 48.158V47.024H537.69V48.158C538.511 48.2327 539.169 48.494 539.664 48.942C540.168 49.3807 540.453 49.9873 540.518 50.762H538.81C538.782 50.4727 538.67 50.216 538.474 49.992C538.278 49.7587 538.017 49.6 537.69 49.516V52.54C538.315 52.6893 538.824 52.848 539.216 53.016C539.608 53.1747 539.939 53.4313 540.21 53.786C540.481 54.1313 540.616 54.612 540.616 55.228ZM535.464 50.888C535.464 51.2707 535.576 51.5693 535.8 51.784C536.033 51.9987 536.36 52.1713 536.78 52.302V49.474C536.379 49.5207 536.057 49.6653 535.814 49.908C535.581 50.1507 535.464 50.4773 535.464 50.888ZM537.69 56.768C538.101 56.7027 538.423 56.5393 538.656 56.278C538.889 56.0073 539.006 55.6853 539.006 55.312C539.006 54.9387 538.889 54.6493 538.656 54.444C538.432 54.2293 538.11 54.0567 537.69 53.926V56.768ZM542.735 49.25V47.794H545.647V58H544.037V49.25H542.735ZM549.828 55.228C549.921 55.6947 550.122 56.0493 550.43 56.292C550.738 56.5347 551.153 56.656 551.676 56.656C552.339 56.656 552.824 56.3947 553.132 55.872C553.44 55.3493 553.594 54.458 553.594 53.198C553.37 53.5153 553.053 53.7627 552.642 53.94C552.241 54.108 551.802 54.192 551.326 54.192C550.719 54.192 550.169 54.0707 549.674 53.828C549.179 53.576 548.787 53.2073 548.498 52.722C548.218 52.2273 548.078 51.63 548.078 50.93C548.078 49.9033 548.377 49.0867 548.974 48.48C549.581 47.864 550.411 47.556 551.466 47.556C552.735 47.556 553.636 47.9807 554.168 48.83C554.709 49.67 554.98 50.9627 554.98 52.708C554.98 53.912 554.877 54.8967 554.672 55.662C554.476 56.4273 554.131 57.006 553.636 57.398C553.141 57.79 552.455 57.986 551.578 57.986C550.579 57.986 549.809 57.7247 549.268 57.202C548.727 56.6793 548.423 56.0213 548.358 55.228H549.828ZM551.606 52.848C552.166 52.848 552.605 52.6753 552.922 52.33C553.249 51.9753 553.412 51.5087 553.412 50.93C553.412 50.286 553.239 49.7867 552.894 49.432C552.558 49.068 552.096 48.886 551.508 48.886C550.92 48.886 550.453 49.0727 550.108 49.446C549.772 49.81 549.604 50.2907 549.604 50.888C549.604 51.4573 549.767 51.9287 550.094 52.302C550.43 52.666 550.934 52.848 551.606 52.848ZM557.609 55.83C558.505 55.0553 559.209 54.4207 559.723 53.926C560.245 53.422 560.679 52.8993 561.025 52.358C561.37 51.8167 561.543 51.2753 561.543 50.734C561.543 50.174 561.407 49.7353 561.137 49.418C560.875 49.1007 560.46 48.942 559.891 48.942C559.34 48.942 558.911 49.1193 558.603 49.474C558.304 49.8193 558.145 50.286 558.127 50.874H556.587C556.615 49.81 556.932 48.998 557.539 48.438C558.155 47.8687 558.934 47.584 559.877 47.584C560.894 47.584 561.687 47.864 562.257 48.424C562.835 48.984 563.125 49.7307 563.125 50.664C563.125 51.336 562.952 51.9847 562.607 52.61C562.271 53.226 561.865 53.7813 561.389 54.276C560.922 54.7613 560.325 55.326 559.597 55.97L558.967 56.53H563.405V57.86H556.601V56.698L557.609 55.83ZM564.611 55.872V54.668L569.315 47.92H571.247V54.486H572.549V55.872H571.247V58H569.679V55.872H564.611ZM569.749 49.544L566.445 54.486H569.749V49.544ZM575.593 52.666C574.623 52.1807 574.137 51.4153 574.137 50.37C574.137 49.866 574.263 49.404 574.515 48.984C574.767 48.564 575.145 48.2327 575.649 47.99C576.153 47.738 576.769 47.612 577.497 47.612C578.216 47.612 578.827 47.738 579.331 47.99C579.845 48.2327 580.227 48.564 580.479 48.984C580.731 49.404 580.857 49.866 580.857 50.37C580.857 50.8927 580.722 51.3547 580.451 51.756C580.19 52.148 579.84 52.4513 579.401 52.666C579.933 52.862 580.353 53.184 580.661 53.632C580.969 54.0707 581.123 54.5887 581.123 55.186C581.123 55.7927 580.969 56.3293 580.661 56.796C580.353 57.2627 579.924 57.622 579.373 57.874C578.823 58.126 578.197 58.252 577.497 58.252C576.797 58.252 576.172 58.126 575.621 57.874C575.08 57.622 574.655 57.2627 574.347 56.796C574.039 56.3293 573.885 55.7927 573.885 55.186C573.885 54.5793 574.039 54.0567 574.347 53.618C574.655 53.1793 575.071 52.862 575.593 52.666ZM579.331 50.566C579.331 50.0433 579.168 49.642 578.841 49.362C578.515 49.082 578.067 48.942 577.497 48.942C576.937 48.942 576.494 49.082 576.167 49.362C575.841 49.642 575.677 50.048 575.677 50.58C575.677 51.0467 575.845 51.4293 576.181 51.728C576.527 52.0173 576.965 52.162 577.497 52.162C578.029 52.162 578.468 52.0127 578.813 51.714C579.159 51.4153 579.331 51.0327 579.331 50.566ZM577.497 53.366C576.881 53.366 576.377 53.52 575.985 53.828C575.603 54.1267 575.411 54.5607 575.411 55.13C575.411 55.662 575.598 56.096 575.971 56.432C576.345 56.7587 576.853 56.922 577.497 56.922C578.132 56.922 578.631 56.754 578.995 56.418C579.369 56.082 579.555 55.6527 579.555 55.13C579.555 54.57 579.364 54.136 578.981 53.828C578.608 53.52 578.113 53.366 577.497 53.366ZM582.799 52.764C582.799 51.1493 583.07 49.8893 583.611 48.984C584.162 48.0693 585.104 47.612 586.439 47.612C587.774 47.612 588.712 48.0693 589.253 48.984C589.804 49.8893 590.079 51.1493 590.079 52.764C590.079 54.3973 589.804 55.676 589.253 56.6C588.712 57.5147 587.774 57.972 586.439 57.972C585.104 57.972 584.162 57.5147 583.611 56.6C583.07 55.676 582.799 54.3973 582.799 52.764ZM588.511 52.764C588.511 52.008 588.46 51.3687 588.357 50.846C588.264 50.3233 588.068 49.8987 587.769 49.572C587.47 49.236 587.027 49.068 586.439 49.068C585.851 49.068 585.408 49.236 585.109 49.572C584.81 49.8987 584.61 50.3233 584.507 50.846C584.414 51.3687 584.367 52.008 584.367 52.764C584.367 53.548 584.414 54.206 584.507 54.738C584.6 55.27 584.796 55.6993 585.095 56.026C585.403 56.3527 585.851 56.516 586.439 56.516C587.027 56.516 587.47 56.3527 587.769 56.026C588.077 55.6993 588.278 55.27 588.371 54.738C588.464 54.206 588.511 53.548 588.511 52.764ZM591.768 52.764C591.768 51.1493 592.038 49.8893 592.58 48.984C593.13 48.0693 594.073 47.612 595.408 47.612C596.742 47.612 597.68 48.0693 598.222 48.984C598.772 49.8893 599.048 51.1493 599.048 52.764C599.048 54.3973 598.772 55.676 598.222 56.6C597.68 57.5147 596.742 57.972 595.408 57.972C594.073 57.972 593.13 57.5147 592.58 56.6C592.038 55.676 591.768 54.3973 591.768 52.764ZM597.48 52.764C597.48 52.008 597.428 51.3687 597.326 50.846C597.232 50.3233 597.036 49.8987 596.738 49.572C596.439 49.236 595.996 49.068 595.408 49.068C594.82 49.068 594.376 49.236 594.078 49.572C593.779 49.8987 593.578 50.3233 593.476 50.846C593.382 51.3687 593.336 52.008 593.336 52.764C593.336 53.548 593.382 54.206 593.476 54.738C593.569 55.27 593.765 55.6993 594.064 56.026C594.372 56.3527 594.82 56.516 595.408 56.516C595.996 56.516 596.439 56.3527 596.738 56.026C597.046 55.6993 597.246 55.27 597.34 54.738C597.433 54.206 597.48 53.548 597.48 52.764Z" fill="#646A83"/>
<defs>
<filter id="filter0_d" x="500" y="29" width="122" height="62" filterUnits="userSpaceOnUse" color-interpolation-filters="sRGB">
<feFlood flood-opacity="0" result="BackgroundImageFix"/>
<feColorMatrix in="SourceAlpha" type="matrix" values="0 0 0 0 0 0 0 0 0 0 0 0 0 0 0 0 0 0 127 0"/>
<feOffset dy="7"/>
<feGaussianBlur stdDeviation="7.5"/>
<feColorMatrix type="matrix" values="0 0 0 0 0.561094 0 0 0 0 0.591375 0 0 0 0 0.7125 0 0 0 0.34 0"/>
<feBlend mode="normal" in2="BackgroundImageFix" result="effect1_dropShadow"/>
<feBlend mode="normal" in="SourceGraphic" in2="effect1_dropShadow" result="shape"/>
</filter>
<linearGradient id="paint0_linear" x1="288" y1="-50" x2="285" y2="233" gradientUnits="userSpaceOnUse">
<stop stop-color="#7A3EFB"/>
<stop offset="1" stop-color="#DFFEEF"/>
</linearGradient>
</defs>
</svg>
