<svg width="307" height="125" viewBox="0 0 307 125" fill="none" xmlns="http://www.w3.org/2000/svg">
<path d="M193.203 13.4414H190.1V22H188.384V13.4414H185.308V12.0469H193.203V13.4414ZM192.622 18.2334C192.622 17.5088 192.766 16.8571 193.053 16.2783C193.34 15.695 193.743 15.2484 194.263 14.9385C194.782 14.624 195.379 14.4668 196.054 14.4668C197.052 14.4668 197.861 14.7881 198.48 15.4307C199.105 16.0732 199.442 16.9255 199.492 17.9873L199.499 18.377C199.499 19.1061 199.358 19.7578 199.075 20.332C198.797 20.9062 198.396 21.3506 197.872 21.665C197.353 21.9795 196.751 22.1367 196.067 22.1367C195.024 22.1367 194.188 21.7904 193.559 21.0977C192.934 20.4004 192.622 19.473 192.622 18.3154V18.2334ZM194.283 18.377C194.283 19.138 194.44 19.735 194.755 20.168C195.069 20.5964 195.507 20.8105 196.067 20.8105C196.628 20.8105 197.063 20.5918 197.373 20.1543C197.688 19.7168 197.845 19.0765 197.845 18.2334C197.845 17.486 197.683 16.8936 197.359 16.4561C197.04 16.0186 196.605 15.7998 196.054 15.7998C195.511 15.7998 195.081 16.0163 194.762 16.4492C194.443 16.8776 194.283 17.5202 194.283 18.377ZM202.985 12.8057V14.6035H204.291V15.834H202.985V19.9629C202.985 20.2454 203.04 20.4505 203.149 20.5781C203.263 20.7012 203.464 20.7627 203.751 20.7627C203.942 20.7627 204.136 20.7399 204.332 20.6943V21.9795C203.954 22.0843 203.589 22.1367 203.238 22.1367C201.962 22.1367 201.324 21.4326 201.324 20.0244V15.834H200.107V14.6035H201.324V12.8057H202.985ZM209.985 22C209.912 21.8587 209.849 21.6286 209.794 21.3096C209.265 21.861 208.618 22.1367 207.853 22.1367C207.11 22.1367 206.504 21.9248 206.034 21.501C205.565 21.0771 205.33 20.5531 205.33 19.9287C205.33 19.1403 205.622 18.5365 206.205 18.1172C206.793 17.6934 207.632 17.4814 208.721 17.4814H209.739V16.9961C209.739 16.6133 209.632 16.3079 209.418 16.0801C209.204 15.8477 208.878 15.7314 208.44 15.7314C208.062 15.7314 207.752 15.8271 207.511 16.0186C207.269 16.2054 207.148 16.4447 207.148 16.7363H205.487C205.487 16.3307 205.622 15.9525 205.891 15.6016C206.16 15.2461 206.524 14.9681 206.984 14.7676C207.449 14.5671 207.966 14.4668 208.536 14.4668C209.402 14.4668 210.092 14.6855 210.607 15.123C211.122 15.556 211.387 16.1667 211.4 16.9551V20.291C211.4 20.9564 211.494 21.4873 211.681 21.8838V22H209.985ZM208.16 20.8037C208.488 20.8037 208.796 20.724 209.083 20.5645C209.375 20.4049 209.593 20.1908 209.739 19.9219V18.5273H208.844C208.229 18.5273 207.766 18.6344 207.456 18.8486C207.146 19.0628 206.991 19.3659 206.991 19.7578C206.991 20.0768 207.096 20.332 207.306 20.5234C207.52 20.7103 207.805 20.8037 208.16 20.8037ZM214.907 22H213.246V11.5H214.907V22ZM227.15 13.4414H224.047V22H222.331V13.4414H219.255V12.0469H227.15V13.4414ZM231.724 16.1211C231.505 16.0846 231.279 16.0664 231.047 16.0664C230.286 16.0664 229.773 16.3581 229.509 16.9414V22H227.848V14.6035H229.434L229.475 15.4307C229.876 14.7881 230.432 14.4668 231.143 14.4668C231.38 14.4668 231.576 14.4987 231.73 14.5625L231.724 16.1211ZM234.54 22H232.879V14.6035H234.54V22ZM232.776 12.6826C232.776 12.4274 232.856 12.2155 233.016 12.0469C233.18 11.8783 233.412 11.7939 233.713 11.7939C234.014 11.7939 234.246 11.8783 234.41 12.0469C234.574 12.2155 234.656 12.4274 234.656 12.6826C234.656 12.9333 234.574 13.1429 234.41 13.3115C234.246 13.4756 234.014 13.5576 233.713 13.5576C233.412 13.5576 233.18 13.4756 233.016 13.3115C232.856 13.1429 232.776 12.9333 232.776 12.6826ZM242.832 18.377C242.832 19.5208 242.572 20.4346 242.053 21.1182C241.533 21.7972 240.836 22.1367 239.961 22.1367C239.15 22.1367 238.5 21.8701 238.013 21.3369V24.8438H236.352V14.6035H237.883L237.951 15.3555C238.439 14.763 239.102 14.4668 239.94 14.4668C240.843 14.4668 241.549 14.804 242.06 15.4785C242.575 16.1484 242.832 17.0804 242.832 18.2744V18.377ZM241.178 18.2334C241.178 17.4951 241.03 16.9095 240.733 16.4766C240.442 16.0436 240.022 15.8271 239.476 15.8271C238.797 15.8271 238.309 16.1074 238.013 16.668V19.9492C238.313 20.5234 238.806 20.8105 239.489 20.8105C240.018 20.8105 240.43 20.5986 240.727 20.1748C241.027 19.7464 241.178 19.0993 241.178 18.2334Z" fill="#485861"/>
<path d="M294.455 17.8369C293.899 18.4248 293.25 18.7188 292.507 18.7188C291.632 18.7188 290.935 18.4134 290.415 17.8027C289.896 17.1875 289.636 16.3809 289.636 15.3828C289.636 14.7266 289.768 14.1318 290.032 13.5986C290.297 13.0654 290.673 12.6507 291.16 12.3545C291.648 12.0583 292.213 11.9102 292.855 11.9102C293.858 11.9102 294.653 12.2839 295.241 13.0312C295.829 13.7786 296.123 14.779 296.123 16.0322V16.4971C296.123 18.2926 295.717 19.6621 294.906 20.6055C294.095 21.5488 292.885 22.0273 291.276 22.041H291.078V20.667H291.317C292.297 20.6533 293.049 20.4186 293.573 19.9629C294.097 19.5026 294.391 18.7939 294.455 17.8369ZM292.855 17.4199C293.188 17.4199 293.5 17.3242 293.792 17.1328C294.084 16.9414 294.309 16.6771 294.469 16.3398V15.6904C294.469 14.9567 294.318 14.3665 294.018 13.9199C293.717 13.4733 293.327 13.25 292.849 13.25C292.37 13.25 291.987 13.4482 291.7 13.8447C291.418 14.2367 291.276 14.7334 291.276 15.335C291.276 15.9593 291.42 16.4629 291.707 16.8457C291.994 17.2285 292.377 17.4199 292.855 17.4199ZM304.189 17.8096C304.189 19.2406 303.921 20.3206 303.383 21.0498C302.85 21.7744 302.036 22.1367 300.942 22.1367C299.867 22.1367 299.056 21.7835 298.509 21.0771C297.966 20.3662 297.688 19.3158 297.675 17.9258V16.2031C297.675 14.7721 297.941 13.6989 298.475 12.9834C299.012 12.2679 299.83 11.9102 300.929 11.9102C302.018 11.9102 302.829 12.2588 303.362 12.9561C303.9 13.6533 304.176 14.6969 304.189 16.0869V17.8096ZM302.528 15.9502C302.528 15.016 302.401 14.3324 302.146 13.8994C301.89 13.4619 301.485 13.2432 300.929 13.2432C300.386 13.2432 299.988 13.4505 299.732 13.8652C299.477 14.2754 299.343 14.918 299.329 15.793V18.0488C299.329 18.9785 299.459 19.6712 299.719 20.127C299.979 20.5827 300.386 20.8105 300.942 20.8105C301.476 20.8105 301.87 20.6009 302.125 20.1816C302.38 19.7578 302.515 19.097 302.528 18.1992V15.9502Z" fill="#485861"/>
<path d="M296.438 81H289.745V79.8584L293.061 76.2422C293.539 75.709 293.879 75.2646 294.079 74.9092C294.284 74.5492 294.387 74.1891 294.387 73.8291C294.387 73.3551 294.252 72.9723 293.983 72.6807C293.719 72.389 293.361 72.2432 292.91 72.2432C292.372 72.2432 291.955 72.4072 291.659 72.7354C291.363 73.0635 291.215 73.5124 291.215 74.082H289.554C289.554 73.4759 289.69 72.9313 289.964 72.4482C290.242 71.9606 290.636 71.5824 291.146 71.3135C291.661 71.0446 292.254 70.9102 292.924 70.9102C293.89 70.9102 294.651 71.154 295.207 71.6416C295.768 72.1247 296.048 72.7946 296.048 73.6514C296.048 74.1481 295.907 74.6699 295.624 75.2168C295.346 75.7591 294.888 76.3766 294.25 77.0693L291.816 79.6738H296.438V81ZM304.189 76.8096C304.189 78.2406 303.921 79.3206 303.383 80.0498C302.85 80.7744 302.036 81.1367 300.942 81.1367C299.867 81.1367 299.056 80.7835 298.509 80.0771C297.966 79.3662 297.688 78.3158 297.675 76.9258V75.2031C297.675 73.7721 297.941 72.6989 298.475 71.9834C299.012 71.2679 299.83 70.9102 300.929 70.9102C302.018 70.9102 302.829 71.2588 303.362 71.9561C303.9 72.6533 304.176 73.6969 304.189 75.0869V76.8096ZM302.528 74.9502C302.528 74.016 302.401 73.3324 302.146 72.8994C301.89 72.4619 301.485 72.2432 300.929 72.2432C300.386 72.2432 299.988 72.4505 299.732 72.8652C299.477 73.2754 299.343 73.918 299.329 74.793V77.0488C299.329 77.9785 299.459 78.6712 299.719 79.127C299.979 79.5827 300.386 79.8105 300.942 79.8105C301.476 79.8105 301.87 79.6009 302.125 79.1816C302.38 78.7578 302.515 78.097 302.528 77.1992V74.9502Z" fill="#485861"/>
<path d="M295.364 51.4521H296.602V52.7852H295.364V55H293.703V52.7852H289.403L289.355 51.7734L293.648 45.0469H295.364V51.4521ZM291.099 51.4521H293.703V47.2959L293.58 47.5146L291.099 51.4521ZM298.146 50.0645L298.687 45.0469H304.032V46.4824H300.067L299.794 48.8613C300.254 48.597 300.774 48.4648 301.353 48.4648C302.3 48.4648 303.036 48.7679 303.561 49.374C304.089 49.9801 304.354 50.7959 304.354 51.8213C304.354 52.833 304.062 53.6396 303.479 54.2412C302.895 54.8382 302.095 55.1367 301.079 55.1367C300.168 55.1367 299.411 54.8792 298.81 54.3643C298.213 53.8447 297.889 53.1611 297.839 52.3135H299.445C299.509 52.7965 299.682 53.168 299.965 53.4277C300.247 53.6829 300.617 53.8105 301.072 53.8105C301.583 53.8105 301.979 53.6283 302.262 53.2637C302.549 52.8991 302.692 52.4023 302.692 51.7734C302.692 51.1673 302.535 50.6888 302.221 50.3379C301.906 49.9824 301.473 49.8047 300.922 49.8047C300.621 49.8047 300.366 49.8457 300.156 49.9277C299.947 50.0052 299.719 50.1602 299.473 50.3926L298.146 50.0645Z" fill="#485861"/>
<path d="M296.438 108H289.745V106.858L293.061 103.242C293.539 102.709 293.879 102.265 294.079 101.909C294.284 101.549 294.387 101.189 294.387 100.829C294.387 100.355 294.252 99.9723 293.983 99.6807C293.719 99.389 293.361 99.2432 292.91 99.2432C292.372 99.2432 291.955 99.4072 291.659 99.7354C291.363 100.063 291.215 100.512 291.215 101.082H289.554C289.554 100.476 289.69 99.9313 289.964 99.4482C290.242 98.9606 290.636 98.5824 291.146 98.3135C291.661 98.0446 292.254 97.9102 292.924 97.9102C293.89 97.9102 294.651 98.154 295.207 98.6416C295.768 99.1247 296.048 99.7946 296.048 100.651C296.048 101.148 295.907 101.67 295.624 102.217C295.346 102.759 294.888 103.377 294.25 104.069L291.816 106.674H296.438V108ZM298.146 103.064L298.687 98.0469H304.032V99.4824H300.067L299.794 101.861C300.254 101.597 300.774 101.465 301.353 101.465C302.3 101.465 303.036 101.768 303.561 102.374C304.089 102.98 304.354 103.796 304.354 104.821C304.354 105.833 304.062 106.64 303.479 107.241C302.895 107.838 302.095 108.137 301.079 108.137C300.168 108.137 299.411 107.879 298.81 107.364C298.213 106.845 297.889 106.161 297.839 105.313H299.445C299.509 105.797 299.682 106.168 299.965 106.428C300.247 106.683 300.617 106.811 301.072 106.811C301.583 106.811 301.979 106.628 302.262 106.264C302.549 105.899 302.692 105.402 302.692 104.773C302.692 104.167 302.535 103.689 302.221 103.338C301.906 102.982 301.473 102.805 300.922 102.805C300.621 102.805 300.366 102.846 300.156 102.928C299.947 103.005 299.719 103.16 299.473 103.393L298.146 103.064Z" fill="#485861"/>
<path d="M193.606 47.7598C193.506 48.8216 193.114 49.651 192.431 50.248C191.747 50.8405 190.838 51.1367 189.703 51.1367C188.91 51.1367 188.211 50.9499 187.604 50.5762C187.003 50.1979 186.538 49.6624 186.21 48.9697C185.882 48.277 185.711 47.4727 185.697 46.5566V45.627C185.697 44.6882 185.864 43.861 186.196 43.1455C186.529 42.43 187.005 41.8786 187.625 41.4912C188.249 41.1038 188.969 40.9102 189.785 40.9102C190.883 40.9102 191.768 41.2087 192.438 41.8057C193.107 42.4027 193.497 43.2458 193.606 44.335H191.884C191.802 43.6195 191.592 43.1045 191.255 42.79C190.922 42.471 190.432 42.3115 189.785 42.3115C189.033 42.3115 188.454 42.5872 188.049 43.1387C187.648 43.6855 187.443 44.4899 187.434 45.5518V46.4336C187.434 47.5091 187.625 48.3294 188.008 48.8945C188.395 49.4596 188.96 49.7422 189.703 49.7422C190.382 49.7422 190.893 49.5895 191.234 49.2842C191.576 48.9788 191.793 48.4707 191.884 47.7598H193.606ZM194.687 47.2334C194.687 46.5088 194.83 45.8571 195.117 45.2783C195.404 44.695 195.808 44.2484 196.327 43.9385C196.847 43.624 197.444 43.4668 198.118 43.4668C199.116 43.4668 199.925 43.7881 200.545 44.4307C201.169 45.0732 201.507 45.9255 201.557 46.9873L201.563 47.377C201.563 48.1061 201.422 48.7578 201.14 49.332C200.862 49.9062 200.461 50.3506 199.937 50.665C199.417 50.9795 198.815 51.1367 198.132 51.1367C197.088 51.1367 196.252 50.7904 195.623 50.0977C194.999 49.4004 194.687 48.473 194.687 47.3154V47.2334ZM196.348 47.377C196.348 48.138 196.505 48.735 196.819 49.168C197.134 49.5964 197.571 49.8105 198.132 49.8105C198.692 49.8105 199.128 49.5918 199.438 49.1543C199.752 48.7168 199.909 48.0765 199.909 47.2334C199.909 46.486 199.747 45.8936 199.424 45.4561C199.105 45.0186 198.67 44.7998 198.118 44.7998C197.576 44.7998 197.145 45.0163 196.826 45.4492C196.507 45.8776 196.348 46.5202 196.348 47.377ZM204.53 43.6035L204.578 44.376C205.098 43.7699 205.809 43.4668 206.711 43.4668C207.7 43.4668 208.377 43.8451 208.741 44.6016C209.279 43.8451 210.035 43.4668 211.011 43.4668C211.826 43.4668 212.433 43.6924 212.829 44.1436C213.23 44.5947 213.435 45.2601 213.444 46.1396V51H211.783V46.1875C211.783 45.7181 211.681 45.374 211.476 45.1553C211.271 44.9365 210.931 44.8271 210.457 44.8271C210.079 44.8271 209.769 44.9297 209.527 45.1348C209.29 45.3353 209.124 45.5996 209.028 45.9277L209.035 51H207.374V46.1328C207.351 45.2624 206.907 44.8271 206.041 44.8271C205.376 44.8271 204.904 45.0983 204.626 45.6406V51H202.965V43.6035H204.53ZM221.627 47.377C221.627 48.5208 221.367 49.4346 220.848 50.1182C220.328 50.7972 219.631 51.1367 218.756 51.1367C217.945 51.1367 217.295 50.8701 216.808 50.3369V53.8438H215.146V43.6035H216.678L216.746 44.3555C217.234 43.763 217.897 43.4668 218.735 43.4668C219.638 43.4668 220.344 43.804 220.854 44.4785C221.369 45.1484 221.627 46.0804 221.627 47.2744V47.377ZM219.973 47.2334C219.973 46.4951 219.825 45.9095 219.528 45.4766C219.237 45.0436 218.817 44.8271 218.271 44.8271C217.591 44.8271 217.104 45.1074 216.808 45.668V48.9492C217.108 49.5234 217.601 49.8105 218.284 49.8105C218.813 49.8105 219.225 49.5986 219.521 49.1748C219.822 48.7464 219.973 48.0993 219.973 47.2334ZM224.806 51H223.145V40.5H224.806V51ZM229.878 51.1367C228.825 51.1367 227.971 50.8063 227.314 50.1455C226.663 49.4801 226.337 48.596 226.337 47.4932V47.2881C226.337 46.5498 226.478 45.8913 226.761 45.3125C227.048 44.7292 227.449 44.2757 227.964 43.9521C228.479 43.6286 229.053 43.4668 229.687 43.4668C230.694 43.4668 231.471 43.7881 232.018 44.4307C232.569 45.0732 232.845 45.9824 232.845 47.1582V47.8281H228.012C228.062 48.4388 228.265 48.9219 228.62 49.2773C228.98 49.6328 229.431 49.8105 229.974 49.8105C230.735 49.8105 231.354 49.5029 231.833 48.8877L232.729 49.7422C232.432 50.1842 232.036 50.5283 231.539 50.7744C231.047 51.016 230.493 51.1367 229.878 51.1367ZM229.68 44.7998C229.224 44.7998 228.855 44.9593 228.572 45.2783C228.294 45.5973 228.117 46.0417 228.039 46.6113H231.204V46.4883C231.168 45.9323 231.02 45.513 230.76 45.2305C230.5 44.9434 230.14 44.7998 229.68 44.7998ZM238.56 51C238.487 50.8587 238.423 50.6286 238.368 50.3096C237.84 50.861 237.192 51.1367 236.427 51.1367C235.684 51.1367 235.078 50.9248 234.608 50.501C234.139 50.0771 233.904 49.5531 233.904 48.9287C233.904 48.1403 234.196 47.5365 234.779 47.1172C235.367 46.6934 236.206 46.4814 237.295 46.4814H238.313V45.9961C238.313 45.6133 238.206 45.3079 237.992 45.0801C237.778 44.8477 237.452 44.7314 237.015 44.7314C236.636 44.7314 236.326 44.8271 236.085 45.0186C235.843 45.2054 235.723 45.4447 235.723 45.7363H234.062C234.062 45.3307 234.196 44.9525 234.465 44.6016C234.734 44.2461 235.098 43.9681 235.559 43.7676C236.023 43.5671 236.541 43.4668 237.11 43.4668C237.976 43.4668 238.667 43.6855 239.182 44.123C239.697 44.556 239.961 45.1667 239.975 45.9551V49.291C239.975 49.9564 240.068 50.4873 240.255 50.8838V51H238.56ZM236.734 49.8037C237.062 49.8037 237.37 49.724 237.657 49.5645C237.949 49.4049 238.168 49.1908 238.313 48.9219V47.5273H237.418C236.803 47.5273 236.34 47.6344 236.03 47.8486C235.72 48.0628 235.565 48.3659 235.565 48.7578C235.565 49.0768 235.67 49.332 235.88 49.5234C236.094 49.7103 236.379 49.8037 236.734 49.8037ZM243.796 41.8057V43.6035H245.102V44.834H243.796V48.9629C243.796 49.2454 243.851 49.4505 243.96 49.5781C244.074 49.7012 244.274 49.7627 244.562 49.7627C244.753 49.7627 244.947 49.7399 245.143 49.6943V50.9795C244.764 51.0843 244.4 51.1367 244.049 51.1367C242.773 51.1367 242.135 50.4326 242.135 49.0244V44.834H240.918V43.6035H242.135V41.8057H243.796ZM249.634 51.1367C248.581 51.1367 247.727 50.8063 247.07 50.1455C246.419 49.4801 246.093 48.596 246.093 47.4932V47.2881C246.093 46.5498 246.234 45.8913 246.517 45.3125C246.804 44.7292 247.205 44.2757 247.72 43.9521C248.235 43.6286 248.809 43.4668 249.442 43.4668C250.45 43.4668 251.227 43.7881 251.773 44.4307C252.325 45.0732 252.601 45.9824 252.601 47.1582V47.8281H247.768C247.818 48.4388 248.021 48.9219 248.376 49.2773C248.736 49.6328 249.187 49.8105 249.729 49.8105C250.491 49.8105 251.11 49.5029 251.589 48.8877L252.484 49.7422C252.188 50.1842 251.792 50.5283 251.295 50.7744C250.803 51.016 250.249 51.1367 249.634 51.1367ZM249.436 44.7998C248.98 44.7998 248.611 44.9593 248.328 45.2783C248.05 45.5973 247.872 46.0417 247.795 46.6113H250.96V46.4883C250.924 45.9323 250.775 45.513 250.516 45.2305C250.256 44.9434 249.896 44.7998 249.436 44.7998ZM253.585 47.2471C253.585 46.1077 253.849 45.194 254.378 44.5059C254.907 43.8132 255.615 43.4668 256.504 43.4668C257.288 43.4668 257.921 43.7402 258.404 44.2871V40.5H260.065V51H258.562L258.479 50.2344C257.983 50.8359 257.32 51.1367 256.49 51.1367C255.624 51.1367 254.923 50.7881 254.385 50.0908C253.852 49.3936 253.585 48.4456 253.585 47.2471ZM255.246 47.3906C255.246 48.1426 255.39 48.7305 255.677 49.1543C255.968 49.5736 256.381 49.7832 256.914 49.7832C257.593 49.7832 258.09 49.4801 258.404 48.874V45.7158C258.099 45.1234 257.607 44.8271 256.928 44.8271C256.39 44.8271 255.975 45.0413 255.684 45.4697C255.392 45.8936 255.246 46.5339 255.246 47.3906Z" fill="#485861"/>
<path d="M189.669 76.165H187.741V80H186.012V70.0469H189.512C190.66 70.0469 191.547 70.3044 192.171 70.8193C192.795 71.3343 193.107 72.0794 193.107 73.0547C193.107 73.7201 192.946 74.2783 192.622 74.7295C192.303 75.1761 191.856 75.5202 191.282 75.7617L193.518 79.9111V80H191.665L189.669 76.165ZM187.741 74.7773H189.519C190.102 74.7773 190.558 74.6315 190.886 74.3398C191.214 74.0436 191.378 73.6403 191.378 73.1299C191.378 72.5967 191.225 72.1842 190.92 71.8926C190.619 71.6009 190.168 71.4505 189.566 71.4414H187.741V74.7773ZM199.068 79.2754C198.581 79.8496 197.888 80.1367 196.99 80.1367C196.188 80.1367 195.58 79.902 195.165 79.4326C194.755 78.9632 194.55 78.2842 194.55 77.3955V72.6035H196.211V77.375C196.211 78.3138 196.601 78.7832 197.38 78.7832C198.187 78.7832 198.731 78.4938 199.014 77.915V72.6035H200.675V80H199.109L199.068 79.2754ZM203.908 72.6035L203.956 73.458C204.503 72.7972 205.221 72.4668 206.109 72.4668C207.65 72.4668 208.434 73.3486 208.461 75.1123V80H206.8V75.208C206.8 74.7386 206.697 74.3923 206.492 74.1689C206.292 73.9411 205.961 73.8271 205.501 73.8271C204.831 73.8271 204.332 74.1302 204.004 74.7363V80H202.343V72.6035H203.908ZM211.701 72.6035L211.749 73.458C212.296 72.7972 213.014 72.4668 213.902 72.4668C215.443 72.4668 216.227 73.3486 216.254 75.1123V80H214.593V75.208C214.593 74.7386 214.49 74.3923 214.285 74.1689C214.085 73.9411 213.754 73.8271 213.294 73.8271C212.624 73.8271 212.125 74.1302 211.797 74.7363V80H210.136V72.6035H211.701ZM219.72 80H218.059V72.6035H219.72V80ZM217.956 70.6826C217.956 70.4274 218.036 70.2155 218.195 70.0469C218.359 69.8783 218.592 69.7939 218.893 69.7939C219.193 69.7939 219.426 69.8783 219.59 70.0469C219.754 70.2155 219.836 70.4274 219.836 70.6826C219.836 70.9333 219.754 71.1429 219.59 71.3115C219.426 71.4756 219.193 71.5576 218.893 71.5576C218.592 71.5576 218.359 71.4756 218.195 71.3115C218.036 71.1429 217.956 70.9333 217.956 70.6826ZM223.076 72.6035L223.124 73.458C223.671 72.7972 224.389 72.4668 225.277 72.4668C226.818 72.4668 227.602 73.3486 227.629 75.1123V80H225.968V75.208C225.968 74.7386 225.865 74.3923 225.66 74.1689C225.46 73.9411 225.129 73.8271 224.669 73.8271C223.999 73.8271 223.5 74.1302 223.172 74.7363V80H221.511V72.6035H223.076ZM229.037 76.2471C229.037 75.0986 229.306 74.1826 229.844 73.499C230.386 72.8109 231.104 72.4668 231.997 72.4668C232.84 72.4668 233.503 72.7607 233.986 73.3486L234.062 72.6035H235.559V79.7744C235.559 80.7451 235.256 81.5107 234.649 82.0713C234.048 82.6318 233.234 82.9121 232.209 82.9121C231.667 82.9121 231.136 82.7982 230.616 82.5703C230.101 82.347 229.709 82.0531 229.44 81.6885L230.227 80.6904C230.737 81.2965 231.366 81.5996 232.113 81.5996C232.665 81.5996 233.1 81.4492 233.419 81.1484C233.738 80.8522 233.897 80.4147 233.897 79.8359V79.3369C233.419 79.8701 232.781 80.1367 231.983 80.1367C231.118 80.1367 230.409 79.7926 229.857 79.1045C229.311 78.4163 229.037 77.4639 229.037 76.2471ZM230.691 76.3906C230.691 77.1335 230.842 77.7191 231.143 78.1475C231.448 78.5713 231.869 78.7832 232.407 78.7832C233.077 78.7832 233.574 78.4961 233.897 77.9219V74.668C233.583 74.1074 233.091 73.8271 232.421 73.8271C231.874 73.8271 231.448 74.0436 231.143 74.4766C230.842 74.9095 230.691 75.5475 230.691 76.3906Z" fill="#485861"/>
<path d="M193.606 104.76C193.506 105.822 193.114 106.651 192.431 107.248C191.747 107.84 190.838 108.137 189.703 108.137C188.91 108.137 188.211 107.95 187.604 107.576C187.003 107.198 186.538 106.662 186.21 105.97C185.882 105.277 185.711 104.473 185.697 103.557V102.627C185.697 101.688 185.864 100.861 186.196 100.146C186.529 99.43 187.005 98.8786 187.625 98.4912C188.249 98.1038 188.969 97.9102 189.785 97.9102C190.883 97.9102 191.768 98.2087 192.438 98.8057C193.107 99.4027 193.497 100.246 193.606 101.335H191.884C191.802 100.619 191.592 100.104 191.255 99.79C190.922 99.471 190.432 99.3115 189.785 99.3115C189.033 99.3115 188.454 99.5872 188.049 100.139C187.648 100.686 187.443 101.49 187.434 102.552V103.434C187.434 104.509 187.625 105.329 188.008 105.895C188.395 106.46 188.96 106.742 189.703 106.742C190.382 106.742 190.893 106.59 191.234 106.284C191.576 105.979 191.793 105.471 191.884 104.76H193.606ZM199.417 108C199.344 107.859 199.28 107.629 199.226 107.31C198.697 107.861 198.05 108.137 197.284 108.137C196.541 108.137 195.935 107.925 195.466 107.501C194.996 107.077 194.762 106.553 194.762 105.929C194.762 105.14 195.053 104.536 195.637 104.117C196.225 103.693 197.063 103.481 198.152 103.481H199.171V102.996C199.171 102.613 199.064 102.308 198.85 102.08C198.635 101.848 198.31 101.731 197.872 101.731C197.494 101.731 197.184 101.827 196.942 102.019C196.701 102.205 196.58 102.445 196.58 102.736H194.919C194.919 102.331 195.053 101.952 195.322 101.602C195.591 101.246 195.956 100.968 196.416 100.768C196.881 100.567 197.398 100.467 197.968 100.467C198.834 100.467 199.524 100.686 200.039 101.123C200.554 101.556 200.818 102.167 200.832 102.955V106.291C200.832 106.956 200.925 107.487 201.112 107.884V108H199.417ZM197.592 106.804C197.92 106.804 198.228 106.724 198.515 106.564C198.806 106.405 199.025 106.191 199.171 105.922V104.527H198.275C197.66 104.527 197.198 104.634 196.888 104.849C196.578 105.063 196.423 105.366 196.423 105.758C196.423 106.077 196.528 106.332 196.737 106.523C196.951 106.71 197.236 106.804 197.592 106.804ZM204.113 100.604L204.161 101.458C204.708 100.797 205.426 100.467 206.314 100.467C207.855 100.467 208.639 101.349 208.666 103.112V108H207.005V103.208C207.005 102.739 206.902 102.392 206.697 102.169C206.497 101.941 206.166 101.827 205.706 101.827C205.036 101.827 204.537 102.13 204.209 102.736V108H202.548V100.604H204.113ZM213.403 106.811C213.818 106.811 214.162 106.69 214.436 106.448C214.709 106.207 214.855 105.908 214.873 105.553H216.438C216.42 106.013 216.277 106.444 216.008 106.845C215.739 107.241 215.374 107.556 214.914 107.788C214.454 108.021 213.957 108.137 213.424 108.137C212.389 108.137 211.569 107.802 210.963 107.132C210.357 106.462 210.054 105.537 210.054 104.356V104.186C210.054 103.06 210.354 102.16 210.956 101.485C211.558 100.806 212.378 100.467 213.417 100.467C214.297 100.467 215.012 100.724 215.563 101.239C216.119 101.75 216.411 102.422 216.438 103.256H214.873C214.855 102.832 214.709 102.483 214.436 102.21C214.167 101.937 213.823 101.8 213.403 101.8C212.866 101.8 212.451 101.996 212.159 102.388C211.868 102.775 211.719 103.365 211.715 104.158V104.425C211.715 105.227 211.858 105.826 212.146 106.223C212.437 106.615 212.856 106.811 213.403 106.811ZM220.95 108.137C219.897 108.137 219.043 107.806 218.387 107.146C217.735 106.48 217.409 105.596 217.409 104.493V104.288C217.409 103.55 217.55 102.891 217.833 102.312C218.12 101.729 218.521 101.276 219.036 100.952C219.551 100.629 220.125 100.467 220.759 100.467C221.766 100.467 222.543 100.788 223.09 101.431C223.641 102.073 223.917 102.982 223.917 104.158V104.828H219.084C219.134 105.439 219.337 105.922 219.692 106.277C220.052 106.633 220.504 106.811 221.046 106.811C221.807 106.811 222.427 106.503 222.905 105.888L223.801 106.742C223.505 107.184 223.108 107.528 222.611 107.774C222.119 108.016 221.565 108.137 220.95 108.137ZM220.752 101.8C220.296 101.8 219.927 101.959 219.645 102.278C219.367 102.597 219.189 103.042 219.111 103.611H222.276V103.488C222.24 102.932 222.092 102.513 221.832 102.23C221.572 101.943 221.212 101.8 220.752 101.8ZM226.979 108H225.318V97.5H226.979V108ZM230.562 108H228.9V97.5H230.562V108ZM235.634 108.137C234.581 108.137 233.727 107.806 233.07 107.146C232.419 106.48 232.093 105.596 232.093 104.493V104.288C232.093 103.55 232.234 102.891 232.517 102.312C232.804 101.729 233.205 101.276 233.72 100.952C234.235 100.629 234.809 100.467 235.442 100.467C236.45 100.467 237.227 100.788 237.773 101.431C238.325 102.073 238.601 102.982 238.601 104.158V104.828H233.768C233.818 105.439 234.021 105.922 234.376 106.277C234.736 106.633 235.187 106.811 235.729 106.811C236.491 106.811 237.11 106.503 237.589 105.888L238.484 106.742C238.188 107.184 237.792 107.528 237.295 107.774C236.803 108.016 236.249 108.137 235.634 108.137ZM235.436 101.8C234.98 101.8 234.611 101.959 234.328 102.278C234.05 102.597 233.872 103.042 233.795 103.611H236.96V103.488C236.924 102.932 236.775 102.513 236.516 102.23C236.256 101.943 235.896 101.8 235.436 101.8ZM239.585 104.247C239.585 103.108 239.849 102.194 240.378 101.506C240.907 100.813 241.615 100.467 242.504 100.467C243.288 100.467 243.921 100.74 244.404 101.287V97.5H246.065V108H244.562L244.479 107.234C243.983 107.836 243.32 108.137 242.49 108.137C241.624 108.137 240.923 107.788 240.385 107.091C239.852 106.394 239.585 105.446 239.585 104.247ZM241.246 104.391C241.246 105.143 241.39 105.73 241.677 106.154C241.968 106.574 242.381 106.783 242.914 106.783C243.593 106.783 244.09 106.48 244.404 105.874V102.716C244.099 102.123 243.607 101.827 242.928 101.827C242.39 101.827 241.975 102.041 241.684 102.47C241.392 102.894 241.246 103.534 241.246 104.391Z" fill="#485861"/>
<rect x="154" y="14" width="18" height="8" rx="4" fill="#BEC1D9"/>
<rect x="154" y="44" width="18" height="7" rx="3.5" fill="#7A3EFB"/>
<rect x="154" y="72" width="18" height="7" rx="3.5" fill="#18A6F5"/>
<rect x="154" y="100" width="18" height="8" rx="4" fill="#FF3E44"/>
<path d="M98.3809 62.5C98.3809 42.9551 82.7012 27.0201 63.2656 26.619V0C97.3599 0.401109 125 28.2964 125 62.5C125 72.2725 122.739 81.498 118.728 89.7389L95.646 76.1742C97.3963 71.9443 98.3809 67.3498 98.3809 62.5Z" fill="#FF3E44"/>
<path d="M62.5 98.381C77.4504 98.381 90.2859 89.1919 95.6461 76.1741L118.728 89.7389C108.591 110.597 87.1864 125 62.5 125C62.2447 125 61.953 125 61.6978 125V98.381C61.953 98.381 62.2447 98.381 62.5 98.381Z" fill="#18A6F5"/>
<path d="M0 62.5C0 28.0411 28.0411 0 62.5 0C62.7552 0 63.0105 0 63.2658 0V26.619C63.0105 26.619 62.7552 26.619 62.5 26.619C42.6998 26.619 26.619 42.6998 26.619 62.5C26.619 82.0085 42.2987 97.9434 61.6978 98.381V125C27.6036 124.562 0 96.7036 0 62.5Z" fill="#7A3EFB"/>
<path d="M62.4999 104.814C85.8691 104.814 104.814 85.8692 104.814 62.5C104.814 39.1308 85.8691 20.1863 62.4999 20.1863C39.1308 20.1863 20.1863 39.1308 20.1863 62.5C20.1863 85.8692 39.1308 104.814 62.4999 104.814Z" fill="white"/>
<path d="M62.1117 125C67.686 125 72.2049 120.481 72.2049 114.907C72.2049 109.333 67.686 104.814 62.1117 104.814C56.5374 104.814 52.0186 109.333 52.0186 114.907C52.0186 120.481 56.5374 125 62.1117 125Z" fill="#7A3EFB"/>
<path d="M109.472 95.4969C115.046 95.4969 119.565 90.978 119.565 85.4037C119.565 79.8294 115.046 75.3105 109.472 75.3105C103.898 75.3105 99.3789 79.8294 99.3789 85.4037C99.3789 90.978 103.898 95.4969 109.472 95.4969Z" fill="#18A6F5"/>
<path d="M62.1117 20.1863C67.686 20.1863 72.2049 15.6675 72.2049 10.0932C72.2049 4.51886 67.686 0 62.1117 0C56.5374 0 52.0186 4.51886 52.0186 10.0932C52.0186 15.6675 56.5374 20.1863 62.1117 20.1863Z" fill="#FF3E44"/>
</svg>
