<svg class="icon-share" xmlns="http://www.w3.org/2000/svg" width="13" height="14.176" viewBox="0 0 12.909 14.176">
  <g data-name="icon-share" transform="translate(0.75 0.75)">
    <path id="Path_10" data-name="Path 10" d="M26.3,4.9A1.9,1.9,0,1,1,24.4,3,1.9,1.9,0,0,1,26.3,4.9Z" transform="translate(-14.894 -3)" fill="none" stroke="#000" stroke-linecap="round" stroke-linejoin="round" stroke-width="1.5"/>
    <path id="Path_11" data-name="Path 11" d="M8.3,15.4a1.9,1.9,0,1,1-1.9-1.9A1.9,1.9,0,0,1,8.3,15.4Z" transform="translate(-4.5 -9.063)" fill="none" stroke="#000" stroke-linecap="round" stroke-linejoin="round" stroke-width="1.5"/>
    <path id="Path_12" data-name="Path 12" d="M26.3,25.9A1.9,1.9,0,1,1,24.4,24,1.9,1.9,0,0,1,26.3,25.9Z" transform="translate(-14.894 -15.127)" fill="none" stroke="#000" stroke-linecap="round" stroke-linejoin="round" stroke-width="1.5"/>
    <path id="Path_13" data-name="Path 13" d="M12.885,20.265l4.329,2.523" transform="translate(-9.342 -12.97)" fill="none" stroke="#000" stroke-linecap="round" stroke-linejoin="round" stroke-width="1.5"/>
    <path id="Path_14" data-name="Path 14" d="M17.208,9.765l-4.323,2.523" transform="translate(-9.342 -6.906)" fill="none" stroke="#000" stroke-linecap="round" stroke-linejoin="round" stroke-width="1.5"/>
  </g>
</svg>
