<svg id="Group_1463" data-name="Group 1463" xmlns="http://www.w3.org/2000/svg" width="122.822" height="36.391" viewBox="0 0 122.822 36.391">
  <path id="Path_1094" data-name="Path 1094" d="M385.5,3310.1H271.291a4.3,4.3,0,0,1-4.3-4.3v-27.795a4.308,4.308,0,0,1,4.3-4.3H385.5a4.309,4.309,0,0,1,4.3,4.3V3305.8a4.3,4.3,0,0,1-4.3,4.3Z" transform="translate(-266.986 -3273.706)" fill="#4a6572"/>
  <path id="Path_1095" data-name="Path 1095" d="M294.144,3291.58a5.274,5.274,0,0,1,2.514-4.426,5.4,5.4,0,0,0-4.257-2.3c-1.79-.188-3.527,1.071-4.439,1.071-.93,0-2.336-1.052-3.849-1.021a5.667,5.667,0,0,0-4.77,2.909c-2.062,3.57-.524,8.817,1.452,11.7.989,1.414,2.143,2.992,3.655,2.935,1.48-.059,2.032-.941,3.817-.941,1.77,0,2.288.941,3.83.907,1.587-.025,2.587-1.42,3.541-2.846a11.664,11.664,0,0,0,1.619-3.3,5.1,5.1,0,0,1-3.114-4.691Zm-2.913-8.625a5.191,5.191,0,0,0,1.189-3.721A5.289,5.289,0,0,0,289,3281a4.938,4.938,0,0,0-1.22,3.583,4.365,4.365,0,0,0,3.451-1.631Z" transform="translate(-266.718 -3273.576)" fill="#fff"/>
  <g id="Group_929" data-name="Group 929" transform="translate(38.624 16.379)">
    <path id="Path_1096" data-name="Path 1096" d="M314.949,3302h-2.066l-1.133-3.558h-3.935L306.735,3302h-2.013l3.9-12.111h2.409L314.949,3302Zm-3.54-5.05-1.025-3.162q-.163-.485-.611-2.282h-.036q-.181.774-.575,2.282l-1.007,3.162Zm13.553.576a4.943,4.943,0,0,1-1.211,3.521,3.548,3.548,0,0,1-2.693,1.151,2.7,2.7,0,0,1-2.494-1.239v4.583h-1.941v-9.4q0-1.4-.072-2.87h1.706l.108,1.384h.037a3.453,3.453,0,0,1,5.526-.343,4.827,4.827,0,0,1,1.033,3.218Zm-1.977.071a3.6,3.6,0,0,0-.575-2.1,1.99,1.99,0,0,0-1.69-.862,2.019,2.019,0,0,0-1.3.476,2.212,2.212,0,0,0-.764,1.249,2.568,2.568,0,0,0-.09.592v1.457a2.34,2.34,0,0,0,.584,1.609,1.94,1.94,0,0,0,1.519.656,1.986,1.986,0,0,0,1.706-.844A3.712,3.712,0,0,0,322.984,3297.6Zm12.024-.071a4.943,4.943,0,0,1-1.211,3.521,3.55,3.55,0,0,1-2.694,1.151,2.7,2.7,0,0,1-2.494-1.239v4.583h-1.941v-9.4q0-1.4-.072-2.87H328.3l.109,1.384h.037a3.454,3.454,0,0,1,5.527-.343,4.833,4.833,0,0,1,1.033,3.218Zm-1.978.071a3.6,3.6,0,0,0-.576-2.1,1.986,1.986,0,0,0-1.688-.862,2.023,2.023,0,0,0-1.3.476,2.206,2.206,0,0,0-.764,1.249,2.64,2.64,0,0,0-.091.592v1.457a2.345,2.345,0,0,0,.584,1.609,1.943,1.943,0,0,0,1.52.656,1.984,1.984,0,0,0,1.706-.844A3.712,3.712,0,0,0,333.03,3297.6Zm13.211,1.006a3.234,3.234,0,0,1-1.077,2.516,4.773,4.773,0,0,1-3.3,1.061,5.758,5.758,0,0,1-3.136-.754l.448-1.617a5.4,5.4,0,0,0,2.8.755,2.649,2.649,0,0,0,1.707-.494,1.615,1.615,0,0,0,.612-1.319,1.692,1.692,0,0,0-.5-1.24,4.679,4.679,0,0,0-1.671-.934q-3.181-1.187-3.182-3.469a3.064,3.064,0,0,1,1.123-2.444,4.447,4.447,0,0,1,2.975-.953,5.879,5.879,0,0,1,2.749.575l-.487,1.582a4.806,4.806,0,0,0-2.327-.558,2.367,2.367,0,0,0-1.6.5,1.44,1.44,0,0,0-.487,1.1,1.484,1.484,0,0,0,.558,1.187,6.288,6.288,0,0,0,1.76.933,5.964,5.964,0,0,1,2.3,1.473,3.067,3.067,0,0,1,.74,2.1Zm6.434-3.879h-2.139v4.24q0,1.618,1.132,1.616a3.38,3.38,0,0,0,.862-.09l.054,1.474a4.419,4.419,0,0,1-1.51.214,2.324,2.324,0,0,1-1.8-.7,3.439,3.439,0,0,1-.648-2.354v-4.4h-1.274v-1.457h1.274v-1.6l1.907-.575v2.174h2.139v1.46Zm9.632,2.838a4.79,4.79,0,0,1-1.15,3.306,4.1,4.1,0,0,1-3.2,1.329,3.91,3.91,0,0,1-3.065-1.274,4.645,4.645,0,0,1-1.141-3.216,4.75,4.75,0,0,1,1.177-3.323,4.08,4.08,0,0,1,3.173-1.294,3.992,3.992,0,0,1,3.09,1.275,4.583,4.583,0,0,1,1.116,3.2Zm-2.012.044a3.92,3.92,0,0,0-.519-2.061,1.922,1.922,0,0,0-1.744-1.04,1.95,1.95,0,0,0-1.78,1.04,3.974,3.974,0,0,0-.521,2.1,3.9,3.9,0,0,0,.521,2.062,1.991,1.991,0,0,0,3.508-.018,3.929,3.929,0,0,0,.535-2.081Zm8.323-2.632a3.272,3.272,0,0,0-.612-.053,1.829,1.829,0,0,0-1.581.772,2.915,2.915,0,0,0-.485,1.725V3302H364v-5.982q0-1.375-.056-2.749h1.691l.071,1.67h.054a2.99,2.99,0,0,1,.97-1.384,2.345,2.345,0,0,1,1.4-.468,3.031,3.031,0,0,1,.485.036l0,1.851Zm8.68,2.247a4.527,4.527,0,0,1-.071.88H371.4a2.532,2.532,0,0,0,.845,1.979,2.884,2.884,0,0,0,1.9.61,6.451,6.451,0,0,0,2.356-.413l.3,1.346a7.287,7.287,0,0,1-2.928.539,4.244,4.244,0,0,1-3.191-1.193,4.415,4.415,0,0,1-1.159-3.207,5,5,0,0,1,1.079-3.287,3.721,3.721,0,0,1,3.054-1.4,3.257,3.257,0,0,1,2.86,1.4,4.716,4.716,0,0,1,.77,2.746Zm-1.851-.5a2.633,2.633,0,0,0-.377-1.492,1.7,1.7,0,0,0-1.546-.81,1.842,1.842,0,0,0-1.546.792,2.9,2.9,0,0,0-.574,1.509l4.042,0Z" transform="translate(-304.722 -3289.709)" fill="#fff"/>
  </g>
  <g id="Group_930" data-name="Group 930" transform="translate(39.76 5.963)">
    <path id="Path_1097" data-name="Path 1097" d="M307.228,3285.846a12.568,12.568,0,0,1-1.4-.071v-5.856a10.67,10.67,0,0,1,1.644-.124c2.225,0,3.25,1.1,3.25,2.879C310.725,3284.735,309.516,3285.846,307.228,3285.846Zm.325-5.3a3.892,3.892,0,0,0-.769.061v4.452a5.075,5.075,0,0,0,.645.026,2.109,2.109,0,0,0,2.289-2.385A1.942,1.942,0,0,0,307.554,3280.547Zm6.366,5.344a2.043,2.043,0,0,1-2.066-2.208,2.09,2.09,0,0,1,2.138-2.27,2.026,2.026,0,0,1,2.067,2.2,2.1,2.1,0,0,1-2.138,2.279Zm.037-3.781c-.689,0-1.131.645-1.131,1.545,0,.884.45,1.528,1.122,1.528s1.122-.689,1.122-1.546c0-.873-.442-1.527-1.113-1.527Zm9.255-.609-1.343,4.292h-.874l-.557-1.864q-.207-.685-.345-1.387h-.018a9.251,9.251,0,0,1-.344,1.387l-.592,1.864h-.884l-1.263-4.292h.981l.486,2.041q.172.729.291,1.377h.018c.071-.361.185-.812.353-1.368l.61-2.049h.778l.583,2c.141.486.256.963.345,1.414h.026a12.248,12.248,0,0,1,.291-1.414l.522-2Zm4.943,4.292H327.2v-2.465c0-.76-.291-1.139-.865-1.139a.991.991,0,0,0-.955,1.051v2.553h-.954v-3.065c0-.38-.009-.786-.035-1.227h.839l.044.662h.027a1.544,1.544,0,0,1,1.361-.75c.9,0,1.492.689,1.492,1.811v2.57Zm2.632,0h-.955v-6.262h.955Zm3.478.1a2.044,2.044,0,0,1-2.068-2.208,2.09,2.09,0,0,1,2.137-2.27,2.026,2.026,0,0,1,2.068,2.2,2.1,2.1,0,0,1-2.137,2.279Zm.036-3.781c-.69,0-1.131.645-1.131,1.545,0,.884.451,1.528,1.121,1.528s1.122-.689,1.122-1.546c0-.873-.44-1.527-1.112-1.527Zm5.863,3.684-.07-.494h-.025a1.468,1.468,0,0,1-1.256.592,1.249,1.249,0,0,1-1.315-1.263c0-1.059.918-1.608,2.509-1.608v-.079c0-.565-.3-.849-.891-.849a2,2,0,0,0-1.121.319l-.194-.627a2.746,2.746,0,0,1,1.474-.371c1.122,0,1.688.592,1.688,1.776v1.58a6.572,6.572,0,0,0,.061,1.025Zm-.131-2.138c-1.059,0-1.592.257-1.592.866a.608.608,0,0,0,.655.67.914.914,0,0,0,.937-.874Zm5.562,2.138-.045-.69h-.026a1.44,1.44,0,0,1-1.379.787,1.956,1.956,0,0,1-1.8-2.19,2.037,2.037,0,0,1,1.88-2.289,1.29,1.29,0,0,1,1.21.583h.019v-2.464h.955v5.1c0,.416.01.8.036,1.157Zm-.141-2.526a1.037,1.037,0,0,0-1.005-1.113c-.707,0-1.139.626-1.139,1.51,0,.865.448,1.457,1.121,1.457a1.07,1.07,0,0,0,1.024-1.139v-.716Zm7.009,2.624a2.043,2.043,0,0,1-2.067-2.208,2.091,2.091,0,0,1,2.138-2.27,2.026,2.026,0,0,1,2.066,2.2,2.1,2.1,0,0,1-2.138,2.279Zm.036-3.781c-.688,0-1.13.645-1.13,1.545,0,.884.451,1.528,1.121,1.528s1.122-.689,1.122-1.546c0-.873-.44-1.527-1.113-1.527Zm7.233,3.684h-.955v-2.465c0-.76-.292-1.139-.866-1.139a.99.99,0,0,0-.953,1.051v2.553H356v-3.065c0-.38-.009-.786-.036-1.227h.839l.045.662h.027a1.542,1.542,0,0,1,1.359-.751c.9,0,1.494.689,1.494,1.811Zm6.419-3.577H365.1v2.084c0,.531.184.8.556.8a1.882,1.882,0,0,0,.423-.044l.027.725a2.119,2.119,0,0,1-.74.106c-.751,0-1.2-.416-1.2-1.5v-2.165h-.626v-.715h.626v-.786l.936-.282v1.069h1.05v.715Zm5.05,3.577h-.953v-2.446c0-.769-.291-1.158-.866-1.158a.936.936,0,0,0-.955,1.017v2.587h-.953v-6.262h.953v2.578h.019a1.446,1.446,0,0,1,1.291-.7c.909,0,1.464.707,1.464,1.829v2.553Zm5.174-1.917H373.51a1.232,1.232,0,0,0,1.353,1.271,3.227,3.227,0,0,0,1.157-.2l.148.662a3.568,3.568,0,0,1-1.44.265,1.993,1.993,0,0,1-2.137-2.164,2.1,2.1,0,0,1,2.03-2.3,2.124,2.124,0,0,1,1.752,2.473Zm-.874-.68c0-.662-.335-1.13-.945-1.13a1.131,1.131,0,0,0-1.043,1.13Z" transform="translate(-305.832 -3279.532)" fill="#fff"/>
  </g>
</svg>
