<?xml version="1.0" encoding="utf-8"?>
<!-- Generator: Adobe Illustrator 21.0.0, SVG Export Plug-In . SVG Version: 6.00 Build 0)  -->
<svg version="1.1" id="Layer_1" xmlns="http://www.w3.org/2000/svg" xmlns:xlink="http://www.w3.org/1999/xlink" x="0px" y="0px"
	 viewBox="0 0 425.2 425.2" style="enable-background:new 0 0 425.2 425.2;" xml:space="preserve">
<style type="text/css">
	.st0{fill:#00963E;}
	.st1{fill:#4E69FF;}
	.st2{fill:#F10011;}
	.st3{fill:#FFED00;}
	.st4{fill:#FFFFFF;}
</style>
<rect width="425.2" height="425.2"/>
<g id="Layer_2">
	<g id="Layer_1-2">
		<path class="st0" d="M209.6,204.3L209.6,204.3c-8.9,0.5-16.6-6.3-17.1-15.2l-4.8-101c-0.5-8.9,5.3-16.6,14.2-17.1l0,0
			c8.9-0.5,16.6,6.3,17.1,15.2l5.9,101C225.3,196.1,218.5,203.7,209.6,204.3z"/>
		<path class="st1" d="M174.4,210.7L174.4,210.7c-7.4,1.8-14.8-2.7-16.6-10.1l-19.7-84.9c-1.8-7.3,1.9-14.6,9.2-16.3l0,0
			c7.3-1.8,13.5,2.6,15.3,10l21.9,84.8C186.2,201.5,181.7,208.9,174.4,210.7z"/>
		<path class="st2" d="M260.6,93.9L260.6,93.9c-7.5-0.9-13.4,4.5-14.3,12l-11.2,88.3c-0.9,7.5,4.5,14.3,12,15.2l0,0
			c7.5,0.9,14.3-4.5,15.2-12l9.8-88.9C273,101.1,268,94.8,260.6,93.9z"/>
		<path class="st3" d="M307.1,142.1L307.1,142.1c-6-1.9-11.7,2.2-13.6,8.2L273.2,211c-1.9,6,1.4,12.4,7.5,14.4l0,0
			c6,1.9,12.4-1.4,14.4-7.5l18.6-62C315.6,150,313.1,144,307.1,142.1z"/>
		<path class="st4" d="M147.6,262.4c5.6,5.4,13.6,16.6,9.7,22.5c-2.7,4.1-10.1,3.7-10.7,3.7c-10.2-0.7-14.4-10.6-21.3-16.3
			c-2-1.6-4.4-2.7-6.9-3.2c-3-0.7-6.1-2-7.1-5.2c-1-3.3-0.3-7.4,2.1-9.8c2.7-2.6,6.6-2.2,11.4-1.6
			C129.3,253,139.1,254.2,147.6,262.4z"/>
		<path class="st4" d="M179.1,258.8c-5.3-8.9-8.1-22.9-1.7-33c5.2-8.3,14.6-10.8,21.6-12.5c16.1-4,40.8-3,61.2,12.9
			c8.7,6.8,16.2,15.2,20.9,25.2c3.4,7.2,5.4,15,5.9,22.9c0.7,12.1-0.4,26-3.6,37.7c-4.9,17.5-17.4,31.5-34.3,38
			c-9.8,3.7-20.4,5.1-30.9,4c-6.9-0.7-13.3-3.3-19.5-6.2c-8-3.8-15.7-8.2-23-13.2c-6.7-4.7-13.2-10.3-17.2-17.6
			c-2.3-4.3-3.5-9.1-2.6-14c1.3-6.9,9.1-9.8,15.1-11c6.2-1.3,12.1,0.5,17.7,3.3c6.1,3.1,12.2,6.1,18.7,8c7.9,2.3,17.3,5.8,25.3,2.2
			c8-3.6,9.8-14.6,5.3-21.6c-3.2-5.1-10-4.9-15.4-5.7c-27.1-4.2-33.6-8.6-36.9-11.5C183.1,264.5,180.9,261.8,179.1,258.8z"/>
	</g>
</g>
</svg>
