<?xml version="1.0" encoding="utf-8"?>
<!-- Generator: Adobe Illustrator 21.0.0, SVG Export Plug-In . SVG Version: 6.00 Build 0)  -->
<svg version="1.1" id="Layer_1" xmlns="http://www.w3.org/2000/svg" xmlns:xlink="http://www.w3.org/1999/xlink" x="0px" y="0px"
	 viewBox="0 0 82.2 28.4" style="enable-background:new 0 0 82.2 28.4;" xml:space="preserve">
<style type="text/css">
	.st0{fill:url(#Layer_2_1_);}
</style>
<linearGradient id="Layer_2_1_" gradientUnits="userSpaceOnUse" x1="21.218" y1="42.6519" x2="59.8746" y2="-12.5554">
	<stop  offset="0" style="stop-color:#0997CC"/>
	<stop  offset="0.5" style="stop-color:#2CE03C"/>
	<stop  offset="1" style="stop-color:#0997CC"/>
</linearGradient>
<path id="Layer_2" class="st0" d="M24.1,13.5h-8.5c-0.4,0-0.7-0.3-0.7-0.7V4.5c0-0.4,0.3-0.7,0.7-0.7h8.5c0.4,0,0.7,0.3,0.7,0.7v8.4
	C24.8,13.3,24.5,13.5,24.1,13.5z M24.4,14.7H14.1c-0.6,0-0.7-0.4-0.7-0.6V4.1c0-0.2-0.2-0.3-0.4-0.3l0,0H4c-0.2,0-0.3,0.2-0.3,0.3
	v20.1c0,0.2,0.2,0.4,0.3,0.4h0h20.4c0.2,0,0.4-0.2,0.4-0.4l0,0v-9.1C24.7,14.9,24.6,14.7,24.4,14.7C24.4,14.7,24.4,14.7,24.4,14.7z
	 M28.4,1.2v26c0,0.7-0.5,1.2-1.2,1.2l0,0h-26c-0.7,0-1.2-0.5-1.2-1.1c0,0,0,0,0-0.1v-26C0,0.5,0.5,0,1.2,0h26
	C27.8,0,28.4,0.5,28.4,1.2L28.4,1.2z M26.4,2.3c0-0.2-0.2-0.4-0.4-0.4c0,0,0,0,0,0H2.3C2.1,2,1.9,2.1,1.9,2.3c0,0,0,0,0,0V26
	c0,0.2,0.2,0.4,0.4,0.4H26c0.2,0,0.4-0.2,0.4-0.4c0,0,0,0,0,0V2.3z M30.5,20.3h1v7.9h-1V20.3z M38.3,26.6l-4.1-6.3h-1v8h1V22
	l4.1,6.3h1v-8h-1V26.6z M42.7,0.2h-2.4v14.6h2.4V0.2z M41,28.3h1v-3.6h2.9v-0.8H42v-2.8h3.5v-0.8H41V28.3z M38.5,12.9h-5V0.2h-2.4
	v14.6h7.4L38.5,12.9z M56.2,14.7h-2.5L59,0.4h2.7l5.3,14.4h-2.5l-1.1-3.2h-6.1L56.2,14.7z M57.9,9.7h4.8l-2.4-6.8L57.9,9.7z
	 M61.5,28.2h4.4v-0.8h-3.3v-2.8h3v-0.8h-3v-2.7h3.4v-0.8h-4.4L61.5,28.2z M52.9,12.9h-5V0.2h-2.4v14.6h7.4V12.9z M80.8,23.8h-4v-3.4
	h-1v7.9h1v-3.7h4v3.7h1v-7.9h-1V23.8z M78.1,11.9c-0.8,0.5-1.8,0.8-2.8,0.8c-0.8,0-1.6-0.2-2.3-0.7c-0.7-0.4-1.3-1.1-1.6-1.8
	c-0.4-0.9-0.6-1.8-0.6-2.7c0-1,0.2-1.9,0.6-2.8c0.4-0.7,0.9-1.4,1.6-1.8c0.7-0.4,1.5-0.6,2.3-0.6c1,0,1.9,0.3,2.8,0.8
	c0.7,0.5,1.3,1.3,1.6,2.1h2.5c-0.4-1.5-1.2-2.8-2.4-3.7c-1.3-1-2.9-1.5-4.5-1.4c-1.3,0-2.5,0.3-3.7,0.9c-1,0.6-1.9,1.5-2.4,2.6
	c-0.6,1.2-0.9,2.5-0.9,3.9c0,1.3,0.3,2.7,0.9,3.8c0.6,1.1,1.4,2,2.4,2.6c1.1,0.6,2.4,1,3.7,0.9c1.6,0.1,3.2-0.4,4.5-1.3
	c1.2-0.9,2-2.2,2.4-3.7h-2.5C79.4,10.7,78.8,11.4,78.1,11.9z M69.3,21.6c0.4-0.3,0.9-0.4,1.4-0.4c0.6,0,1.2,0.1,1.7,0.5
	c0.5,0.3,0.8,0.7,1,1.3h1.1c-0.2-0.8-0.7-1.5-1.3-2c-0.7-0.5-1.5-0.7-2.4-0.7c-0.7,0-1.4,0.2-2,0.5c-0.6,0.3-1,0.8-1.3,1.4
	c-0.3,0.7-0.5,1.4-0.5,2.1c0,0.7,0.2,1.4,0.5,2.1c0.3,0.6,0.8,1.1,1.3,1.4c0.6,0.4,1.3,0.5,2,0.5c0.9,0,1.7-0.2,2.4-0.7
	c0.6-0.5,1.1-1.2,1.3-2h-1.1c-0.2,0.5-0.5,1-1,1.3c-0.5,0.3-1.1,0.5-1.7,0.5c-1,0-1.9-0.5-2.4-1.5c-0.2-0.5-0.3-1-0.3-1.6
	c0-0.6,0.1-1.1,0.4-1.6C68.6,22.2,68.9,21.8,69.3,21.6z M54.9,21.1h2.2v7.1h1v-7.1h2.2v-0.8h-5.5V21.1z M53.7,22.1
	c0.7,1.3,0.7,2.9,0,4.2c-0.3,0.6-0.8,1.1-1.4,1.5c-0.6,0.4-1.3,0.5-2,0.5c-0.7,0-1.4-0.2-2-0.5c-0.6-0.3-1.1-0.8-1.4-1.5
	c-0.7-1.3-0.7-2.9,0-4.2c0.3-0.6,0.8-1.1,1.4-1.5c0.6-0.3,1.3-0.5,2-0.5c0.7,0,1.4,0.2,2,0.5C52.9,21.1,53.4,21.6,53.7,22.1
	L53.7,22.1z M53.1,24.3c0-0.6-0.1-1.1-0.4-1.6c-0.2-0.4-0.6-0.8-1-1.1c-0.9-0.5-2-0.5-2.9,0c-0.4,0.3-0.8,0.6-1,1.1
	c-0.5,1-0.5,2.3,0,3.3c0.2,0.5,0.6,0.8,1,1.1c0.4,0.3,1,0.4,1.5,0.4c0.5,0,1-0.1,1.4-0.4c0.4-0.3,0.8-0.6,1-1.1
	C53,25.4,53.1,24.8,53.1,24.3L53.1,24.3z"/>
</svg>
