<?xml version="1.0" encoding="utf-8"?>
<!-- Generator: Adobe Illustrator 24.1.1, SVG Export Plug-In . SVG Version: 6.00 Build 0)  -->
<svg version="1.1" id="Layer_1" xmlns="http://www.w3.org/2000/svg" xmlns:xlink="http://www.w3.org/1999/xlink" x="0px" y="0px"
	 viewBox="0 0 933 933" style="enable-background:new 0 0 933 933;" xml:space="preserve">
<g>
	<path d="M619.6,371.2c-9.2,0-17.2,2.3-25.3,5.7c-6.9,3.4-12.6,9.2-17.2,13.8c-5.7,5.7-9.2,12.6-10.3,21.8
		c-2.3,6.9-3.4,16.1-3.4,25.3h110.2c0-21.8-3.4-37.9-12.6-48.2C651.7,377,638,371.2,619.6,371.2z"/>
	<path d="M930.1,125.3c-3.3-15.6-6.9-25.2-14.5-40.3C894.4,43.4,857,14.6,809.2,3.1c-9.5-2.3-26.4-2.4-338-2.7
		c-180.4-0.1-329.7,0.1-332,0.4C118.8,3.4,103,8.2,84.9,17.5C55.4,32.6,32.5,55.5,17.4,85c-7.6,15.1-11.2,24.7-14.5,40.3
		c-2.3,10.8-2.4,27.1-2.4,341.2s0.1,330.4,2.4,341.2c3.3,15.6,6.9,25.2,14.5,40.3c15.1,29.5,38,52.4,67.5,67.5
		c15.1,7.6,24.7,11.2,40.3,14.5c10.8,2.3,27.1,2.4,341.3,2.4s330.5-0.1,341.3-2.4c15.6-3.3,25.2-6.9,40.3-14.5
		c29.5-15.1,52.4-38,67.5-67.5c7.6-15.1,11.2-24.7,14.5-40.3c2.3-10.8,2.4-27.1,2.4-341.2S932.4,136.1,930.1,125.3z M321.4,673.1
		H188.3l122.8-206.6L188.3,259.9h133.1l122.8,206.6L321.4,673.1z M739,479.1c-3.4,3.4-9.2,6.9-16.1,6.9H563.4
		c0,10.3,2.3,21.8,3.4,29.8c2.3,9.2,6.9,16.1,12.6,23c5.7,6.9,12.6,10.3,23,13.8c9.2,3.4,19.5,5.7,32.1,5.7s25.3-2.3,33.3-3.4
		c9.2-2.3,17.2-3.4,25.3-5.7c6.9-2.3,12.6-3.4,17.2-5.7c5.7-2.3,9.2-3.4,10.3-3.4c2.3,0,3.4,0,3.4,2.3c2.3,0,2.3,2.3,3.4,3.4
		c0,2.3,2.3,3.4,2.3,6.9c0,3.4,0,6.9,0,12.6c0,3.4,0,6.9,0,10.3s0,5.7,0,6.9c0,2.3-2.3,3.4-2.3,5.7c0,2.3-2.3,3.4-3.4,3.4
		c-2.3,0-5.7,3.4-10.3,5.7c-5.7,2.3-12.6,5.7-21.8,6.9c-9.2,2.3-19.5,3.4-29.8,5.7c-10.3,2.3-23,2.3-35.6,2.3
		c-23,0-44.8-3.4-60.8-9.2c-17.2-5.7-32.1-13.8-44.8-26.4s-21.8-26.4-26.4-44.8c-5.7-18.4-9.2-39-9.2-64.3c0-23,3.4-44.8,9.2-62
		c5.7-18.4,13.8-33.3,26.4-48.2c10.3-12.6,25.3-23,42.5-29.8s35.6-10.3,55.1-10.3c21.8,0,41.3,3.4,57.4,9.2
		c16.1,6.9,28.7,16.1,36.7,26.4c9.2,10.3,17.2,25.3,21.8,41.3c6.9,18.4,9.2,35.6,9.2,53.9v11.5h1.1
		C744.7,468.8,742.4,475.7,739,479.1z"/>
</g>
</svg>
